<svg id="Слой_1" data-name="Слой 1" xmlns="http://www.w3.org/2000/svg" viewBox="0 0 322.2 284.6"><defs><style>.cls-1{fill:#fdfff4;}.cls-2,.cls-3{fill:#358335;}.cls-3{isolation:isolate;font-size:30.56px;font-family:BerlinSansFB-Bold, Berlin Sans FB;font-weight:700;}</style></defs><title>logo4</title><ellipse class="cls-1" cx="161.1" cy="142.3" rx="161.1" ry="142.3"/><path id="path4528" class="cls-2" d="M157,300.81c0-.5,8.6-15.7,19.1-33.8,15.2-26.2,19.5-32.8,21.1-32.5,1.1.2,4.2.4,6.8.5l4.9.2,9.6-17.1c6.2-11,11.9-19.7,16-24.4l6.4-7.3,1.1,4.9a45.3,45.3,0,0,0,5.9,11.6c2.5,3.7,5,7.3,5.4,8,.6,1.2-6.2,14.2-17.9,34.6-.8,1.4-1.2,2.5-1,2.5s7.4-11,15.9-24.3c14.9-23.4,15.8-24.5,25.6-33,12.7-11,12.6-11,14.3-9.4,1.1,1,2.8,0,8.4-5l7-6.3,6.1,6.2c3.3,3.4,6.7,6.2,7.4,6.2s3,1.7,5,3.8a37.84,37.84,0,0,0,6.7,5.5,31.6,31.6,0,0,1,6.4,5.7c2.5,2.9,4,3.8,5.6,3.3,1.8-.5,2.8.3,5.2,4.3a58.2,58.2,0,0,0,8,9.6c4.9,4.6,5,4.6,7.9,2.9a15.2,15.2,0,0,1,4.1-1.8c1.6,0,13,10.5,21,19.2,3.7,4.2,7.4,7.5,8.1,7.5a4,4,0,0,1,2.2,1c2,2.1,7.2,2.1,11.4-.1l4.2-2.2,2.2,2.5c6.1,7.1,19.9,25.6,23.1,30.9,4.2,7,11.3,21.2,10.8,21.7-.2.2-1.6,1.3-3.2,2.7a10.42,10.42,0,0,1-6.5,2.4c-3.6,0-4.8-1-9-7.1-1.3-2-1.3-2.1,1-1.3l2.4.8-1.9-3.2c-1.1-1.8-3.3-5.7-4.9-8.6l-3-5.4-1.2,6.9c-.7,3.8-1.7,7.9-2.4,9.1-1,2.1-.9,2.2.9,1.1,2-1.2,2-1.1.4,3.3-1.4,4.1-1.9,4.4-5.2,4.4-2.8,0-4.3-.8-6.5-3.5l-2.9-3.5,2.7.6c1.5.3,2.7.3,2.7-.1s-1.9-2.8-4.2-5.4c-3-3.4-3.7-4.8-2.4-4.8,2.5,0,2-1.3-1.9-5.6a42.77,42.77,0,0,1-6-8.6l-2.5-4.8-2.3,5.4c-3.9,9.2-3.9,9.1-7.9,4.8-2.9-3.2-3.7-3.6-4.4-2.3-.5.9-2,3.3-3.3,5.4l-2.4,3.8-2.5-4.3a47.77,47.77,0,0,1-3.7-8.1l-1.1-3.8-2.2,6.7a86.46,86.46,0,0,1-4.3,10.8c-2.6,5-2.7,5.4-.2,4,3.1-1.9,3.3-1.3,1.1,2.8-2.6,4.9-2.6,5.4-.1,3.8,2-1.2,2-1-.2,2.8s-2.4,3.9-9,3.9c-4.9,0-6.7-.3-6.5-1.4.2-.8-.5-2.9-1.4-4.8l-1.6-3.3-1.1,3.2a19.6,19.6,0,0,0-1.1,4.8c0,1.3-1.6,1.6-7.2,1.6-6.5,0-7.5-.3-9.6-2.8l-2.4-2.8,3.7,1.8c4.1,1.9,5.5,1.7,3.1-.6-2.2-2.1-1.9-3.6.7-2.8,1.9.7,1.6,0-1.6-4.4-4.6-6.2-3.8-8.3,1.8-5.6,2,1,3.9,1.6,4.2,1.3s-2.9-3.3-6.7-6.9-6.6-6.8-5.9-6.9c.7-.3.6-1.3-.5-3.3l-1.6-2.8,4.2,2.4c5.6,3.3,5.2,1.3-.9-4.6-6.4-6.1-18.4-21.5-20.5-26.3-.9-2-1.8-3.6-2.1-3.6s-3.2,5.2-6.3,11.5-7.5,14-9.6,17.3-3.7,5.9-3.4,5.9a18.17,18.17,0,0,0,3.6-1.8c1.6-1,3.2-1.6,3.3-1.3s-1.2,3.6-3.2,7.4c-3.1,6.2-3.7,6.9-4.6,5-.7-1.3-.7-2.2-.1-2.4s-1.2-5.3-3.9-11.4l-4.9-11-5.6,12.4c-3.7,8.1-5.1,12.5-4.4,12.7,1.3.3-1.5,7.3-5.6,14.1-1.3,2.2-1.6,3.6-1,4s.7,1.5-.1,3.2c-1,2.1-1.9,2.3-6.3,2.1-5-.3-5.1-.5-5-3.4.1-1.7-1.7-7.5-4-13l-4.2-9.9-2.3,4.8a58.15,58.15,0,0,1-5.8,9.4l-3.5,4.6-2.8-3c-1.5-1.7-2.5-3.5-2.2-4.1.6-1-9.5-25.1-10.6-25.2-.3-.1-1.1,1.6-1.7,3.5a94.6,94.6,0,0,1-5.6,11.3c-2.4,4.3-4.2,7.9-4,8.3s-.5,1.8-1.7,3.3c-1.8,2.2-1.9,2.6-.5,2.1,2.4-.9,2.2.3-.5,3.5l-2.2,2.8,2.2-.8c2.7-.9,2.8-.3.7,3.3-1.3,2.3-2.4,2.8-5.9,2.8-4.2,0-4.5-.2-8.1-6.5l-3.7-6.5-4.4,6.3-4.4,6.3-6.2.3c-3.6.2-6.4,0-6.4-.6Zm27.4-22.7c2.9-4.1,6-7.4,6.8-7.3,1.9.3,11.5-13.6,12.2-17.6.6-3.3.6-3.3,1.5-.7.6,1.8,1.2,2.3,1.9,1.5s-.3-3.5-3.2-8.6l-4.2-7.5-1.1,3.7a57.44,57.44,0,0,1-3.8,8.1c-3.6,5.9-3.6,8.5,0,4.9l2.7-2.7-2.5,3.9c-1.4,2.2-6.8,10.4-12.1,18.1s-9.6,14.5-9.6,14.8c-.1,2.2,6.8-4.4,11.4-10.6Zm213.9-18.3c-.7-3.1,1.2-3.8,3.4-1.4,1,1.1,1.4,1.1,2-.2s1.5-.9,4.2,1.4c2.9,2.5,7.7,4,7.7,2.4a23,23,0,0,0-2.1-4.4c-2.1-4.1-4.8-5.7-2.9-1.8,1.7,3.6,1.2,3.6-3.8-.5-4.1-3.3-5-3.7-5.5-2.1s-.9,1.6-2.1.4a3.51,3.51,0,0,1-1.2-2.8c.2-.8-5.1-6-11.6-11.7s-12.5-10.8-13.1-11.4c-.9-.8-1.2-.3-1.2,2.1,0,2.6,1.2,4.2,6.4,8.7,3.5,3,6.3,5.6,6.1,5.9s-1.7-.2-3.4-.8c-2-.8-3.7-.8-4.7-.2-1.3.8-.1,2.1,6.4,6.4,4.4,2.9,9.2,7,10.6,9.1C396.55,263.41,399.05,264,398.25,259.81Zm-170-14.8c2.9-5.2,8.7-11.9,12.1-14.2,2.7-1.8,7.7-10.7,6.8-12-.5-.7-1.2-3.5-1.6-6.3l-.7-5,2.3,3.3c1.2,1.8,2.4,3.6,2.6,3.8s.8-.1,1.5-.8c.8-.9-.2-2.9-4-7.7-3-3.8-5.3-7.9-5.7-10.1-.3-2-.9-3.7-1.3-3.7s-1.7,5.4-2.9,12a93.21,93.21,0,0,1-7.2,22.8c-2.7,6-4.4,10.9-3.9,10.9,1.8,0,1,1.8-3.8,9.1-6.8,10.3-6.9,10.5-2,6.7a30.28,30.28,0,0,0,7.8-8.8Zm41.7-12.4c1.4-2.4,2.6-3.9,2.8-3.3.7,2.6,2.3.4,9.6-13.5a275.58,275.58,0,0,1,14.5-24.2c5.6-7.9,6.6-9.8,5.3-10.5-1.6-1-5.4,1.3-8.9,5.7-2.4,3-3.6,3-3.6.1,0-2.1-.5-1.8-4.5,1.8-5.9,5.5-21.6,26.8-20.7,28.4.5.8,1,.8,1.7,0s1.4-.6,2.3.7c1.1,1.7,1.4,1.7,2.9.3s1.7-1.4,1,1.1c-.4,1.5-2,5.9-3.6,9.9-3.1,7.9-3.2,8-2.1,8,.5-.1,2-2.1,3.3-4.5Zm97.5,1.4c1.3-1.4-6.6-9.3-9.4-9.3-2,0-5.5-3.1-14.9-13.5-10.5-11.5-21.1-21-23.4-21-.3,0,.2.9,1.1,2.1,1.3,1.7,1.4,2.3.4,2.7-.8.3-.3,1,1.3,1.7a8.83,8.83,0,0,1,3.8,4.6c.7,1.9,2,3.4,2.9,3.4a7.31,7.31,0,0,1,3.6,1.7c1.8,1.6,1.7,1.6-.8.6-4.6-1.8-3.3,2.2,2.4,7.1a79.36,79.36,0,0,1,10,11.1c7.4,10,10,10,5,0l-2.7-5.4,5,4.7a68.51,68.51,0,0,1,6.3,6.4,3.15,3.15,0,0,0,3.6,1c1.6-.5,2.5-.1,2.9,1.1C365.35,234.91,366.35,235.31,367.45,234Zm-145.1,66.4c0-1,.4-2.3,1.1-2.6,1.7-1.3,2,.1.5,2.3-1.3,1.9-1.5,1.9-1.6.3Zm62.5-6.4a2.39,2.39,0,0,1,1-1.8c.6-.4,1-.2,1,.4a2.39,2.39,0,0,1-1,1.8c-.6.4-1,.2-1-.4Zm93.2-3.6c0-.7.4-.8,1-.5s1,.9,1,1.2-.4.5-1,.5S378.05,291.11,378.05,290.41Zm-95.3-1.9c0-.5,1.4-2.3,3.2-4.2l3.2-3.3-2.8,4.2C283.55,289.41,282.75,290.11,282.75,288.51Z" transform="translate(-142.95 -137.41)"/><text class="cls-3" transform="translate(85.24 204.28) scale(0.97 1)">MyTail KG</text></svg>