<?xml version="1.0" encoding="UTF-8" standalone="no"?>
<!-- Created with Inkscape (http://www.inkscape.org/) -->

<svg
   xmlns:dc="http://purl.org/dc/elements/1.1/"
   xmlns:cc="http://creativecommons.org/ns#"
   xmlns:rdf="http://www.w3.org/1999/02/22-rdf-syntax-ns#"
   xmlns:svg="http://www.w3.org/2000/svg"
   xmlns="http://www.w3.org/2000/svg"
   xmlns:sodipodi="http://sodipodi.sourceforge.net/DTD/sodipodi-0.dtd"
   xmlns:inkscape="http://www.inkscape.org/namespaces/inkscape"
   version="1.1"
   id="svg815"
   width="392"
   height="688"
   viewBox="0 0 392 688"
   sodipodi:docname="sketch3.svg"
   inkscape:version="0.92.3 (2405546, 2018-03-11)">
  <metadata
     id="metadata821">
    <rdf:RDF>
      <cc:Work
         rdf:about="">
        <dc:format>image/svg+xml</dc:format>
        <dc:type
           rdf:resource="http://purl.org/dc/dcmitype/StillImage" />
        <dc:title></dc:title>
      </cc:Work>
    </rdf:RDF>
  </metadata>
  <defs
     id="defs819" />
  <sodipodi:namedview
     pagecolor="#ffffff"
     bordercolor="#666666"
     borderopacity="1"
     objecttolerance="10"
     gridtolerance="10"
     guidetolerance="10"
     inkscape:pageopacity="0"
     inkscape:pageshadow="2"
     inkscape:window-width="1366"
     inkscape:window-height="705"
     id="namedview817"
     showgrid="false"
     inkscape:zoom="0.80232558"
     inkscape:cx="196"
     inkscape:cy="344"
     inkscape:window-x="-8"
     inkscape:window-y="-8"
     inkscape:window-maximized="1"
     inkscape:current-layer="svg815" />
  <path
     style="fill:#000000"
     d="M 10.715608,685.09571 C 9.7720234,683.49835 9,680.3749 9,678.15472 9,675.93454 8.55,673.83992 8,673.5 c -1.6083303,-0.994 -1.1584093,-3.34159 1.0669124,-5.56691 1.5545276,-1.55453 2.3945746,-1.79498 3.3886726,-0.96995 0.900479,0.74733 2.63264,0.80243 5.434619,0.17286 4.355683,-0.97865 11.632096,0.47303 12.9346,2.58053 1.070065,1.7314 6.234055,0.2479 7.305546,-2.09872 1.26214,-2.76415 7.392105,-3.35996 10.027828,-0.97466 2.94266,2.66307 2.396276,7.71252 -1.158178,10.7034 -1.849956,1.55663 -3,3.4761 -3,5.0071 0,5.61809 -3.386311,7.93966 -4.589356,3.14635 -0.361554,-1.44055 -1.348085,-2.5 -2.327922,-2.5 -0.935255,0 -2.55293,-0.62334 -3.594834,-1.3852 -1.693309,-1.23818 -2.032004,-1.11991 -3.191129,1.11431 C 29.583541,684.10384 29,685.85218 29,686.61431 29,687.37644 28.1,688 27,688 c -2.53101,0 -2.742166,-4.66413 -0.414902,-9.16456 1.865194,-3.60689 0.678816,-5.34301 -1.835098,-2.68544 -0.9625,1.0175 -1.3,1.85 -0.75,1.85 2.085714,0 0.873407,2.92364 -2.25,5.42618 -1.7875,1.43218 -3.793507,3.04719 -4.457794,3.58889 -2.199768,1.79386 -4.837967,1.02391 -6.576598,-1.91936 z M 19.5,679.89607 c 2.845127,-1.98281 2.87094,-2.06062 0.5,-1.50706 -1.375,0.32102 -3.2875,0.58983 -4.25,0.59734 -0.9625,0.008 -1.75,0.68865 -1.75,1.51365 0,2.07892 1.959078,1.8638 5.5,-0.60393 z m 18.671797,-6.12427 c -0.548643,-0.54865 -1.486742,-0.69519 -2.084665,-0.32565 -1.64735,1.01812 -1.302162,3.33278 0.662868,4.44486 1.398008,0.79118 1.817314,0.57683 2.084665,-1.06565 0.184066,-1.13082 -0.114225,-2.50492 -0.662868,-3.05356 z M 24.25,672.61291 C 26.139378,672.56812 26.744838,670 24.86602,670 c -2.018048,0 -9.336688,2.30975 -10.36602,3.2715 -0.621986,0.58115 0.701065,0.64111 3.5,0.15862 2.475,-0.42665 5.2875,-0.79439 6.25,-0.81721 z M 45,670.44098 C 45,669.64844 44.55,669 44,669 c -0.55,0 -1,0.92656 -1,2.05902 0,1.13246 0.45,1.7809 1,1.44098 0.55,-0.33992 1,-1.26648 1,-2.05902 z m 7.485718,11.90188 c -1.37087,-1.37087 -1.543565,-2.88242 -0.999688,-8.75 0.817286,-8.81723 1.368459,-10.81083 2.848829,-10.30423 0.735896,0.25182 1.165141,2.94305 1.165141,7.30504 0,6.56603 0.110864,6.89459 2.25,6.66812 3.019192,-0.31965 3.037196,3.07343 0.02749,5.18151 -2.785936,1.95134 -3.24878,1.94256 -5.291776,-0.10044 z m 114.085712,0.0857 c -0.86429,-0.86428 -1.5749,-2.10178 -1.57913,-2.75 C 164.98561,678.65467 158.06707,674 156.55188,674 156.24835,674 156,675.725 156,677.83333 c 0,4.43757 -0.76821,5.60392 -2.65799,4.03555 -1.43744,-1.19297 -1.77263,-8.47101 -0.73592,-15.97931 0.77051,-5.58041 4.30497,-8.70675 7.9604,-7.04123 1.30809,0.596 2.66757,2.23604 3.02108,3.64453 0.43594,1.73693 1.00787,2.26848 1.77758,1.65208 0.62417,-0.49985 4.18436,-0.89895 7.91154,-0.88691 3.72718,0.012 7.06468,-0.26608 7.41667,-0.61807 0.96146,-0.96146 5.10858,-0.76946 5.74862,0.26615 0.30801,0.49837 1.39248,0.68842 2.40994,0.42235 1.01746,-0.26607 2.59201,0.25832 3.499,1.16531 0.907,0.90699 1.70533,1.39193 1.77408,1.07765 0.0687,-0.31429 0.18814,-0.90893 0.26531,-1.32143 0.4036,-2.15729 2.09123,-3.35766 4.45886,-3.17146 1.45796,0.11466 3.41678,-0.12098 4.35294,-0.52364 2.13749,-0.91939 3.78828,0.0523 3.82969,2.25412 0.0175,0.93004 0.6925,2.56449 1.5,3.63211 1.94731,2.57456 1.86476,7.01945 -0.1681,9.05231 -1.22471,1.22471 -2.60816,1.47211 -5.5,0.98353 -3.67942,-0.62163 -3.8637,-0.52602 -3.8637,2.00468 0,2.18389 -0.40095,2.60051 -2.25,2.3379 -1.63647,-0.23241 -2.33923,-1.10002 -2.57725,-3.18177 -0.32621,-2.85309 -0.33207,-2.85533 -1.84005,-0.70239 -0.83203,1.1879 -2.25977,2.06687 -3.17275,1.95326 -0.91297,-0.1136 -2.85554,0.12824 -4.31681,0.53743 -1.4709,0.41189 -3.51247,0.28608 -4.57365,-0.28185 -1.51856,-0.81271 -2.83639,-0.41576 -6.34314,1.91069 -5.15081,3.41714 -5.28616,3.44242 -7.35492,1.37365 z M 174,675.39549 c 1.375,-0.84349 1.6757,-1.27755 0.66821,-0.96456 -1.00748,0.31299 -2.46998,0.56907 -3.25,0.56907 -0.78001,0 -1.41821,0.45 -1.41821,1 0,1.36498 1.04759,1.20666 4,-0.60451 z m 11,-4.95451 c 0,-3.60882 -0.79549,-4.24549 -2.8,-2.24098 -1.52157,1.52157 -1.5398,4.0602 -0.0399,5.56008 1.76171,1.76171 2.83992,0.50158 2.83992,-3.3191 z m 6.10362,-1.73736 c -0.80483,-0.80483 -1.09539,-0.30495 -1.07321,1.84638 0.0267,2.58611 0.16279,2.72225 1.10362,1.10362 0.76916,-1.32326 0.76054,-2.15905 -0.0304,-2.95 z M 165,668.21848 v -2.66349 l -1.55793,2.22426 c -0.85687,1.22334 -1.27577,2.68081 -0.9309,3.23882 1.03684,1.67765 2.48883,0.0444 2.48883,-2.79959 z m 10.5,-0.44327 c 0.66667,-0.66667 0.16667,-0.7584 -1.5,-0.27521 -1.375,0.39863 -2.95,1.17479 -3.5,1.72479 -0.66667,0.66667 -0.16667,0.7584 1.5,0.27521 1.375,-0.39863 2.95,-1.17479 3.5,-1.72479 z m -16.17622,-4.06035 c -0.37452,-0.60598 -1.17426,-0.27224 -1.97642,0.82478 -2.02038,2.76303 -1.62179,4.01869 0.62906,1.9817 1.08703,-0.98375 1.69334,-2.24666 1.34736,-2.80648 z m 138.93662,19.07803 c -1.47432,-1.80561 -0.0425,-21.14559 1.723,-23.27288 2.28448,-2.75264 7.24101,-1.57153 9.11118,2.17113 1.42573,2.85324 1.75529,3.03042 3.11241,1.6733 0.83482,-0.83482 3.28593,-1.755 5.44692,-2.04484 4.61559,-0.61909 6.02948,0.60159 6.51439,5.62418 0.31414,3.25391 0.42272,3.34413 2.05155,1.70471 1.58353,-1.59384 1.96,-1.60685 4.75,-0.16408 3.44032,1.77906 3.75076,3.48711 1.36718,7.52219 -2.13785,3.6191 -9.13196,5.01301 -12.86859,2.56468 -3.15947,-2.07017 -3.20343,-2.05434 -3.96844,1.42872 -0.7374,3.35737 -1.19959,3.54289 -3.8407,1.54164 -1.24517,-0.94351 -1.6287,-2.06269 -1.18545,-3.45925 0.9828,-3.09654 -0.007,-3.84362 -4.18907,-3.16197 -3.63835,0.59303 -3.78478,0.77003 -3.78478,4.5751 0,4.18366 -2.15033,5.85609 -4.2396,3.29737 z M 323.72505,673 c -0.0829,-1.1 -0.24309,-2 -0.35607,-2 -0.11297,0 -0.92869,0.27755 -1.81272,0.61678 -1.24406,0.4774 -1.34787,0.92939 -0.45934,2 1.64262,1.97923 2.80316,1.70687 2.62813,-0.61678 z M 306,667.58179 c 0,-2.38818 -1.15955,-4.60121 -2.10478,-4.01703 C 302.36394,664.51114 302.86342,669 304.5,669 c 0.825,0 1.5,-0.6382 1.5,-1.41821 z m 12.61572,-0.76903 c 0.3215,-0.5202 0.35303,-1.17734 0.0701,-1.46031 -0.70024,-0.70024 -4.68578,1.50196 -4.68578,2.58911 0,1.08903 3.82282,0.15413 4.61572,-1.1288 z M 62.623848,679.46215 c -0.341972,-0.89117 0.06182,-1.78803 0.960228,-2.13279 1.867361,-0.71657 3.910724,1.06102 2.969775,2.58351 -0.98128,1.58774 -3.247507,1.32783 -3.930003,-0.45072 z m 24.349577,-1.48813 c -3.195178,-3.12338 -3.196597,-3.1294 -1.086391,-4.60745 2.281589,-1.59809 2.70472,-4.39235 1.114949,-7.36287 -1.437135,-2.68531 1.370326,-5.19719 5.373449,-4.8077 2.57372,0.25041 3.180352,0.78881 3.44099,3.054 0.249505,2.16843 0.836313,2.75 2.774751,2.75 2.726227,0 4.408827,3.05547 4.408827,8.00608 0,5.43854 -4.407778,4.96427 -5.449072,-0.5863 -0.642208,-3.42327 -0.658171,-3.43226 -2.982104,-1.68074 -1.441479,1.08644 -2.242418,2.61989 -2.090982,4.00334 0.451452,4.12424 -1.987143,4.66989 -5.504417,1.23164 z m 20.126665,1.38353 c -2.50493,-1.75452 -2.51483,-2.41091 -0.23567,-15.61714 1.00131,-5.80191 1.69536,-6.6092 3.83912,-4.46545 1.44028,1.44029 1.50229,2.32143 0.47619,6.76677 -2.22046,9.61952 -1.06737,12.17562 3.70284,8.20827 1.98528,-1.65114 2.02226,-1.97596 0.65468,-5.75 -1.97963,-5.46307 -1.90228,-6.22588 0.9173,-9.04545 2.8065,-2.80651 8.55522,-3.35263 10.5091,-0.99835 1.7796,2.14429 0.36249,3.56992 -3.27027,3.28993 -2.40289,-0.1852 -3.10716,0.12518 -2.84506,1.25387 1.35468,5.83387 2.31988,14.11928 1.80203,15.4688 -0.4921,1.28238 -1.0362,1.39507 -2.62648,0.54397 -1.51368,-0.81009 -2.7319,-0.698 -4.96518,0.45688 -3.75272,1.94061 -5.05413,1.92227 -7.9586,-0.1121 z M 339.90499,679.25 C 337.55385,676.32151 336,673.1237 336,671.21357 c 0,-0.99746 -0.50705,-2.32062 -1.12678,-2.94035 -0.62843,-0.62843 -0.846,-2.24552 -0.49195,-3.6562 1.23907,-4.93683 10.61873,-4.49038 10.61873,0.50542 0,1.17008 0.70748,1.87756 1.87756,1.87756 2.64115,0 3.75336,1.78729 4.45205,7.15432 0.96251,7.39363 -3.18714,8.51495 -5.67055,1.5323 -0.99838,-2.80717 -2.37913,-1.13942 -1.87883,2.26935 0.51452,3.50565 -1.54698,4.19403 -3.87524,1.29403 z m 22.64509,0.83103 C 362.18262,679.48646 360.7939,679 359.46404,679 c -3.32534,0 -5.20044,-3.31351 -6.01335,-10.62626 -0.59475,-5.35021 -0.91979,-6.06383 -2.56586,-5.63337 -1.39545,0.36492 -1.88483,-0.0413 -1.88483,-1.56472 0,-2.71956 1.46726,-3.52249 3.01937,-1.65231 0.93509,1.12671 1.58094,1.22334 2.58838,0.38723 1.6816,-1.3956 2.97373,1.41089 3.95464,8.58943 0.52556,3.84619 0.86373,4.53848 1.46541,3 0.4302,-1.1 0.56168,-2.97059 0.29216,-4.15686 C 359.53057,663.8686 361.66297,661 365.03518,661 c 3.35066,0 3.63415,0.60291 1.42916,3.0394 -1.41109,1.55924 -1.32997,1.65757 1,1.21217 3.16101,-0.60427 3.52662,2.11262 0.53566,3.9805 -2.1714,1.35606 -2.83706,5.32413 -0.75,4.47085 0.6875,-0.28108 1.97943,-0.80508 2.87096,-1.16446 2.78455,-1.12244 3.26575,2.53453 0.66939,5.08717 -2.6928,2.64745 -7.2773,4.01352 -8.24027,2.4554 z M 232.61902,675.86646 C 231.25585,673.92026 231,673.83818 231,675.34704 c 0,1.27223 -0.63207,1.69937 -2.17901,1.47251 -1.74348,-0.25568 -2.43161,-1.41886 -3.44283,-5.81955 -1.30977,-5.69997 -0.86129,-12.58338 0.89041,-13.66598 0.55322,-0.34191 1.77091,0.39259 2.70597,1.63223 1.50877,2.00022 1.94169,2.10301 3.84662,0.91337 1.84594,-1.15281 2.38365,-1.10339 3.84002,0.35299 1.40838,1.40838 1.49528,2.12858 0.51617,4.2775 C 235.73888,667.66719 235.63629,672 237,672 c 0.55,0 1,-0.85186 1,-1.89301 0,-1.96715 2.50608,-3.53028 4.09024,-2.55122 1.62186,1.00237 0.96122,-0.79765 -0.75272,-2.05092 -0.99347,-0.72644 -1.40607,-1.88384 -1.0253,-2.87611 0.50497,-1.31591 1.44578,-1.53117 4.53397,-1.03734 2.66894,0.42678 4.64624,0.14761 6.2753,-0.88598 C 256.08242,657.55785 264,657.42414 264,660.48793 c 0,0.74424 -1.28194,1.63472 -2.84876,1.97885 -2.74521,0.60295 -2.83166,0.8038 -2.37799,5.52523 C 259.403,674.54595 258.45967,678 256.03996,678 c -1.05706,0 -2.15367,-0.37497 -2.43691,-0.83327 -0.28325,-0.4583 -1.84478,-0.6381 -3.47008,-0.39955 -2.24921,0.33011 -3.22361,-0.068 -4.07921,-1.66673 C 244.76487,672.69214 243,672.31101 243,674.44098 c 0,1.82155 -0.66686,2.2183 -5.1386,3.0572 -3.07881,0.57759 -3.86669,0.33235 -5.24238,-1.63172 z M 254,670 c 0,-4.47292 0.11521,-4.3745 -3.50833,-2.99683 l -2.63854,1.00317 2.32344,2.9415 C 253.29929,674.90126 254,674.72755 254,670 Z m -23.30701,-1.73097 c -0.25354,-0.97297 -0.47766,-0.41903 -0.49804,1.23097 -0.0204,1.65 0.18706,2.44606 0.46099,1.76903 0.27392,-0.67703 0.29059,-2.02703 0.0371,-3 z M 101.6875,661.35417 c -1.47104,-1.47104 -0.69742,-4.50273 1.0625,-4.1638 0.9625,0.18536 1.75,1.19336 1.75,2.23999 0,1.98954 -1.63108,3.10523 -2.8125,1.92381 z m 182.86666,-4.91719 -0.70554,-3.76085 -77.67431,0.83952 C 163.45344,653.97738 116.8,654.42817 102.5,654.51741 88.2,654.60664 68.733422,655.02844 59.240937,655.45475 41.122302,656.26845 39,655.90491 39,651.98756 c 0,-1.6086 1.865955,-1.83661 20.75,-2.53554 11.4125,-0.4224 27.05,-0.85268 34.75,-0.95616 7.7,-0.10349 21.36475,-0.29823 30.36612,-0.43275 l 16.36611,-0.24459 -0.60511,-3.65926 c -0.33281,-2.01259 -0.61006,-12.27001 -0.61611,-22.79425 -0.0108,-18.73498 -0.0581,-19.16577 -2.26101,-20.60729 -1.73698,-1.1366 -7.55122,-1.61807 -25.5,-2.11165 L 89,598.00671 l -0.04024,6.24665 c -0.06053,9.39559 -2.556287,40.6765 -3.305136,41.42535 -0.360042,0.36004 -0.992122,0.31807 -1.404622,-0.0933 -1.234123,-1.23064 -1.465038,-19.28402 -0.402662,-31.48088 0.590716,-6.78185 0.631193,-12.34593 0.09998,-13.74313 l -0.892594,-2.3477 -23.926086,0.11474 C 45.969293,598.19154 34.706981,597.9369 34.10128,597.56256 33.495574,597.18825 33,596.23352 33,595.44098 c 0,-1.24138 10.07714,-1.44185 72.75,-1.44724 72.45427,-0.006 157.38701,-0.57446 221.39988,-1.48125 29.95968,-0.4244 33.71605,-0.30425 34.25325,1.09566 0.33185,0.86478 0.35831,1.96883 0.0588,2.45344 -0.29951,0.4846 -16.73157,0.8709 -36.5157,0.85843 -19.78413,-0.0125 -36.3414,0.20617 -36.79392,0.48584 -0.45252,0.27968 -0.39017,3.19472 0.13857,6.47787 0.60677,3.76771 0.62216,12.72756 0.0417,24.29282 -0.50578,10.0779 -0.85337,18.44511 -0.77243,18.5938 0.0809,0.14869 15.33032,0.55966 33.88752,0.91327 35.80564,0.68227 36.01439,0.71589 33.50932,5.39665 l -1.19696,2.23655 -28.63004,-0.70767 c -15.74652,-0.38921 -30.76754,-0.91479 -33.38004,-1.16795 -4.39777,-0.42616 -4.75114,-0.29274 -4.76531,1.79925 -0.0297,4.37417 -1.68182,5.18752 -2.43053,1.19653 z m -44.45753,-9.39599 43.59664,-0.041 0.70806,-24.1453 c 0.38943,-13.27992 0.34595,-24.43507 -0.0966,-24.78923 -0.44259,-0.35416 -16.73731,-0.40127 -36.2105,-0.1047 L 212.68841,598.5 213.0942,607 c 0.66742,13.97995 0.4607,31.36532 -0.39799,33.47197 -2.08806,5.12269 -3.47612,-4.37056 -4.16306,-28.47197 l -0.38477,-13.5 -12.82419,-0.18374 c -10.27451,-0.14722 -12.42655,0.0516 -10.82419,1 11.43891,6.77037 18.10157,25.09617 12.25,33.69391 -4.16986,6.1268 -7.01813,7.48983 -15.65117,7.48983 -7.01077,0 -8.11811,-0.27733 -11.54551,-2.89153 -5.35693,-4.08593 -7.94248,-10.38016 -7.2773,-17.71581 C 162.88473,613.17969 166.46533,606 169.20446,606 c 1.7741,0 1.77267,0.12681 -0.0421,3.75 -4.37069,8.7261 -3.42038,18.77299 2.2701,24 3.01896,2.77308 4.28134,3.25 8.60251,3.25 9.36932,0 13.97395,-4.52051 13.95526,-13.70034 -0.0121,-5.95664 -3.7109,-14.24391 -8.17861,-18.32454 C 183.25406,602.63916 181.6285,602 178.24502,602 c -4.14234,0 -8.85353,1.58762 -12.44706,4.19453 -0.93612,0.6791 -1.9897,0.94706 -2.3413,0.59546 -1.17828,-1.17828 0.5515,-4.4564 3.05991,-5.79886 3.29821,-1.76515 3.1338,-2.51823 -0.51657,-2.36613 -1.65,0.0688 -6.79743,0.18125 -11.43873,0.25 l -8.43872,0.125 -0.52044,4.25 c -0.79986,6.53187 -2.31431,43.14224 -1.82332,44.07698 0.23892,0.45483 12.19893,0.58578 26.5778,0.29099 14.37888,-0.2948 45.76189,-0.55443 69.74004,-0.57698 z m -4.59506,-17.36239 c -1.09913,-0.83329 -1.66537,-1.84813 -1.25831,-2.25519 0.94627,-0.94627 28.75596,-1.15943 28.75641,-0.22041 6.2e-4,1.32233 -7.495,2.88392 -16.49967,3.43744 -7.13192,0.4384 -9.4148,0.23876 -10.99843,-0.96184 z m 1.61896,-9.03337 c -0.71099,-0.85669 -1.00241,-2.02733 -0.6476,-2.60143 0.69164,-1.11909 23.18061,-1.49772 25.94528,-0.43681 3.34925,1.28523 1.27238,2.16004 -6.66821,2.80874 -4.5375,0.37069 -10.29452,0.92443 -12.79338,1.23054 -3.40158,0.4167 -4.86826,0.16513 -5.83609,-1.00104 z M 236,613.95173 c 0,-1.35985 1.08191,-2.50318 3.21898,-3.40176 3.10442,-1.30531 3.13147,-1.36587 0.76022,-1.70172 -1.35232,-0.19154 -2.59824,-1.08058 -2.7687,-1.97564 -0.46282,-2.43025 10.9497,-4.4451 16.58419,-2.92789 3.83567,1.03284 6.65844,3.05528 4.26433,3.05528 -2.34144,0 -0.86377,1.78905 1.94098,2.35 5.55735,1.11147 3.0587,2.35016 -5.91321,2.93142 -5.04271,0.3267 -10.23207,1.25947 -11.95034,2.14802 C 237.99027,616.57351 236,616.41857 236,613.95173 Z m 19,-5.95787 c 1.00926,-0.65636 -0.62656,-0.76914 -5,-0.34472 -3.575,0.34693 -6.6875,0.7928 -6.91667,0.99082 -0.99525,0.85999 10.56456,0.23323 11.91667,-0.6461 z m 107.66667,34.33947 c -1.64998,-1.64997 0.43498,-60.85463 2.85123,-80.96406 1.77528,-14.7748 4.11052,-70.64482 6.515,-155.86927 1.83722,-65.11891 3.01959,-91.70169 5.0928,-114.5 1.12535,-12.375 2.38501,-31.275 2.79925,-42 0.99026,-25.63896 0.37707,-98.50637 -0.92573,-110.0069 -0.56335,-4.97302 -1.45127,-14.09338 -1.97316,-20.26747 -0.52188,-6.1741 -1.66409,-18.87563 -2.53823,-28.22563 -1.86454,-19.943515 -2.76546,-57.639574 -1.45965,-61.074112 0.63345,-1.666115 1.40774,-2.195839 2.56213,-1.752859 1.40231,0.538117 1.55371,1.617068 0.99377,7.082356 -0.43474,4.243346 -0.27502,6.912088 0.46722,7.806432 0.73182,0.881783 0.97824,4.620577 0.70184,10.648545 -0.50383,10.988085 0.29136,22.96262 4.20284,63.289638 4.84111,49.91141 5.0906,119.69611 0.60241,168.5 -0.78399,8.525 -1.90874,26.525 -2.49945,40 -0.59071,13.475 -1.52427,31.25 -2.07459,39.5 -0.55031,8.25 -1.2344,33.45 -1.5202,56 -0.2858,22.55 -0.72562,42.125 -0.97738,43.5 -0.25176,1.375 -0.93743,18.25 -1.52372,37.5 -0.58629,19.25 -1.47487,39.275 -1.97462,44.5 -1.7703,18.50872 -3.88071,53.75899 -4.35944,72.81582 -0.38677,15.39654 -0.80885,19.80974 -2.08016,21.75 -1.74021,2.65589 -1.89739,2.75229 -2.88216,1.76751 z M 26.461708,636.93804 c -0.362818,-0.58705 -0.370691,-7.00077 -0.0175,-14.2527 0.353196,-7.25194 0.822275,-34.33534 1.0424,-60.18534 0.355522,-41.75014 1.000984,-67.56471 3.037959,-121.5 0.321964,-8.525 0.996328,-33.275 1.498585,-55 2.242466,-96.99713 6.895404,-211.64566 10.044631,-247.5 0.652083,-7.42404 1.1249,-31.97172 1.102345,-57.231351 -0.02384,-26.693125 0.334663,-44.462596 0.904134,-44.814548 0.518997,-0.320758 1.727104,-0.334459 2.684683,-0.03045 1.621449,0.514778 1.734159,3.524638 1.64072,43.814547 C 48.344487,104.03219 47.776931,130.025 47.138432,138 c -2.213662,27.64917 -5.685535,102.05332 -7.139339,153 -0.588551,20.625 -1.521175,44.43789 -2.072498,52.91754 -0.551322,8.47965 -1.205143,29.40465 -1.452936,46.5 -0.607711,41.92643 -3.346267,122.56824 -4.209635,123.96047 C 31.881342,514.9951 31.690651,538.225 31.840267,566 c 0.310674,57.67415 -0.176968,69.57465 -2.910888,71.0378 -1.205655,0.64524 -2.027775,0.61201 -2.467671,-0.0998 z m 44.173151,-1.01062 C 68.10976,633.94118 67.053416,631 68.865141,631 70.456372,631 75,635.12719 75,636.57258 c 0,1.97476 -1.273789,1.7865 -4.365141,-0.64516 z m 238.058051,-2.70138 c -3.27829,-0.716 -1.43856,-3.67046 2.88405,-4.63154 l 4.07264,-0.9055 -0.0748,-11.31292 c -0.0725,-10.96237 0.008,-11.39572 2.58827,-13.98485 3.43642,-3.44783 5.42624,-2.63639 6.88403,2.80727 0.63356,2.36583 2.23214,6.87544 3.55241,10.02137 1.32027,3.14592 2.40049,7.22967 2.40049,9.07498 0,3.29137 0.11745,3.38218 6.18258,4.78013 3.40042,0.78376 6.35511,1.96409 6.56597,2.62294 0.29147,0.91068 -2.95521,1.05514 -13.53992,0.60245 -7.97646,-0.34114 -15.15882,-0.18634 -16.81598,0.36244 -1.59096,0.52685 -3.70584,0.78031 -4.69974,0.56323 z M 327.47827,624.75 c -0.36107,-1.2375 -2.06229,-5.75554 -3.78048,-10.04008 -3.76973,-9.40033 -4.97474,-8.11314 -4.01811,4.29214 L 320.29643,627 h 3.91917 c 3.59218,0 3.8644,-0.18773 3.26267,-2.25 z M 102,630.16052 c 0,-1.01581 1.17731,-2.37591 2.62923,-3.03745 2.60723,-1.18793 4.77403,-0.65478 2.76887,0.6813 -0.57419,0.3826 -1.33454,1.48313 -1.68966,2.44563 C 104.8526,632.56963 102,632.5008 102,630.16052 Z m -56.102117,-2.44708 c -7.504487,-5.05003 -7.306177,-17.23194 0.371054,-22.7933 6.788678,-4.91769 14.457658,-3.26565 20.081423,4.32592 2.620055,3.53683 2.756802,11.41525 0.264167,15.21949 -3.710655,5.66318 -14.592317,7.36917 -20.716644,3.24789 z m 12.553744,-3.12878 C 62.363211,622.95029 64,620.42254 64,616.01608 64,610.09829 59.537292,605 54.357239,605 c -2.865381,0 -7.291898,3.37381 -8.328698,6.34797 -1.926718,5.52699 -1.294518,9.25044 2.048184,12.06314 3.504201,2.94859 5.567939,3.18203 10.374902,1.17355 z M 117,621.91154 c -1.925,-0.47907 -5.63212,-1.13192 -8.23805,-1.45077 -5.28627,-0.64681 -8.16328,-2.81809 -7.43322,-5.60985 C 101.72809,613.32379 101.23118,613 98.488168,613 93.934516,613 92,612.11034 92,610.01616 c 0,-2.75156 9.18687,-6.24021 17.5,-6.64551 l 7,-0.34127 -6.5,2.1749 -6.5,2.17491 6.63977,0.71711 c 4.00504,0.43255 8.27119,1.64695 10.75108,3.0604 4.15663,2.36914 6.18794,5.55854 4.28804,6.73274 -0.56933,0.35186 -0.95498,1.53296 -0.85701,2.62467 0.20674,2.30382 -1.99296,2.72365 -7.32188,1.39743 z m 1.57983,-7.78238 c -0.89083,-1.44139 -6.51747,-2.16593 -10.93213,-1.40772 l -4.1477,0.71235 3.5,0.65147 c 5.34504,0.99488 12.18359,1.02081 11.57983,0.0439 z M 344.66392,581.75 c -0.3041,-1.2375 -0.64438,-36.08105 -0.75619,-77.4301 -0.11181,-41.34906 -0.57037,-75.77404 -1.01902,-76.49997 -0.58672,-0.94933 -4.26498,-1.40242 -13.10222,-1.61394 -6.75757,-0.16175 -42.21149,-1.18583 -78.78649,-2.27574 -36.575,-1.08992 -87.65,-2.4016 -113.5,-2.91485 -25.85,-0.51325 -52.5125,-1.14907 -59.25,-1.41294 -11.011367,-0.43124 -12.253162,-0.30901 -12.28127,1.20889 -0.0172,0.92876 -0.129698,33.26836 -0.25,71.86578 L 65.5,562.85427 69,560.76222 c 1.925,-1.15063 4.175,-2.64154 5,-3.31313 C 76.339861,555.54431 85.770401,551 87.383423,551 c 0.797451,0 1.59991,-0.37969 1.783244,-0.84375 0.495917,-1.25529 13.839263,-8.15319 26.333333,-13.61313 6.05,-2.64387 13.7,-6.03014 17,-7.52505 3.3,-1.49491 11.625,-5.09606 18.5,-8.00255 6.875,-2.9065 14.94818,-6.40272 17.9404,-7.7694 2.99221,-1.36667 7.94221,-3.33743 11,-4.37946 3.05778,-1.04203 8.84141,-3.32813 12.85251,-5.08021 8.52499,-3.72378 9.51741,-2.65526 -10.29291,-11.08221 -43.78762,-18.62647 -51.06205,-21.51679 -51.95,-20.64111 -1.4171,1.39751 -5.1437,1.13136 -6.4659,-0.46179 -1.23774,-1.49139 -4.70262,-0.80192 -10.23839,2.03731 -5.11063,2.62118 -7.71799,1.04704 -8.76165,-5.28967 l -0.58406,-3.54621 -2.7676,2.56718 c -2.333146,2.16418 -3.177667,2.41126 -5.379926,1.57396 -2.827597,-1.07505 -2.857927,-0.7903 -0.792399,7.43943 0.554598,2.20969 0.324969,2.61666 -1.476418,2.61666 -2.903869,0 -4.109543,-3.56855 -4.806141,-14.2252 -0.50323,-7.69848 -0.364729,-8.8041 1.176995,-9.39572 0.961036,-0.36878 2.039422,-0.25828 2.396414,0.24556 0.356991,0.50384 1.994047,1.50873 3.637901,2.23309 2.703337,1.19122 6.088164,1.5904 20.600934,2.42946 3.27706,0.18947 5.51556,1.04437 7.82673,2.98909 3.84941,3.23907 6.13291,3.4316 8.58351,0.72372 2.1812,-2.4102 3.64561,-2.49318 7.63071,-0.43241 1.91301,0.98926 2.8286,2.09606 2.48173,3 -0.94323,2.45801 2.06346,1.57599 3.8328,-1.12436 1.37874,-2.10423 2.32835,-2.50248 5.36501,-2.25 3.29564,0.274 3.68554,0.60051 3.65033,3.05677 -0.0356,2.48361 0.30344,2.75308 3.5,2.7818 3.31462,0.0298 3.41724,0.12425 1.61569,1.48728 -2.78188,2.10474 -8.51721,2.94169 -11.76298,1.71655 -1.54255,-0.58225 -3.00076,-0.74132 -3.24045,-0.35349 -0.23969,0.38783 13.07368,6.45664 29.58528,13.48624 l 30.02107,12.78108 17.66041,-6.51655 C 233.55282,488.04881 252.75,480.87628 266.5,475.69396 299.11965,463.39974 303.31842,462 307.57731,462 c 2.84043,0 3.50154,0.35203 3.23736,1.7238 -0.21743,1.12905 -1.70907,1.96979 -4.32332,2.43677 -4.32128,0.7719 -18.51774,5.92127 -44.49135,16.13799 -9.075,3.56966 -19.2,7.39847 -22.5,8.50847 -3.3,1.11001 -9.15,3.22184 -13,4.69295 -3.85,1.47111 -8.45647,3.15909 -10.23661,3.75106 -2.54037,0.84478 -2.99804,1.36376 -2.12755,2.41263 0.60998,0.73498 1.52194,1.33633 2.02659,1.33633 0.50465,0 15.63705,7.37054 33.62756,16.37899 47.33948,23.70445 61.87519,31.48857 64.76674,34.68369 1.8206,2.01174 1.81175,2.02791 -0.60642,1.10853 -3.96575,-1.50778 -21.7434,-10.0854 -47.45031,-22.89452 -13.2,-6.57724 -32.15788,-15.86186 -42.12863,-20.6325 l -18.12862,-8.67388 -9.87138,4.07735 c -5.42925,2.24254 -14.20804,5.82536 -19.5084,7.96183 C 149.84794,525.89868 106.18649,545.53037 92.5,552.94198 73.288465,563.34555 55.803091,572.19255 52.824616,573.01637 L 49.5,573.93593 l 2.66393,-2.21797 c 1.465162,-1.21988 4.505024,-3.54356 6.755251,-5.16374 2.539023,-1.82811 3.927373,-3.53546 3.659211,-4.5 C 62.340732,561.1994 61.877499,538.225 61.548984,511 61.22047,483.775 60.672413,452.725 60.331082,442 59.98975,431.275 59.663121,420.925 59.605239,419 L 59.5,415.5 H 67 c 11.526814,0 71.09302,1.40826 126,2.97888 27.225,0.77877 60.75,1.70805 74.5,2.06507 13.75,0.35701 35.35,0.9806 48,1.38576 22.81024,0.73058 26.5,0.59439 26.5,-0.97812 0,-0.97753 4.68779,-0.59715 5.7516,0.46671 0.85245,0.85248 0.4619,151.82341 -0.40959,158.3317 -0.622,4.64511 -1.81008,5.53236 -2.67809,2 z M 111.69299,466.26903 c -0.25354,-0.97297 -0.47766,-0.41903 -0.49804,1.23097 -0.0204,1.65 0.18706,2.44606 0.46099,1.76903 0.27392,-0.67703 0.29059,-2.02703 0.037,-3 z m 47.73975,-2.93587 c -0.31257,-1.00824 -1.43781,-3.7577 -2.50053,-6.10991 -2.58748,-5.72712 -2.45311,-8.02879 0.54857,-9.39645 1.36443,-0.62167 2.71443,-1.96202 3,-2.97856 0.28557,-1.01653 0.75839,-2.69735 1.05072,-3.73516 0.43429,-1.54184 -0.10024,-1.96067 -2.9229,-2.2902 -3.10715,-0.36274 -3.35448,-0.21657 -2.46043,1.45398 2.16295,4.0415 -5.25698,9.53758 -8.85018,6.55549 -1.11619,-0.92635 -1.39618,-2.63476 -1.07217,-6.54191 0.24119,-2.90847 0.66267,-5.51226 0.93661,-5.7862 0.47139,-0.47139 5.00026,-0.5936 14.5935,-0.39379 3.633,0.0757 4.34483,0.44283 4.86328,2.50851 0.33404,1.33092 0.0863,3.67772 -0.55047,5.21509 -0.6368,1.53738 -1.71523,7.23362 -2.3965,12.65833 -1.18517,9.43711 -2.92794,13.07136 -4.2395,8.84078 z M 152,440.94098 C 152,440.42344 151.55,440 151,440 c -0.55,0 -1,0.70156 -1,1.55902 0,0.85746 0.45,1.2809 1,0.94098 0.55,-0.33992 1,-1.04148 1,-1.55902 z M 305.2,455.8 c -0.66,-0.66 -1.2,-2.235 -1.2,-3.5 0,-1.265 -0.45,-2.3 -1,-2.3 -0.55,0 -1.9,-0.9 -3,-2 -2.77995,-2.77995 -2.49917,-4 0.92054,-4 2.49413,0 3.01605,-0.47452 3.57466,-3.25 1.09081,-5.41973 1.59772,-6.75 2.57219,-6.75 0.51293,0 0.93261,0.66088 0.93261,1.46862 0,0.80773 0.57962,1.24619 1.28803,0.97435 0.8934,-0.34283 1.68849,1.42851 2.59505,5.78138 0.71885,3.45161 1.74623,7.72935 2.28306,9.5061 0.53683,1.77675 0.69251,3.68925 0.34594,4.25 -0.99129,1.60395 -3.23105,1.19252 -3.97651,-0.73045 -0.64611,-1.66667 -0.73978,-1.66667 -1.96723,0 -1.5282,2.07503 -1.79908,2.11926 -3.36834,0.55 z m 3.49299,-14.53097 c -0.25354,-0.97297 -0.47766,-0.41903 -0.49804,1.23097 -0.0204,1.65 0.18706,2.44606 0.46099,1.76903 0.27392,-0.67703 0.29059,-2.02703 0.0371,-3 z m -27.02632,14.0643 C 281.3,454.96667 281,453.61667 281,452.33333 281,451.05 280.59814,450 280.10699,450 c -1.46013,0 -2.22459,-3.15337 -1.09455,-4.51498 0.61252,-0.73805 0.77412,-2.96764 0.38944,-5.37326 -0.87368,-5.46371 0.99751,-5.41358 2.82729,0.0757 1.76539,5.29618 4.34832,6.64886 3.20984,1.68099 -1.15868,-5.05597 -1.07426,-7.11905 0.31099,-7.60061 0.81273,-0.28254 1.25,0.58096 1.25,2.46845 0,1.84345 0.90457,3.68951 2.47837,5.05791 1.44827,1.25926 2.23976,2.77672 1.90429,3.65094 -0.31574,0.82281 0.36899,2.69494 1.52163,4.16028 2.21979,2.822 2.8042,6.39454 1.04605,6.39454 -0.57731,0 -2.44567,-0.72191 -4.15191,-1.60424 -2.84715,-1.47231 -3.17608,-1.47231 -4.00003,0 -0.92458,1.65213 -2.95617,2.11314 -4.13173,0.93757 z M 290,450 c 0,-0.55 -0.47656,-1 -1.05902,-1 -0.58246,0 -0.7809,0.45 -0.44098,1 0.33992,0.55 0.81648,1 1.05902,1 0.24254,0 0.44098,-0.45 0.44098,-1 z m 35.18823,2.03078 c -0.39623,-0.29193 -1.94905,-2.02588 -3.45073,-3.85324 -2.18497,-2.65884 -2.52427,-3.70745 -1.69872,-5.25 0.56737,-1.06014 1.66086,-1.92754 2.42998,-1.92754 0.77015,0 1.54055,-1.20082 1.71482,-2.67288 0.44653,-3.77197 2.4335,-3.99171 3.16191,-0.34968 0.40581,2.02908 1.45824,3.37764 3.13281,4.01431 1.38694,0.52731 2.54763,1.30739 2.57932,1.7335 0.0317,0.42611 0.23115,2.41742 0.44325,4.42513 0.38074,3.60401 0.33498,3.6552 -3.6033,4.03078 -2.19392,0.20922 -4.31312,0.14155 -4.70934,-0.15038 z m -208.84755,-1.94587 c -1.34273,-1.56819 -1.98674,-1.70404 -3.55535,-0.75 -1.59154,0.968 -2.21843,0.79595 -3.70584,-1.0171 l -1.79025,-2.18218 -1.9981,2.67623 c -1.68413,2.25572 -2.24139,2.47432 -3.5465,1.39117 -0.85163,-0.70679 -1.826138,-2.39161 -2.165579,-3.74405 C 98.846271,443.53931 97,443.16849 97,445.94098 c 0,2.7467 -1.820652,3.5313 -3.876667,1.67063 -1.291328,-1.16863 -2.044264,-1.29068 -2.869769,-0.46517 -0.615521,0.61552 -1.824377,0.8485 -2.686347,0.51773 C 85.14936,446.73635 85.453222,438.54678 88,436 c 2.689752,-2.68975 3.427178,-2.54579 6.402861,1.25 2.251033,2.87142 2.782079,3.10439 4.558909,2 3.6112,-2.24455 5.06039,-1.61078 4.35713,1.90549 -0.45115,2.25575 -0.30145,2.95176 0.525,2.44098 C 104.47976,443.20349 105,442.26008 105,441.5 c 0,-3.38887 4.42663,-2.71832 5.4078,0.81917 l 0.60488,2.18083 1.95167,-2.5 c 1.58604,-2.03165 2.28336,-2.29478 3.72218,-1.40456 0.97379,0.60249 2.08353,2.40249 2.46611,4 0.38257,1.59751 1.00722,3.91706 1.3881,5.15456 0.88879,2.88766 -1.82879,3.10436 -4.20006,0.33491 z m 8.6307,1.2684 c -3.07255,-0.83353 -3.76713,-3.56298 -2.51257,-9.87355 l 1.18879,-5.97976 3.9262,-0.26091 c 5.04164,-0.33504 6.96951,0.82929 5.59137,3.37689 -0.56055,1.03621 -1.26705,2.68233 -1.57001,3.65804 -0.30295,0.97572 -1.5733,2.18469 -2.82299,2.68662 -1.2497,0.50192 -1.68009,0.94111 -0.95643,0.97597 0.72366,0.0349 2.24339,-0.43307 3.37718,-1.03986 2.51797,-1.34758 4.16709,0.56206 2.75841,3.19418 -0.69194,1.29291 -6.78919,4.43924 -7.35055,3.79307 -0.0554,-0.0638 -0.78866,-0.30261 -1.6294,-0.53069 z M 73.340249,449.23145 C 72.240945,448.53198 70.208346,432 71.221651,432 c 2.287088,0 6.707945,2.52716 7.491082,4.28224 l 0.971277,2.17671 1.193179,-2.22948 C 81.533437,435.00326 82.729535,434 83.535184,434 c 1.645306,0 2.011391,3.54416 0.464816,4.5 -0.55,0.33992 -1,2.36492 -1,4.5 0,6.39685 -3.753458,6.49839 -6.362851,0.17214 L 75.122502,439.5 l 0.57804,5.25 c 0.560079,5.08688 0.06589,6.02518 -2.360293,4.48145 z M 315,395.94137 c -6.325,-0.42307 -26.125,-1.27966 -44,-1.90353 -17.875,-0.62386 -44.2,-1.54306 -58.5,-2.04265 -14.3,-0.49959 -50.75,-1.39744 -81,-1.99523 -65.876566,-1.30182 -71.5,-1.59558 -71.5,-3.73511 0,-1.39323 4.305737,-1.48524 41.25,-0.88146 22.6875,0.37078 53.625,1.09975 68.75,1.61994 36.67282,1.26128 88.45946,2.83662 115.32193,3.50808 20.67146,0.51671 41.58364,1.75815 51.63212,3.06511 4.27892,0.55654 4.61691,0.42481 5.75392,-2.24262 0.87808,-2.05999 1.36327,-19.62885 1.77666,-64.3339 0.58017,-62.74141 1.1004,-79.6255 2.47969,-80.47795 0.42783,-0.26441 1.03488,1.42245 1.34899,3.7486 0.98631,7.30403 -0.49016,144.11334 -1.57004,145.47935 -1.10849,1.40222 -12.60465,1.47152 -31.74327,0.19137 z M 63.717792,376.70696 c -0.340637,-0.88768 -0.714642,-35.02821 -0.831123,-75.86783 l -0.211782,-74.25386 2.628545,-1.96249 c 2.579708,-1.92603 3.534938,-1.94041 51.412558,-0.77393 26.8312,0.65371 68.35901,1.64444 92.28401,2.20161 23.925,0.55718 52.725,1.45069 64,1.98559 11.275,0.53489 26.125,1.20818 33,1.4962 17.02389,0.7132 46.41483,2.61886 46.87354,3.0392 0.20544,0.18826 0.10707,1.0367 -0.21862,1.88542 -0.74903,1.95195 -4.47409,1.96107 -37.15492,0.091 -57.38704,-3.28387 -120.28655,-5.28059 -196.25,-6.22986 L 68,227.67753 67.838386,236.58876 C 67.749499,241.48994 67.618065,247.525 67.54631,250 c -0.07175,2.475 -0.511318,31.5 -0.976807,64.5 -0.794023,56.29077 -1.255879,66.36563 -2.851711,62.20696 z M 237.29887,350.82885 c -14.18938,-7.24414 -33.71223,-17.19434 -43.38412,-22.11156 l -17.58525,-8.94041 -18.41475,9.22979 c -20.19541,10.12228 -23.27227,11.75938 -42.49461,22.61001 C 108.22622,355.67751 102.11372,359 101.83681,359 c -0.27691,0 -0.50348,-0.65521 -0.50348,-1.45601 0,-0.80081 0.375,-1.22425 0.83334,-0.94098 0.45833,0.28326 0.83333,0.047 0.83333,-0.52494 0,-0.57198 1.13075,-1.32377 2.51277,-1.67063 1.38203,-0.34687 2.8524,-1.23754 3.26749,-1.97927 0.4151,-0.74174 2.62329,-2.37901 4.90709,-3.63839 2.2838,-1.25938 7.45093,-4.29369 11.48251,-6.74291 C 138.06468,334.21315 167.42371,319 169.64677,319 c 3.14807,0 0.90362,-1.88933 -5.39677,-4.54287 -23.09168,-9.72555 -63.15637,-30.51382 -66.961422,-34.74412 -2.845021,-3.16297 -3.545634,-5.67714 -1.771719,-6.35785 C 97.672503,272.52796 97.335477,270 95.069551,270 c -1.240599,0 -2.044641,0.80404 -2.25,2.25 -0.318977,2.24596 -1.638545,2.59139 -6.304224,1.65031 -1.758468,-0.35468 -2.022021,0.22656 -2.312361,5.09969 -0.348556,5.85022 -1.231119,7.58691 -3.427295,6.74416 -1.0991,-0.42177 -1.200555,-2.49889 -0.53089,-10.86911 0.846703,-10.58306 2.040391,-13.8627 3.867188,-10.62505 0.543076,0.9625 1.775051,1.75 2.737721,1.75 0.962671,0 2.23677,0.48646 2.831332,1.08102 0.774696,0.7747 2.177363,0.53067 4.95,-0.86119 C 99.713661,263.66837 101,264.27395 101,269.21819 v 4.05153 l 2.07258,-2.63486 C 105.09513,268.0636 110,266.90606 110,269 c 0,0.55 0.57479,1 1.27732,1 1.88184,0 6.85982,6.04643 6.50635,7.90284 -0.4686,2.46112 -4.45989,2.57066 -5.75119,0.15784 -1.34931,-2.5212 -2.81155,-2.57066 -5.89487,-0.19937 l -2.36238,1.81684 7.86238,4.54814 c 12.75925,7.38081 22.82757,12.42661 40.86239,20.47844 9.35,4.1744 18.01776,8.25374 19.26168,9.06521 2.75836,1.79939 6.20474,1.21748 13.40817,-2.26394 16.92162,-8.17823 100.75362,-42.79621 115.08015,-47.52174 7.49334,-2.47164 9.75,-3.62935 9.75,-5.00194 0,-1.43878 -1.16632,-1.92131 -6,-2.48232 -4.98597,-0.57868 -6,-1.01779 -6,-2.59819 0,-1.63856 0.76132,-1.90181 5.5,-1.90181 5.14943,0 5.5,-0.15404 5.5,-2.41667 0,-1.32916 -0.52967,-2.59322 -1.17705,-2.80901 C 306.27273,246.25758 307.70273,244 309.58026,244 c 0.80422,0 3.96556,2.42467 7.02519,5.38816 7.54374,7.30669 7.24015,8.66075 -3.13633,13.98846 -4.41698,2.26786 -12.74198,5.86261 -18.5,7.98834 -29.21766,10.78649 -84.1083,33.12084 -103.80825,42.23835 -4.03653,1.86818 -7.74903,3.39669 -8.25,3.39669 -2.15411,0 -0.59761,1.64962 3.33991,3.53975 7.79977,3.74411 33.28634,17.19478 38.29979,20.2129 2.72219,1.63877 8.77443,4.9834 13.44943,7.4325 11.62535,6.09019 27,14.84723 27,15.37855 0,1.20941 -3.89817,-0.58267 -27.70113,-12.73485 z M 108.5,272 c 0.33992,-0.55 -0.0835,-1 -0.94098,-1 -0.85746,0 -1.55902,0.45 -1.55902,1 0,0.55 0.42344,1 0.94098,1 0.51754,0 1.2191,-0.45 1.55902,-1 z m 209.1707,-17.66264 c -0.2957,-0.2957 -1.06562,-0.21132 -1.71093,0.1875 -0.86994,0.53766 -0.82251,0.94308 0.18347,1.56809 1.33344,0.82847 2.62596,-0.65708 1.52746,-1.75559 z m -195.90723,23.49198 c -2.87803,-2.20318 -3.32947,-7.26334 -0.86764,-9.72517 3.89607,-3.89607 7.75298,-1.94919 7.22265,3.64583 C 128.05332,272.4375 127.1,273 126,273 c -1.1,0 -2,0.45 -2,1 0,1.29924 1.93602,1.26687 5.85078,-0.0978 2.20703,-0.76937 3.1538,-1.74171 3.16453,-3.25 0.0216,-3.04036 1.10684,-4.39374 4.1319,-5.15298 3.31894,-0.833 6.3467,2.70941 4.79459,5.60956 -0.8847,1.65308 -0.55529,1.75124 4.04756,1.2061 2.82608,-0.3347 5.01064,-0.19072 5.01064,0.33025 0,1.91857 -6.2788,4.52043 -11.7825,4.88253 -3.14462,0.20689 -7.9675,0.65852 -10.7175,1.00361 -3.46167,0.4344 -5.53427,0.21845 -6.73653,-0.7019 z m 37.38036,-12.15604 c -0.60558,-0.72968 -1.79602,-2.98996 -2.64541,-5.02283 -1.77501,-4.24821 -0.98362,-6.63123 3.08826,-9.29922 2.04364,-1.33905 2.45968,-2.32366 2.21482,-5.24169 -0.20043,-2.38846 -0.85549,-3.69781 -1.95407,-3.9058 -1.30832,-0.24771 -1.63082,0.45423 -1.54818,3.36971 0.0809,2.85506 -0.51528,4.2156 -2.6532,6.05456 -3.29782,2.83667 -4.71293,2.94815 -7.61304,0.59978 -2.8392,-2.29904 -3.36943,-8.48358 -0.77306,-9.01683 1.29061,-0.26507 1.92606,0.46906 2.38281,2.75284 0.65439,3.27191 2.00465,3.54226 3.76371,0.75356 0.81149,-1.28648 0.60136,-1.99117 -0.92698,-3.10872 -2.22728,-1.62862 -1.38919,-3.06972 1.85349,-3.18711 1.19186,-0.0431 3.57385,-0.40417 5.29331,-0.80228 3.90175,-0.90338 6.37371,1.23907 6.37371,5.52411 v 3.00053 l 5.5,-0.68718 c 7.10994,-0.88833 7.16677,0.63449 0.13024,3.49041 l -5.36975,2.17942 -0.62898,5.35164 c -0.34594,2.9434 -0.9027,6.06492 -1.23723,6.93672 -0.73987,1.92804 -3.74214,2.07579 -5.25045,0.25838 z m 2.84086,-7.4233 c 0.008,-1.2375 -0.40813,-2.25 -0.92567,-2.25 -1.60926,0 -2.27579,2.00017 -1.58446,4.75468 0.52127,2.07688 0.85851,2.33175 1.57884,1.19317 0.50378,-0.79632 0.92287,-2.46035 0.93129,-3.69785 z m 121.19726,2.25 c -0.78776,-1.72895 -1.93701,-2.5 -3.72625,-2.5 -3.37261,0 -6.4557,-1.68832 -6.4557,-3.53518 0,-1.51902 0.92974,-1.8134 4.75,-1.50395 2.29045,0.18554 3.06493,-1.33918 1.25,-2.46087 -1.26951,-0.7846 -1.31937,-6.5 -0.0567,-6.5 0.51881,0 1.64381,1.00013 2.5,2.22251 1.2277,1.75278 1.5567,1.87093 1.5567,0.55901 0,-0.91492 0.38499,-1.90143 0.85554,-2.19224 0.47055,-0.29082 0.64466,0.57442 0.38691,1.92274 -0.37071,1.93926 0.0774,2.65907 2.14446,3.44498 1.86513,0.70912 2.61309,1.71618 2.61309,3.51825 0,1.8032 0.53659,2.52475 1.87756,2.52475 2.43924,0 4.51412,2.53692 3.73514,4.5669 -0.45737,1.1919 -1.36575,1.42661 -3.61187,0.93328 C 289.11264,261.08547 288,261.24133 288,261.92054 c 0,2.12287 -3.7007,1.03176 -4.81805,-1.42054 z M 333.5,259.00135 c -1.1,-0.39852 -2.57926,-0.50728 -3.28725,-0.24168 C 327.99819,259.59044 325,255.93491 325,252.40403 c 0,-1.8073 -0.45,-3.56411 -1,-3.90403 -1.69104,-1.04512 -1.10908,-2.5 1,-2.5 1.1,0 2,-0.45 2,-1 0,-1.80278 2.17519,-1.04609 2.6938,0.9371 0.48333,1.84823 5.58168,4.45409 6.64129,3.39448 0.96134,-0.96134 3.81785,4.56164 3.49204,6.75176 -0.37929,2.54962 -3.4434,3.96275 -6.32713,2.91801 z M 336.5,255 c 1.14819,-1.85782 -0.49943,-3.0173 -2.50647,-1.76389 -1.38523,0.86509 -1.57955,1.40755 -0.70364,1.96421 1.63767,1.04078 2.47538,0.98851 3.21011,-0.20032 z m -211.33846,2.25 c -2.18829,-1.85896 -4.10423,-9.25 -2.39783,-9.25 0.54246,0 1.26063,-1.37169 1.59593,-3.04819 0.58237,-2.91188 0.77803,-3.01781 4.375,-2.36867 6.4479,1.16365 6.63885,1.78295 2.13228,6.91565 -1.7232,1.96261 -2.8407,3.86077 -2.48333,4.21813 0.35736,0.35736 1.18224,0.11725 1.83308,-0.53359 1.81798,-1.81798 2.78333,-1.417 2.78333,1.15615 0,1.53656 -0.87417,2.73779 -2.54705,3.5 -3.18178,1.44972 -2.84705,1.48701 -5.29141,-0.58948 z M 78.6875,257.35417 C 78.309375,256.97604 78,252.69167 78,247.83333 78,240.64815 78.279874,239 79.5,239 c 0.825,0 1.5,0.49774 1.5,1.10608 0,0.60834 1.125,1.991 2.5,3.07258 1.375,1.08158 2.5,2.58228 2.5,3.3349 0,3.29958 2.108073,2.1183 5.076576,-2.84471 3.924975,-6.56212 7.033586,-7.11791 10.556404,-1.88739 1.22867,1.82427 2.49318,2.82342 2.84758,2.25 1.10405,-1.7864 3.25925,-1.12219 3.95387,1.21854 l 0.66769,2.25 0.94418,-2.32424 c 1.30773,-3.21919 4.28168,-2.43042 5.0389,1.33645 0.60416,3.00541 0.89471,2.7615 2.37695,-1.99535 0.26714,-0.85733 1.11104,-1.23414 2,-0.89301 1.16311,0.44633 1.53785,2.15654 1.53785,7.01832 0,6.04549 -0.11516,6.36657 -1.93426,5.39301 C 118.0019,255.46583 116.00722,255 114.63313,255 c -1.6261,0 -2.72158,-0.70333 -3.13774,-2.01452 -0.84013,-2.64701 -2.08825,-1.7712 -2.84123,1.99371 -0.5896,2.94802 -2.88962,4.06688 -4.15416,2.02081 -0.33992,-0.55 -1.68992,-1 -3,-1 -2.612727,0 -4.124554,-1.49597 -2.516312,-2.48992 C 100.68878,252.45628 100.11807,251 98,251 c -1.299723,0 -2,0.66667 -2,1.90401 0,1.60345 -0.76072,1.9099 -4.819045,1.94134 -4.366109,0.0338 -5.000533,-0.26262 -6.75,-3.15401 L 82.5,248.5 82,252.92235 c -0.473672,4.18948 -1.791588,5.95273 -3.3125,4.43182 z M 99,245.55902 c 0,-0.79254 -0.45,-1.7191 -1,-2.05902 -0.55,-0.33992 -1,0.30852 -1,1.44098 0,1.13246 0.45,2.05902 1,2.05902 0.55,0 1,-0.64844 1,-1.44098 z m 211,-41.61993 c -25.96072,-1.34715 -81.43258,-2.81365 -133,-3.5161 -86.71555,-1.18124 -108.295019,-1.79704 -108.728322,-3.10273 -0.718707,-2.16571 7.757868,-2.47217 43.228322,-1.56284 19.25,0.49349 56.6,0.98504 83,1.09233 45.63048,0.18544 75.17345,0.93853 123.5,3.14819 11.825,0.54068 23.975,0.98632 27,0.99031 l 5.5,0.007 0.19616,-75.42393 0.19615,-75.423935 -6.19615,-0.545178 C 318.24698,47.275303 260.88549,45.973285 172.35092,45.690503 L 75.201832,45.380207 74.553297,63.940103 C 74.196603,74.148047 73.195481,96.675 72.32858,114 c -0.8669,17.325 -1.675606,41.175 -1.797124,53 -0.266758,25.95851 -0.19122,25 -1.970183,25 -2.19779,0 -2.925366,-7.58592 -2.19901,-22.92753 C 66.71569,161.60761 67.907625,134.125 69.011008,108 70.11439,81.875 71.220342,56.45 71.468677,51.5 l 0.451519,-9 H 180.2101 c 74.57699,0 115.45028,0.394095 131.2899,1.26588 12.65,0.696234 27.10929,1.300492 32.13177,1.342795 8.34669,0.0703 9.21632,0.262504 10.11534,2.235626 0.83299,1.82823 0.80646,106.979709 -0.0371,147.155699 l -0.20998,10 -14.5,0.0958 c -7.975,0.0527 -21.025,-0.24284 -29,-0.65667 z m -3.74898,-15.65703 c -0.88483,-0.31741 -1.08166,-1.95455 -0.6751,-5.61505 0.55688,-5.01402 0.4736,-5.23363 -2.8129,-7.41701 -5.16067,-3.42848 -6.62646,-2.68289 -2.37726,1.20923 4.75369,4.3542 4.45628,6.56808 -1.14305,8.50869 -3.83553,1.32931 -4.39292,1.31044 -5.90318,-0.19982 -1.40103,-1.40103 -1.4557,-1.92319 -0.3419,-3.26525 0.95379,-1.14924 1.52764,-1.27098 2.04501,-0.43385 0.48821,0.78993 1.27034,0.85523 2.43524,0.20332 1.48786,-0.83265 1.23775,-1.24255 -1.88092,-3.08261 C 292.23834,176.20807 290.4728,172 293,172 c 3.01339,0 -0.16834,-2.4651 -9.75,-7.55399 -32.68957,-17.36166 -42.56649,-23.01596 -71.40462,-40.87743 -8.97828,-5.56087 -7.00673,-6.03744 -23.84538,5.764 -29.33723,20.56112 -38.12871,27.0394 -39.06271,28.78459 -0.55421,1.03555 -1.69077,1.88283 -2.52569,1.88283 -0.83492,0 -4.70857,2.08273 -8.60812,4.62828 -8.24947,5.38511 -18.10949,9.63505 -21.16788,9.12394 -2.3836,-0.39835 -3.13387,0.14016 12.15327,-8.72294 L 136.5,160.55856 132,159.71987 c -2.475,-0.46128 -6.3,-0.93751 -8.5,-1.0583 -4.8942,-0.2687 -6.5,-1.18786 -6.5,-3.72059 C 117,153.78084 116.3161,153 115.3,153 c -1.32222,0 -1.43333,0.26667 -0.5,1.2 2.05662,2.05662 1.32344,4.68481 -1.75034,6.27432 -3.576,1.84922 -5.49339,1.9153 -8.3654,0.28827 -1.20134,-0.68057 -4.37239,-1.24307 -7.046778,-1.25 -6.912385,-0.0179 -7.871711,-1.79545 -5.941871,-11.00981 1.640829,-7.83442 1.713126,-7.98623 3.327838,-6.98829 0.80675,0.4986 0.947391,2.79709 0.465039,7.60014 C 94.841789,155.55419 94.925911,156 96.787725,156 c 3.441185,0 6.296345,-3.20789 6.906935,-7.76022 0.59018,-4.40006 2.11965,-5.37337 4.30534,-2.73978 1.43572,1.72993 9.52551,2.07676 10.53001,0.45144 1.11495,-1.80402 3.67489,1.19635 3.18907,3.73774 -0.59762,3.12629 1.08075,2.95652 1.87028,-0.18918 0.71242,-2.83851 1.63851,-3.13529 3.34968,-1.07345 0.92739,1.11744 1.83707,1.19886 4.19821,0.37576 2.16699,-0.75542 3.33029,-0.73477 4.13851,0.0735 1.73971,1.73971 2.44263,1.37084 3.5744,-1.87576 2.11359,-6.06306 5.98802,-2.28143 4.69951,4.58694 -0.75499,4.02441 1.0334,4.63623 3.99292,1.366 1.01891,-1.12588 3.56365,-3.00874 5.65499,-4.18414 2.09133,-1.17539 3.80242,-2.45536 3.80242,-2.84436 0,-0.389 1.74147,-1.40408 3.86993,-2.25572 2.12847,-0.85164 4.12595,-2.2156 4.43885,-3.03102 0.31291,-0.81541 1.51426,-1.62998 2.66968,-1.81014 1.15542,-0.18016 2.04994,-0.71362 1.98782,-1.18547 -0.14024,-1.06531 5.72842,-5.10605 8.83877,-6.08576 2.88303,-0.9081 2.29716,-3.17116 -0.70763,-2.73337 -1.21917,0.17763 -2.83675,-0.19166 -3.59462,-0.82063 -0.88367,-0.73339 -3.01777,-0.89769 -5.94946,-0.45806 -3.02445,0.45355 -5.06151,0.27887 -6.01947,-0.51616 -1.1425,-0.94819 -1.92587,-0.86695 -3.71342,0.3851 -2.88795,2.0228 -4.70072,2.00512 -6.99171,-0.0682 -1.70296,-1.54116 -1.82874,-1.539 -1.82874,0.0314 0,0.9275 -0.68073,1.94759 -1.51273,2.26686 C 146.3678,130.45658 144,128.20569 144,125.37756 c 0,-3.58345 -1.82731,-2.85437 -2.18664,0.87244 -0.27709,2.87378 -0.66064,3.25044 -3.31336,3.25383 -1.65,0.002 -3.52189,0.34106 -4.15976,0.75324 C 132.73378,131.29514 130,130.08974 130,128.34335 c 0,-0.79347 0.66315,-2.72506 1.47366,-4.29242 1.23163,-2.3817 1.25245,-3.03335 0.12675,-3.9676 -2.26668,-1.88118 -4.57162,-0.11554 -5.23084,4.00694 -0.65407,4.09035 -2.58257,6.51416 -4.32577,5.4368 -0.57409,-0.35481 -1.0438,-1.37061 -1.0438,-2.25735 0,-0.88673 -0.71087,-2.39774 -1.5797,-3.35779 -1.24285,-1.37333 -1.34197,-2.18978 -0.46482,-3.82874 0.61319,-1.14576 1.54905,-2.08319 2.0797,-2.08319 0.53065,0 0.96482,-1.125 0.96482,-2.5 0,-2.44372 2.26097,-3.50479 3.43171,-1.61049 0.9704,1.57014 7.95228,1.86936 9.41801,0.40363 1.56213,-1.56214 4.15028,-0.09 4.15028,2.36069 0,2.23284 2.24855,2.52258 6.88409,0.88706 5.21178,-1.83882 7.66844,-0.85468 8.61408,3.45079 0.36341,1.65458 1.04284,3.00832 1.50986,3.00832 1.29711,0 3.99197,-2.98141 3.99197,-4.41644 0,-2.29536 3.70465,-4.74704 6.66157,-4.40852 3.8079,0.43595 4.02703,4.66456 0.33843,6.53069 -1.375,0.69563 -1.825,1.26528 -1,1.26587 3.07289,0.002 6,-1.24792 6,-2.56255 0,-0.74673 1.35,-2.0558 3,-2.90905 1.65,-0.85325 3,-1.95948 3,-2.45829 0,-2.00363 9.10627,-3.4157 11.36698,-1.76263 1.67838,1.22726 1.32879,1.64976 -4.26945,5.15977 -5.63631,3.53388 -8.20001,6.30518 -4.53007,4.89689 0.8621,-0.33082 2.56638,-0.0669 3.78728,0.58652 1.91921,1.02713 3.02731,0.70177 8.18254,-2.40255 3.2795,-1.97481 5.96272,-4.12927 5.96272,-4.78769 0,-0.65843 -6.525,-4.90425 -14.5,-9.43516 C 170.57479,99.66947 169.18035,99.098956 165.18757,99.600054 160.23038,100.22219 158,98.911904 158,95.377555 158,92.35759 156.24492,92.254918 155.81955,95.25 c -0.48829,3.438148 -3.07945,2.685956 -4.08255,-1.185133 -0.67422,-2.601923 -1.1104,-3.087034 -1.79825,-2 -0.49947,0.789323 -0.91502,2.236756 -0.92344,3.216518 -0.0189,2.202776 -2.75033,3.383597 -4.28253,1.851398 -1.72861,-1.728614 -3.36957,-1.373899 -6.328,1.36788 -4.12529,3.823187 -5.55709,1.919737 -5.19544,-6.90685 C 133.4351,86.084049 133.83495,84.5 135,84.5 c 1.04355,0 1.59204,1.261836 1.80245,4.146717 0.28903,3.962669 0.46657,4.167195 4,4.608079 2.03365,0.253749 3.74619,0.412726 3.80563,0.353283 0.0594,-0.05944 -0.0927,-1.713879 -0.33821,-3.676524 -0.42227,-3.376345 -0.81733,-3.712801 -7.33876,-6.25 -7.75086,-3.015513 -10.46142,-3.441729 -7.15362,-1.124851 C 134.43448,85.818583 131.34002,93 125.27749,93 123.21117,93 123,93.463597 123,98 c 0,8.30911 -3.39641,5.95423 -4.32686,-3 -0.31433,-3.025 -0.8651,-6.702296 -1.22395,-8.171769 -0.55498,-2.272702 -0.19658,-2.9075 2.39953,-4.25 1.67858,-0.868027 4.08681,-1.606755 5.35162,-1.641617 l 2.29966,-0.06339 -2.25,-0.904389 c -2.61696,-1.051889 -2.93441,-2.768973 -0.67241,-3.636988 1.71816,-0.659317 20.37805,4.904241 24.42241,7.281684 1.375,0.808284 4.0052,2.229609 5.8449,3.158501 3.15098,1.590984 3.41825,1.588574 4.61024,-0.04157 1.6373,-2.239141 8.78967,-2.342799 10.97343,-0.159036 1.87867,1.878673 2.0772,6.057821 0.32143,6.76629 -0.95713,0.386212 -0.94173,0.522883 0.0657,0.583334 2.28257,0.136959 5.18294,-1.923296 5.21753,-3.706237 0.0585,-3.017042 3.84242,-6.460632 7.91799,-7.205903 3.80539,-0.695865 3.9045,-0.640701 3.82575,2.129216 -0.0603,2.12111 -0.93151,3.345489 -3.42893,4.819005 C 182.50664,91.043612 181,92.677826 181,93.588719 c 0,1.312325 0.29294,1.413053 1.41097,0.485167 0.97374,-0.808129 1.61351,-0.843299 2.06455,-0.113496 1.03109,1.668346 -0.46421,5.099875 -2.56015,5.875214 -1.50924,0.558306 0.52413,2.120206 9.71491,7.462336 C 202.91163,113.85521 207,114.9835 207,111.5396 c 0,-0.72909 0.69837,-1.59361 1.55194,-1.92116 0.96743,-0.37124 1.29861,-0.18564 0.87932,0.49278 -0.46289,0.74897 -0.0114,0.73443 1.44806,-0.0466 C 212.0457,109.44036 213,108.69391 213,108.4058 c 0,-0.28811 -0.51953,-0.20275 -1.15451,0.18969 -0.6991,0.43207 -0.8837,0.27535 -0.46797,-0.39731 0.37759,-0.61096 1.42094,-0.82901 2.31855,-0.48457 1.01068,0.38784 1.3833,0.22384 0.97874,-0.43077 -0.37152,-0.60112 0.0969,-0.9979 1.08595,-0.91994 0.96193,0.0758 1.61644,-0.45478 1.46446,-1.18723 -0.15112,-0.72838 0.17708,-1.04507 0.72934,-0.70376 1.37205,0.84798 5.06856,-1.17941 7.83718,-4.29839 1.33309,-1.501782 3.42464,-2.616956 5,-2.6659 1.48954,-0.04628 2.62225,-0.549944 2.51713,-1.119257 -0.10511,-0.569313 7.4463,-4.735061 16.78091,-9.257218 9.33462,-4.522156 16.73738,-8.601786 16.45058,-9.065844 -0.28681,-0.464058 -1.76321,-1.134088 -3.28091,-1.488956 C 258.25842,75.407005 255,73.777577 255,72.446067 c 0,-1.291252 0.80176,-1.659698 6.25,-2.872174 3.04505,-0.677658 3.52131,-2.78695 1.58756,-7.031066 -1.50832,-3.310397 -0.24383,-4.567876 1.74214,-1.732495 C 265.5802,62.238743 267.1601,63 269.12409,63 c 2.55561,0 2.91474,0.302307 2.37591,2 -0.36414,1.147311 -0.1797,2 0.43261,2 0.58707,0 1.06739,0.850147 1.06739,1.889216 0,2.588701 3.39864,6.600482 4.83805,5.710876 C 278.47712,74.205123 279,73.242097 279,72.460035 c 0,-0.782062 1.1117,-1.700949 2.47044,-2.041972 2.17387,-0.545607 2.29392,-0.796561 1,-2.09048 C 281.6617,67.518841 281,66.471429 281,66 c 0,-1.836718 3.28355,-4 6.07143,-4 2.81435,0 4.06084,1.455909 1.87134,2.185743 -0.59257,0.197524 -0.7469,1.161101 -0.35115,2.192419 0.60645,1.580379 1.42586,1.749144 5.80723,1.196043 9.88176,-1.247465 11.40541,-1.717685 11.91807,-3.678091 0.43471,-1.662367 0.87658,-1.773044 3.33977,-0.836542 3.06611,1.165735 13.97479,0.345721 14.87974,-1.118522 0.98356,-1.591434 4.42454,2.359913 3.92339,4.505307 -0.26385,1.129504 -0.0595,2.699707 0.45401,3.489341 0.7738,1.189771 1.20374,1.211621 2.50995,0.127555 C 332.2907,69.343775 333,68.183356 333,67.484544 c 0,-2.242213 2.76707,-2.421264 5.16901,-0.334476 1.28204,1.113828 2.95667,2.376465 3.72139,2.805859 0.76472,0.429395 1.07566,1.289973 0.69098,1.912396 -0.82004,1.326846 -4.49918,1.470049 -6.4241,0.250043 -0.88492,-0.560855 -2.21328,-0.0442 -3.89602,1.515313 C 330.85694,74.935156 329.35581,76 328.92541,76 327.28547,76 325,72.756168 325,70.428571 325,69.092857 324.775,68 324.5,68 c -1.1186,0 -4,3.60175 -4,5 0,0.947266 -0.95447,1.5 -2.59022,1.5 -1.42462,0 -3.31553,0.599678 -4.20201,1.332618 -1.80018,1.488372 -5.69906,0.704923 -5.72308,-1.150006 -0.0358,-2.768824 -1.7406,-3.895133 -4.85893,-3.210234 -2.69766,0.592507 -3.04115,1.016571 -2.51651,3.106892 C 301.10812,76.566931 300.83962,77 299.10841,77 297.93931,77 297,77.64197 297,78.440983 c 0,2.743043 -2.17472,2.765809 -5.00689,0.05241 l -2.84437,-2.72508 -7.32437,2.772738 C 266.72712,84.256319 249.57006,92.265665 230.33759,102.57637 220.86961,107.65224 208,115.64489 208,116.4491 c 0,1.65068 50.15641,31.13298 69.39687,40.79198 3.24328,1.62817 9.06732,4.99252 12.94231,7.47633 3.87498,2.4838 7.57382,4.59356 8.21964,4.68834 0.64581,0.0948 2.36055,1.50477 3.81053,3.13329 2.35669,2.64688 2.74394,2.78149 3.65071,1.26898 0.83125,-1.38652 1.54238,-1.50791 3.93911,-0.67241 1.6086,0.56076 3.4401,1.64055 4.07,2.39953 0.73602,0.88686 2.18611,1.1718 4.05805,0.79742 2.63892,-0.52779 2.97184,-0.28724 3.54099,2.55848 0.7267,3.63349 2.37355,2.93314 4.35576,-1.85234 0.65953,-1.59224 1.85074,-3.14503 2.64714,-3.45064 1.13496,-0.43552 1.39753,0.29971 1.21454,3.40091 -0.31902,5.4067 0.9347,6.23684 1.74703,1.15679 0.58899,-3.68335 1.0441,-4.22821 4.28317,-5.12793 4.52861,-1.25791 8.12415,-1.30271 8.12415,-0.10124 0,0.50413 -1.2375,1.88751 -2.75,3.07418 -1.5125,1.18667 -2.1875,1.87264 -1.5,1.52439 0.7788,-0.39451 1.25,0.0676 1.25,1.22582 0,1.02246 0.53091,2.38993 1.17979,3.03881 0.9064,0.9064 0.86389,1.77008 -0.18342,3.72699 -1.7681,3.30373 -5.31302,4.17099 -8.50366,2.0804 C 332.12172,186.68887 331,186.2051 331,186.51213 c 0,0.30703 -0.83982,0.10878 -1.86627,-0.44056 -1.27666,-0.68325 -2.84048,-0.63107 -4.9499,0.16514 -2.53425,0.95658 -3.40434,0.88843 -4.88373,-0.38249 -2.22595,-1.91228 -10.3001,-1.36998 -10.3001,0.6918 0,1.64183 -1.09099,2.33081 -2.74898,1.73604 z m -194.7099,-32.34859 c 0.36253,-0.58659 0.48194,-1.24374 0.26535,-1.46034 C 111.1196,153.78627 107,155.1949 107,156.11663 c 0,1.25139 3.74795,1.10021 4.54112,-0.18316 z M 177,98 c 0,-0.55 -0.47656,-1 -1.05902,-1 -0.58246,0 -0.7809,0.45 -0.44098,1 0.33992,0.55 0.81648,1 1.05902,1 C 176.80156,99 177,98.55 177,98 Z m -9,-5.440983 c 0,-0.242541 -0.45,-0.719098 -1,-1.059017 -0.55,-0.339919 -1,-0.141476 -1,0.440983 C 166,92.523442 166.45,93 167,93 c 0.55,0 1,-0.198442 1,-0.440983 z m -40,-6.219532 c 0,-1.581967 -4.58275,-1.823633 -5.5296,-0.291598 -0.35619,0.576338 -0.39792,1.698604 -0.0927,2.493924 0.44936,1.171015 1.03678,1.226474 3.08861,0.291597 C 126.85983,88.198467 128,87.076202 128,86.339485 Z M 335.64286,164.5 c -0.825,-0.825 -1.86965,-1.50277 -2.32143,-1.50616 -0.45179,-0.003 -2.05893,-0.6517 -3.57143,-1.4407 -2.5624,-1.33667 -2.75,-1.29782 -2.75,0.56952 0,1.65813 -0.56024,1.94997 -3.24563,1.6907 -2.70678,-0.26134 -3.34435,-0.81142 -3.84028,-3.31336 l -0.59466,-3 -1.15972,2.8151 C 317.52187,161.8634 317,163.5839 317,164.13842 c 0,1.94982 -3.50362,0.31587 -3.80317,-1.77364 -0.221,-1.54161 -1.01771,-2.11478 -2.93957,-2.11478 -1.51026,0 -3.3978,-0.94028 -4.41889,-2.20128 C 303.74536,155.46396 302,156.12929 302,159.5119 c 0,2.2962 -0.2142,2.36977 -5.25,1.80307 -2.8875,-0.32494 -6.06484,-1.00921 -7.06077,-1.52059 -3.02369,-1.5526 -1.35586,-3.29471 2.89063,-3.01934 l 3.92014,0.2542 -2.72486,-1.53339 c -1.49867,-0.84336 -3.24675,-2.50855 -3.88463,-3.70043 -1.00298,-1.87409 -0.78557,-2.48893 1.60816,-4.54794 3.25908,-2.80333 5.43128,-1.71827 3.33343,1.66513 -1.1298,1.82215 -1.1043,2.29332 0.1679,3.10259 2.81583,1.79119 3.55935,1.05292 3.15973,-3.13743 -0.47844,-5.01698 1.78533,-5.05173 3.21997,-0.0494 1.09024,3.80142 3.3078,4.12379 4.6203,0.67165 0.60756,-1.59802 1.72713,-2.5 3.10306,-2.5 1.95125,0 2.09274,0.37407 1.51293,4 -0.35179,2.2 -0.29681,3.99311 0.12219,3.98469 1.5879,-0.0319 3.17138,-1.6166 4.12703,-4.13018 0.7951,-2.09127 1.49141,-2.50899 3.53203,-2.11891 1.39792,0.26724 3.06326,1.11435 3.70075,1.88247 0.96842,1.16687 1.5413,0.98417 3.48279,-1.11074 2.56141,-2.7638 7.15251,-3.36593 8.03953,-1.05439 0.43019,1.12104 0.95962,1.20184 2.31769,0.35371 2.39713,-1.49704 7.42389,-0.19211 6.68431,1.73522 -0.3337,0.8696 0.0332,1.45813 0.90907,1.45813 2.67717,0 1.59609,3.88272 -1.53138,5.5 -3.40638,1.76151 -4.00203,2.95281 -1,2 2.44552,-0.77618 2.49528,-0.14703 0.28439,3.59571 -1.91802,3.24695 -3.424,3.62182 -5.64153,1.40429 z m -0.12715,-9.57151 c 0.76423,-3.47955 -0.10323,-5.20563 -1.16676,-2.32162 -0.38397,1.04122 -1.30403,2.25829 -2.04457,2.70459 -1.56859,0.94534 -0.80663,2.68854 1.17518,2.68854 0.74884,0 1.66511,-1.38218 2.03615,-3.07151 z M 110.50835,131.0135 c -0.37429,-0.60561 -0.2025,-1.6771 0.38177,-2.3811 0.75573,-0.9106 0.72285,-1.61943 -0.11391,-2.45619 -1.79409,-1.79409 -2.48657,-1.44583 -3.62637,1.82379 -0.57519,1.65 -1.71389,3 -2.53043,3 -2.05497,0 -2.87354,-3.20139 -1.64488,-6.43302 C 104.27923,121.13536 104.29139,118 103,118 c -0.55,0 -1,0.75214 -1,1.67142 C 102,121.66566 93.570807,130 91.553869,130 c -2.249179,0 -4.749864,-3.06835 -3.976304,-4.87894 0.380922,-0.89158 0.832234,-3.42106 1.002915,-5.62106 0.170681,-2.2 0.334897,-4.28125 0.364925,-4.625 0.119709,-1.37041 6.368313,-1.77612 9.366781,-0.60817 3.582554,1.39547 5.164574,1.45911 8.485804,0.34133 1.28469,-0.43237 2.82801,-0.33827 3.5,0.2134 0.6611,0.54274 2.32241,1.14242 3.69179,1.33262 1.3948,0.19373 2.63648,1.11546 2.82333,2.09582 0.25909,1.35941 -0.35241,1.75 -2.73979,1.75 -3.85401,0 -3.86041,0.87174 -0.0333,4.53833 3.73199,3.57548 3.64458,6.82459 -0.19557,7.26898 -1.46056,0.16902 -2.9618,-0.18819 -3.33609,-0.79381 z M 96.668132,119.3348 c -1.039474,-1.03947 -3.664041,1.14271 -3.634863,3.02219 0.03276,2.11024 0.06372,2.10644 2.025004,-0.24865 1.095454,-1.31542 1.819891,-2.56351 1.609859,-2.77354 z M 94.2,105.8 c -2.05908,-2.05908 -1.49702,-9.478551 0.842165,-11.11698 1.700754,-1.191255 1.99332,-2.329202 1.75,-6.806704 C 96.561635,83.634184 96.816439,82.5 98,82.5 c 1.080029,0 1.585336,1.329907 1.804791,4.75 0.275179,4.288518 0.542349,4.75 2.749999,4.75 3.19041,0 3.15662,2.35483 -0.0548,3.818046 -2.18353,0.994882 -2.5,1.774734 -2.5,6.160514 0,4.5731 -0.205357,5.02144 -2.3,5.02144 -1.265,0 -2.84,-0.54 -3.5,-1.2 z m 2.8,-4.5 c 0,-2.010992 -0.289072,-2.410928 -1.132783,-1.567217 -0.62303,0.623027 -0.862153,1.838027 -0.531384,2.699997 C 96.251264,104.81836 97,104.3087 97,101.3 Z M 82.125,96.098416 c -1.84138,-1.166375 -1.742288,-5.50737 0.193144,-8.461212 1.853699,-2.829104 8.070669,-4.389333 10.257659,-2.574293 2.442534,2.027123 1.768238,7.521306 -1.210662,9.864509 -2.736803,2.15277 -6.864388,2.675856 -9.240141,1.170996 z m 7.046259,-4.753404 C 91.05295,89.642105 91.693145,86 90.110784,86 c -1.569005,0 -5.440133,3.636323 -5.691038,5.345845 -0.314244,2.141079 2.38525,2.140606 4.751513,-8.33e-4 z m 6.251897,-15.684669 c -0.282741,-0.736811 -0.381118,-3.774311 -0.218615,-6.75 L 95.5,63.5 h -4.977033 c -3.843657,0 -5.052134,-0.379001 -5.306824,-1.664321 -0.356443,-1.798826 2.124572,-2.178306 21.433777,-3.278379 7.19628,-0.409981 9.2624,-0.228186 9.67669,0.851441 0.69957,1.823055 13.20296,0.97651 16.53892,-1.119772 2.11239,-1.3274 2.53836,-1.313655 3.98045,0.128444 1.2287,1.228694 1.35849,2.029583 0.54269,3.348753 -2.15382,3.482808 -0.39071,4.263563 3.62576,1.605588 5.21384,-3.450354 8.49943,-1.504611 3.98557,2.360274 -1.1,0.94185 -2,2.009961 -2,2.373581 0,0.363621 0.9,0.896484 2,1.18414 1.1,0.287656 2,0.966996 2,1.509643 0,1.592537 -2.82244,2.218615 -5.46775,1.212868 -2.09902,-0.798043 -2.7975,-0.488108 -4.87105,2.161398 -2.43028,3.105314 -4.6612,3.151293 -4.6612,0.09607 0,-0.886734 0.70772,-2.394259 1.5727,-3.350057 1.43146,-1.581748 1.42373,-2.025892 -0.0861,-4.945608 -1.52484,-2.948712 -1.95474,-3.158861 -5.3227,-2.601933 -2.01514,0.333225 -4.56389,0.655671 -5.66389,0.716548 -1.62233,0.08979 -1.52791,0.242002 0.5,0.806091 4.42866,1.231884 2.99948,3.544269 -2.61402,4.229447 -2.81271,0.343316 -5.96271,1.159829 -7,1.814473 -1.51564,0.956537 -0.36416,1.081923 5.86402,0.638542 4.2625,-0.303446 7.75,-0.162559 7.75,0.313082 0,2.291832 -3.67632,3.603994 -10.10516,3.606762 -8.45789,0.0036 -10.15332,-1.545683 -9.57191,-8.747071 L 107.70641,62 H 103.35321 99 l -0.125,5.5 c -0.06875,3.025 -0.2375,5.95 -0.375,6.5 -0.1375,0.55 -0.30625,1.45 -0.375,2 -0.18283,1.462641 -2.102861,1.221268 -2.701844,-0.339657 z M 156,74.5 c -0.52277,-1.375 -1.29914,-2.503075 -1.72525,-2.506833 -0.42611,-0.0038 -1.83851,-1.568907 -3.13865,-3.478109 -2.97796,-4.372989 -2.32451,-8.178683 1.57225,-9.156705 3.81347,-0.957121 19.51397,1.802393 20.08897,3.530829 0.38235,1.149347 -1.15722,1.278209 -8.91759,0.7464 -10.33808,-0.708456 -12.70691,-0.0497 -11.03757,3.069488 0.57676,1.07768 1.74822,2.540009 2.60324,3.249619 C 156.78432,71.06589 157,70.881057 157,68.622445 157,67.047567 157.55645,66 158.39301,66 c 1.89047,0 2.35657,1.713517 1.83611,6.75 -0.50077,4.845875 -2.70525,5.758084 -4.22912,1.75 z m 19.45137,0.233858 c -0.72905,-1.899874 1.9468,-14.033248 3.18594,-14.446293 0.59225,-0.197418 1.98061,1.728937 3.08523,4.280788 2.00824,4.639322 2.00848,4.639479 2.71066,1.785689 1.85627,-7.544222 6.07933,-9.317986 11.4418,-4.805768 l 3.02845,2.548274 2.11519,-2.115187 c 2.47456,-2.474556 4.38077,-1.510426 5.45195,2.757502 0.52397,2.087662 0.86305,2.346659 1.58281,1.208982 0.50378,-0.796315 0.92287,-2.493341 0.93129,-3.771169 0.011,-1.672331 0.50566,-2.227482 1.76531,-1.981273 1.43387,0.280261 1.74574,1.40891 1.72644,6.247843 -0.0129,3.248186 -0.49629,6.063369 -1.07407,6.255963 -0.57778,0.192594 -2.70468,-0.772378 -4.72644,-2.144382 L 203,68.060274 v 2.333499 c 0,2.054846 -0.47655,2.3335 -3.99073,2.3335 -2.1949,0 -4.5,-0.613637 -5.12244,-1.363637 C 192.19287,69.322541 191,69.714529 191,72.312274 c 0,2.048803 -0.465,2.305177 -4.08095,2.25 -2.70664,-0.0413 -4.51962,-0.662355 -5.38358,-1.844191 -1.20995,-1.655135 -1.34785,-1.601772 -1.9381,0.75 -0.66375,2.644587 -3.30721,3.451636 -4.146,1.265775 z M 189.31265,62.02896 c -0.86188,-0.96342 -2.27899,2.572769 -2.19248,5.47104 0.0855,2.865188 0.14626,2.820251 1.35171,-1 0.69419,-2.2 1.07254,-4.211968 0.84077,-4.47104 z M 196,68.5 c 0,-0.825 -0.675,-1.5 -1.5,-1.5 -1.56157,0 -1.98397,1.1827 -0.83333,2.333333 C 194.8173,70.483967 196,70.061574 196,68.5 Z m 19.53899,5.152168 c -1.51866,-1.110471 -1.7207,-2.114345 -1.14727,-5.700386 C 215.32754,62.099491 216.47115,61 221.62244,61 c 5.41877,0 5.57411,1.156683 0.46476,3.460679 -4.08952,1.844115 -6.0063,5.2494 -3.49684,6.212368 0.78931,0.302887 2.10438,-0.0047 2.92237,-0.683616 2.11457,-1.754937 2.03943,1.315549 -0.0842,3.43914 -1.92548,1.925479 -3.48134,1.984546 -5.88958,0.223597 z M 328.5,28.991491 c -30.02507,-3.262399 -89.40402,-4.130485 -153.2714,-2.240741 -31.84191,0.942157 -48.37261,0.980777 -67,0.156532 C 94.62787,26.305463 76.525,25.517625 68,25.156532 55.180681,24.613545 52.5,24.240579 52.5,23 c 0,-2.17807 11.262579,-2.707586 32.5,-1.528004 24.21968,1.345224 92.36661,1.099277 125.20564,-0.451876 32.89796,-1.553936 84.20601,-0.02676 132.29436,3.937731 7.7,0.634801 17.2625,0.865582 21.25,0.512847 6.26361,-0.554082 7.25,-0.422282 7.25,0.968733 0,0.885539 -1.0717,2.01753 -2.38155,2.515536 -2.85134,1.084075 -30.2479,1.109016 -40.11845,0.03652 z"
     id="path825"
     inkscape:connector-curvature="0" />
</svg>
