<?xml version="1.0" encoding="UTF-8" standalone="no"?>
<!-- Created with Inkscape (http://www.inkscape.org/) -->

<svg
   xmlns:dc="http://purl.org/dc/elements/1.1/"
   xmlns:cc="http://creativecommons.org/ns#"
   xmlns:rdf="http://www.w3.org/1999/02/22-rdf-syntax-ns#"
   xmlns:svg="http://www.w3.org/2000/svg"
   xmlns="http://www.w3.org/2000/svg"
   xmlns:sodipodi="http://sodipodi.sourceforge.net/DTD/sodipodi-0.dtd"
   xmlns:inkscape="http://www.inkscape.org/namespaces/inkscape"
   version="1.1"
   id="svg815"
   width="349"
   height="689"
   viewBox="0 0 349 689"
   sodipodi:docname="sketch11.svg"
   inkscape:version="0.92.3 (2405546, 2018-03-11)">
  <metadata
     id="metadata821">
    <rdf:RDF>
      <cc:Work
         rdf:about="">
        <dc:format>image/svg+xml</dc:format>
        <dc:type
           rdf:resource="http://purl.org/dc/dcmitype/StillImage" />
        <dc:title></dc:title>
      </cc:Work>
    </rdf:RDF>
  </metadata>
  <defs
     id="defs819" />
  <sodipodi:namedview
     pagecolor="#ffffff"
     bordercolor="#666666"
     borderopacity="1"
     objecttolerance="10"
     gridtolerance="10"
     guidetolerance="10"
     inkscape:pageopacity="0"
     inkscape:pageshadow="2"
     inkscape:window-width="1366"
     inkscape:window-height="705"
     id="namedview817"
     showgrid="false"
     inkscape:zoom="0.8011611"
     inkscape:cx="174.5"
     inkscape:cy="344.5"
     inkscape:window-x="-8"
     inkscape:window-y="-8"
     inkscape:window-maximized="1"
     inkscape:current-layer="svg815" />
  <path
     style="fill:#000000"
     d="m 192.5,658.95236 c -36.87342,-1.96168 -67.2278,-4.15516 -82,-5.92553 -8.8,-1.05464 -20.5,-2.19826 -26,-2.54139 C 73.431633,649.79492 42.71647,647.3697 28.942205,646.09869 18.909324,645.17292 15,643.31621 15,639.47695 15,637.66667 15.538297,637 17,637 c 1.1,0 2,0.40934 2,0.90965 0,1.31713 11.171792,2.86135 29.5,4.07764 8.8,0.58398 18.368565,1.32835 21.263477,1.65415 4.321921,0.48641 5.164912,0.33552 4.712482,-0.84349 -0.303047,-0.78973 -2.631761,-2.44679 -5.17492,-3.68235 -9.284799,-4.5109 -28.30779,-16.29566 -27.753146,-17.19309 1.899461,-3.0734 11.154655,1.33547 27.167713,12.9418 l 4.215605,3.05548 -0.508976,-8.20989 C 71.861597,620.66671 70.204752,603.33781 69.4143,598.25 L 68.909374,595 H 42.5 16.090626 l -0.512975,3.25 c -0.282136,1.7875 -0.656817,10.55541 -0.832625,19.48424 -0.290178,14.7374 -0.499598,16.36581 -2.27131,17.66132 -1.073412,0.7849 -2.228756,1.25583 -2.5674291,1.04652 C 9.5676133,636.23277 9.4394343,619.96017 9.6214445,600.28076 10.323821,524.33793 11.243743,462.46758 11.68144,461.73347 12.628528,460.145 12.093526,301.44396 10.978775,253.29774 9.8033096,202.52926 10.799622,132.28054 12.982749,112 14.846156,94.689562 16.209924,45.888775 15.106467,36.005333 14.525809,30.804501 14.414064,26.185936 14.858145,25.741855 c 1.133214,-1.133214 3.858965,0.0892 4.650187,2.085464 2.118232,5.344331 0.848934,64.115898 -2.001466,92.672681 -1.577446,15.80367 -2.516137,92.75954 -1.542277,126.43926 0.58144,20.10841 1.22785,69.86074 1.436465,110.56074 l 0.3793,74 28.859823,0.64039 C 62.51308,432.4926 90.575,433.26821 109,433.86398 c 18.425,0.59576 43.175,1.32349 55,1.61717 11.825,0.29368 29.15,0.75148 38.5,1.01733 9.35,0.26586 30.725,0.73367 47.5,1.03959 16.775,0.30592 38.375,0.91343 48,1.35003 9.625,0.43659 20.02285,0.75287 23.10634,0.70285 l 5.60635,-0.091 0.724,-50.0491 c 0.3982,-27.52701 0.4598,-53.17701 0.13689,-57 -0.32291,-3.823 -1.05055,-22.0259 -1.61697,-40.4509 -0.84348,-27.43749 -0.74618,-39.20057 0.53769,-65 0.86215,-17.325 1.76055,-44.55 1.99644,-60.5 0.2359,-15.95 0.96271,-37.775 1.61515,-48.5 1.05315,-17.3121 1.00156,-20.30755 -0.45982,-26.697405 C 328.74073,87.344022 328,80.898526 328,76.97927 c 0,-6.246589 0.21595,-7.084888 1.75,-6.793418 1.35059,0.256613 1.92739,1.813944 2.52724,6.823325 0.42748,3.569952 1.48845,10.765823 2.35771,15.990823 1.3424,8.06897 1.40564,11.45825 0.41984,22.5 -0.63834,7.15 -1.56338,32.125 -2.05564,55.5 -0.49226,23.375 -1.3928,52.00573 -2.00121,63.62385 -1.10654,21.13021 -0.83563,47.85887 0.87545,86.37615 0.50088,11.275 0.67009,52.45 0.37603,91.5 -0.45141,59.94463 -0.28282,74.11419 1.08272,91 0.88957,11 2.09493,26.75 2.67858,35 0.58365,8.25 1.5091,20.175 2.05656,26.5 0.54746,6.325 0.93426,24.325 0.85956,40 -0.0747,15.675 0.17634,29.26663 0.55787,30.20362 0.38848,0.95409 0.0563,2.61356 -0.75496,3.77183 -1.19388,1.7045 -1.64699,1.82919 -2.57663,0.70905 -2.07452,-2.49965 -3.39795,-16.73323 -2.72317,-29.28784 l 0.65053,-12.10334 -6.18693,-0.64666 C 324.49074,597.291 311.13208,597 298.20764,597 h -23.49898 l 0.5275,22.13605 c 0.52082,21.85599 -0.15095,29.38855 -2.55027,28.5963 -1.33861,-0.442 -2.34414,-15.00577 -2.55433,-36.9962 L 270,596.97229 237.75,597.23615 205.5,597.5 205.28199,616 c -0.23107,19.60764 -0.85418,27 -2.27588,27 -1.68533,0 -2.09237,-4.02453 -2.4796,-24.51677 -0.21494,-11.37447 -0.61148,-20.90153 -0.8812,-21.17125 -0.26972,-0.26972 -11.92251,-0.71999 -25.89508,-1.0006 l -25.40467,-0.5102 -1.68508,7.34941 c -3.37614,14.72487 -4.80605,32.45201 -3.20164,39.69195 0.63519,2.86633 0.4898,3.29374 -1.02053,3 -4.29834,-0.83597 -5.60161,-15.19873 -2.95803,-32.59912 0.81416,-5.35888 1.93916,-11.31545 2.5,-13.23682 C 142.54113,598.08523 143,596.39773 143,596.2566 143,596.11547 127.64591,596 108.87981,596 H 74.759618 l 0.545441,6.25 c 0.299992,3.4375 1.096477,14.125 1.769968,23.75 0.67349,9.625 1.300308,17.60568 1.39293,17.73485 0.09262,0.12916 7.787721,0.92773 17.100223,1.77458 9.3125,0.84686 17.60682,1.73369 18.43182,1.97074 2.24139,0.64402 37.50325,3.26003 62.39672,4.6291 24.03664,1.32195 81.39533,0.66795 104.60328,-1.19266 21.77831,-1.746 40.30383,-1.01783 40.28344,1.58339 -0.019,2.42021 -5.08181,3.33871 -18.40317,3.33871 -7.59566,0 -14.18717,0.23293 -14.64782,0.51763 -0.72794,0.44989 -11.51537,0.91397 -69.73245,2.9999 -6.05,0.21677 -17.75,0.035 -26,-0.40388 z m 140.86383,-67.91619 c 1.22165,-1.22165 -0.65761,-33.50755 -4.93065,-84.70925 C 327.64493,496.88173 327,478.81737 327,466.18391 c 0,-18.34321 -0.2715,-23.07412 -1.3479,-23.48717 -0.74134,-0.28448 -9.17884,-0.56687 -18.75,-0.62754 -18.60266,-0.11792 -98.34707,-1.66547 -131.4021,-2.55004 -65.57046,-1.7547 -89.856053,-2.48867 -117,-3.53604 C 45.3,435.47379 30.675,434.9741 26,434.87271 l -8.5,-0.18435 -0.616779,34.40582 c -0.339229,18.9232 -0.973704,53.58143 -1.409944,77.01829 l -0.793165,42.61247 4.409944,0.60937 c 2.425469,0.33516 21.059944,0.90118 41.409944,1.25784 20.35,0.35665 53.65,1.00625 74,1.44354 49.56653,1.06512 197.54294,0.32137 198.86383,-0.99952 z M 28,564.85252 c 0,-2.14138 15.083343,-7.53708 17.277915,-6.18076 0.594799,0.36761 0.729179,0.14874 0.317577,-0.51725 -0.431279,-0.69783 0.0021,-1.21476 1.095491,-1.30682 3.362521,-0.28312 6.474731,-1.34931 11.545448,-3.95529 0.955037,-0.49082 2.275461,-0.8924 2.934276,-0.8924 0.658814,0 3.02742,-0.86906 5.263569,-1.93123 2.236148,-1.06218 5.415724,-2.16432 7.065724,-2.4492 4.766091,-0.82287 7.952439,-1.87258 8.588367,-2.82934 0.323602,-0.48687 1.673602,-0.98801 3,-1.11365 C 86.414765,543.55094 88.4,542.94282 89.5,542.3252 c 1.1,-0.61761 7.338839,-2.14147 13.86409,-3.38635 11.08588,-2.11494 11.69712,-2.35089 9.31867,-3.59709 -1.39998,-0.73352 -2.83164,-2.23549 -3.18148,-3.33772 -0.89414,-2.81719 -2.51764,-2.51281 -7.58717,1.42244 -5.933944,4.60627 -9.151259,5.33637 -11.808034,2.6796 l -2.06724,-2.06724 -4.007864,4.04812 c -5.069754,5.12067 -8.953868,5.19843 -10.56582,0.21153 -0.569166,-1.76084 -1.335709,-3.50238 -1.703429,-3.8701 -1.310243,-1.31024 -5.342908,0.58059 -10.754631,5.04263 -5.65167,4.65988 -8.651984,5.61795 -9.628017,3.07445 C 50.784775,540.99675 54.810236,533 56.184141,533 c 1.20272,0 0.943147,1.24761 -0.715944,3.44113 -2.580808,3.41213 -1.801363,4.98486 1.281803,2.58637 C 63.785154,533.55462 68.569046,531 71.782645,531 c 2.849565,0 3.571911,0.47907 4.523457,3 0.622805,1.65 1.456348,3 1.852316,3 0.395969,0 2.825884,-1.82268 5.399812,-4.0504 5.771358,-4.99507 7.252549,-4.86589 10.106124,0.88142 0.342323,0.68946 5.011575,-2.30175 9.545266,-6.11489 2.85375,-2.40019 5.31142,-3.73017 6.23682,-3.37506 1.63773,0.62846 8.2074,10.66032 7.79892,11.90893 -0.31703,0.96908 21.90386,0.95451 23.35067,-0.0153 0.60281,-0.40408 1.3807,-1.89973 1.72863,-3.32366 0.34794,-1.42393 2.91635,-6.0873 5.70759,-10.36305 2.79124,-4.27575 4.93835,-7.87973 4.77136,-8.00886 -0.16698,-0.12912 -4.57861,0.18392 -9.80361,0.69565 -7.38359,0.72314 -12.98216,0.54214 -25.13047,-0.81246 -13.63095,-1.51992 -17.08492,-1.5801 -27.000005,-0.47049 -15.369764,1.72007 -36.854085,2.99256 -39.637654,2.34771 -1.247471,-0.289 -4.68148,-0.22392 -7.63113,0.14462 l -5.363,0.67006 -1.130373,5.74558 c -1.042912,5.30101 -4.859296,16.23908 -8.873487,25.43212 -1.237749,2.83461 -2.167954,3.71821 -3.684603,3.5 -2.988165,-0.42994 -3.047672,-3.28914 -0.200644,-9.64051 1.393294,-3.10827 3.539466,-11.15885 4.769271,-17.89018 1.625976,-8.89976 2.666882,-12.37553 3.81532,-12.74003 0.868621,-0.27569 11.70149,-0.69832 24.073043,-0.93919 C 69.37782,510.34113 81.525,509.77488 84,509.32368 c 2.475,-0.45121 10.125,-0.71845 17,-0.59386 6.875,0.12459 23.75,0.34885 37.5,0.49835 24.68943,0.26845 25.00379,0.29843 25.30528,2.41293 0.21575,1.51317 -1.28728,3.64729 -5.12496,7.2768 -2.98663,2.82463 -6.86289,7.82364 -8.61392,11.1089 L 146.88272,536 h 4.02345 c 4.14607,0 6.73821,2.33934 5.2537,4.74132 -1.73345,2.80479 -10.72813,4.29042 -12.8896,2.12895 -0.79373,-0.79373 -6.13232,-0.97142 -17.95,-0.59746 -18.9205,0.59873 -26.870726,2.21194 -49.82027,10.10922 -7.15,2.46043 -17.604111,6.05766 -23.231358,7.99386 -5.627247,1.9362 -12.260052,3.75895 -14.739566,4.05057 -2.479514,0.29161 -5.637902,0.81373 -7.018641,1.16028 C 28.748695,566.02891 28,565.80994 28,564.85252 Z M 228.75,543.4494 c -1.51324,-1.57928 -0.66455,-2.33582 2.96051,-2.63903 3.01514,-0.25221 3.81984,-0.77888 4.29393,-2.81037 0.46713,-2.00171 1.37193,-2.61726 4.53949,-3.08829 2.17584,-0.32355 6.65292,-1.80965 9.94907,-3.30243 8.97377,-4.06411 13.31637,-4.3437 17.00267,-1.0947 2.13504,1.88177 3.7996,2.52231 5.79402,2.22959 3.44873,-0.50616 4.54,0.92866 2.0764,2.73009 -1.57665,1.15287 -0.50255,1.31904 7.64986,1.18346 L 292.5,536.5 l 0.28024,-3 c 0.15413,-1.65 0.92736,-7.22855 1.7183,-12.39677 0.79094,-5.16822 1.20078,-9.78072 0.91075,-10.25 -0.6981,-1.12954 -27.51244,-1.06249 -38.90929,0.0973 -4.95,0.50373 -18.45,1.44042 -30,2.08153 -11.55,0.6411 -21.40843,1.55209 -21.90762,2.02441 -0.53853,0.50954 -0.38237,1.49164 0.38402,2.41508 1.7623,2.12344 0.75923,8.67626 -2.6821,17.52161 -2.26731,5.82773 -3.11493,7.03401 -4.77545,6.79609 -2.44359,-0.35012 -2.4755,-3.37757 -0.12955,-12.28926 0.8687,-3.3 1.58649,-8.39208 1.59508,-11.31574 0.0249,-8.484 0.76655,-9.18059 9.8008,-9.2057 4.24315,-0.0118 15.81482,-0.72042 25.71482,-1.57473 9.9,-0.8543 28.125,-1.87857 40.5,-2.27615 19.30992,-0.62038 22.67723,-0.5118 23.75,0.76585 1.70381,2.0292 1.57224,8.87292 -0.37448,19.47957 -1.46969,8.00758 -1.47889,9.18691 -0.0943,12.09034 0.84381,1.76949 1.23824,3.6266 0.87651,4.12691 C 298.79596,542.09066 291.3,542.5 282.5,542.5 c -8.8,0 -24.325,0.38973 -34.5,0.86607 -10.175,0.47634 -18.8375,0.51384 -19.25,0.0833 z m 30.6027,-6.04422 7.8527,-0.6594 -2.68863,-2.49304 c -3.24667,-3.01048 -7.79789,-2.75092 -15.02142,0.85668 -6.05809,3.02556 -6.70804,4.25196 -1.87191,3.53215 2.13211,-0.31734 7.41027,-0.87372 11.72926,-1.23639 z M 177,504.25015 c 0,-1.3642 4.10934,-2.92405 12.5,-4.74483 3.85,-0.83545 9.475,-2.21452 12.5,-3.0646 5.8506,-1.64413 16.56606,-3.82716 26.62921,-5.4251 3.37106,-0.5353 7.39869,-1.45593 8.95028,-2.04584 1.55159,-0.58992 9.09339,-1.73292 16.75955,-2.54001 7.66617,-0.8071 18.45206,-2.63303 23.96865,-4.05762 6.25432,-1.61511 11.45937,-2.39848 13.82672,-2.08095 l 3.79656,0.50923 2.00524,-5.35948 C 301.46687,466.0044 301.55294,465 298.83091,465 c -1.31224,0 -3.39968,-0.71008 -4.63875,-1.57796 -1.77393,-1.24251 -6.87014,-1.76588 -23.97251,-2.46194 -21.94774,-0.89326 -37.33323,-2.57876 -49.21965,-5.39209 -3.575,-0.84615 -8.76023,-1.5451 -11.52273,-1.55323 L 204.45455,454 l -0.0363,3.75 c -0.0264,2.72401 -1.50088,6.16957 -5.38935,12.59358 -5.48137,9.05558 -7.56048,11.0064 -9.11451,8.55214 -1.4745,-2.32866 -1.10763,-3.32552 4.16951,-11.32939 4.82875,-7.32377 5.05086,-7.95108 4.42541,-12.49863 -0.65575,-4.76787 -0.64514,-4.79053 2.5411,-5.42778 5.00493,-1.00099 9.79607,-0.76581 18.44959,0.90563 16.5763,3.20174 29.68023,4.5709 51.79108,5.4114 14.81863,0.5633 23.28768,1.27849 24.21071,2.04453 0.78079,0.648 3.2966,1.02526 5.59068,0.83835 6.83432,-0.55682 6.88045,0.58378 0.78716,19.46101 -3.08315,9.55168 -5.9051,16.67329 -6.61058,16.68271 -1.59401,0.0213 -2.6623,-4.28057 -1.85841,-7.48355 0.57347,-2.28488 0.34617,-2.49994 -2.64159,-2.49929 -1.79798,4e-4 -7.31905,1.10622 -12.26905,2.45739 -4.95,1.35118 -15.3,3.16652 -23,4.03411 -15.06581,1.69751 -26.84674,3.74379 -52,9.03212 -19.54402,4.10901 -26.5,5.087 -26.5,3.72582 z M 65.584585,488.90358 c -11.103915,-0.91443 -13.018309,-1.39278 -12.022477,-3.00407 0.475117,-0.76876 5.69228,-1.00722 16.813382,-0.7685 24.609002,0.52825 57.49254,-1.60954 64.24437,-4.17658 1.33727,-0.50843 2.693,-1.60617 3.01275,-2.43942 0.77256,-2.01325 3.34636,-1.92603 4.87551,0.16521 1.12491,1.5384 1.32967,1.49139 2.42591,-0.55696 C 146.38617,475.40993 150,457.22263 150,452.62785 v -3.30124 l -13.25,0.37476 c -13.30823,0.37642 -28.53262,1.36722 -51.75,3.36788 -13.190098,1.13661 -26.953315,0.5765 -37.071722,-1.50865 -10.906821,-2.24763 -13.697491,-0.35847 -14.979018,10.14012 -0.938149,7.68555 -7.102319,23.6385 -9.313956,24.10465 -2.751625,0.57996 -2.70351,-1.77225 0.205037,-10.02368 C 25.445906,471.22676 27.552436,463.9 28.52152,459.5 c 1.372602,-6.23213 2.420949,-8.63577 4.743991,-10.87698 3.239483,-3.12536 4.669556,-3.17187 21.234489,-0.69055 9.228481,1.38237 26.142075,1.2198 43.372541,-0.41689 8.595099,-0.81644 23.952459,-1.90266 34.127459,-2.41382 10.175,-0.51117 19.2846,-1.24021 20.24356,-1.6201 2.45076,-0.97085 3.59843,2.67151 2.65191,8.41639 -0.41702,2.53107 -1.23151,8.0791 -1.80998,12.32895 -1.14712,8.4276 -4.27933,18.39541 -6.46825,20.58433 -1.01027,1.01027 -1.8965,1.10958 -3.28243,0.36785 -1.38637,-0.74196 -3.37365,-0.5181 -7.36667,0.82981 -4.25538,1.43647 -10.94876,2.08374 -30.17946,2.91843 -26.823401,1.16425 -25.769535,1.16488 -40.204095,-0.0238 z M 44.083333,486.63266 C 44.3125,486.43062 46.3,485.99124 48.5,485.65625 c 2.787797,-0.42449 3.393899,-0.33447 2,0.29705 -1.91971,0.86975 -7.275847,1.43683 -6.416667,0.67936 z M 239.22251,478.4433 C 238.00013,477.58711 237,476.21421 237,475.3924 c 0,-1.11275 -0.86005,-0.83819 -3.3691,1.07556 -3.38872,2.5847 -6.6309,2.58914 -6.6309,0.009 0,-1.82252 7.27538,-7.40374 10.06078,-7.71801 1.96337,-0.22153 4.29908,2.31231 5.52225,5.99067 0.0457,0.13733 3.8202,-0.95191 8.38783,-2.42054 7.40549,-2.38108 8.77873,-2.54348 12.68132,-1.4997 2.40709,0.6438 5.27006,1.17054 6.36217,1.17054 1.09211,0 1.98565,0.3949 1.98565,0.87756 0,2.08952 -2.99009,2.94237 -10,2.85227 -5.77472,-0.0742 -8.53517,0.40078 -12,2.06492 -5.37731,2.58269 -7.80734,2.72892 -10.77749,0.64855 z M 57.338539,475.08242 c -1.323352,-1.54557 -2.1384,-1.72881 -4.201179,-0.94454 -3.061221,1.16387 -6.709478,0.41955 -7.454056,-1.52079 -0.550925,-1.43569 3.002487,-13.61715 4.961196,-17.00749 1.340064,-2.31952 3.367288,-1.28273 3.322854,1.69942 -0.01796,1.20504 -0.848805,4.55348 -1.846333,7.44098 L 50.307333,470 h 2.410893 c 1.430913,0 3.399654,-1.17507 4.843386,-2.89085 3.10973,-3.69571 7.05294,-4.76795 9.474623,-2.57636 1.672707,1.51378 1.949362,1.48161 3.882406,-0.45143 3.357931,-3.35793 10.12616,-2.24645 8.714925,1.43117 -0.429827,1.12011 -1.35147,1.533 -2.658806,1.19112 -1.317616,-0.34456 -2.349982,0.12894 -3.023032,1.38655 -1.213088,2.26667 0.08527,2.49007 4.839601,0.8327 1.897512,-0.66148 3.209184,-1.87685 3.399224,-3.14968 0.444225,-2.97527 5.061054,-6.14553 7.720483,-5.30146 1.207702,0.38331 3.051115,2.59693 4.202575,5.04655 1.90415,4.05091 2.223133,4.28538 4.449735,3.27087 1.838044,-0.83747 2.264204,-1.6281 1.823664,-3.38335 -0.404265,-1.61071 0.18228,-3.10707 1.9763,-5.04185 2.41733,-2.60697 2.64939,-2.66247 4.42268,-1.05766 1.02932,0.93153 2.55381,1.69368 3.38776,1.69368 0.83395,0 2.32216,0.8905 3.30714,1.97888 1.60139,1.76952 1.65544,2.46256 0.51084,6.55066 -1.05409,3.76485 -1.65171,4.51872 -3.38588,4.27112 -1.79489,-0.25626 -2.05586,-0.86775 -1.76733,-4.14103 0.28757,-3.26251 0.0658,-3.78785 -1.47381,-3.49135 -1.26921,0.24443 -2.03635,1.66141 -2.55994,4.72847 -0.4112,2.40869 -0.96608,4.59789 -1.23307,4.86488 -1.11764,1.11765 -3.5717,-0.86476 -3.5717,-2.88523 0,-2.14286 -0.04092,-2.14935 -2.055939,-0.32578 -1.744889,1.57911 -2.366107,1.6669 -4.106039,0.5803 -1.774076,-1.10793 -2.383713,-0.96732 -4.52794,1.04438 l -2.477841,2.3247 -2.39821,-2.78494 c -2.312205,-2.68507 -2.504659,-2.7299 -5.366461,-1.25 -3.934704,2.03471 -7.725584,1.94418 -9.005615,-0.21506 -0.967663,-1.63232 -1.15593,-1.60657 -2.79969,0.38296 C 65.419399,474.86348 61.893794,477 60.055954,477 c -0.591541,0 -1.814378,-0.86291 -2.717415,-1.91758 z m 7.297564,-7.77965 c -0.409667,-0.40967 -1.16349,-0.0829 -1.675163,0.72619 -1.539671,2.43457 -1.077847,3.51652 0.729536,1.70914 0.929762,-0.92977 1.355294,-2.02566 0.945627,-2.43533 z M 89,465.77432 c 0,-1.15921 -0.309167,-1.79849 -0.687038,-1.42062 -0.996648,0.99665 -1.125358,4.64839 -0.142426,4.0409 C 88.626741,468.11265 89,466.93352 89,465.77432 Z M 117.2,471.8 c -1.61754,-1.61754 -1.52469,-7.28564 0.14201,-8.66888 0.7381,-0.61257 1.6381,-0.81767 2,-0.45578 0.36189,0.3619 0.65799,-0.0529 0.65799,-0.92171 0,-1.27606 1.27773,-1.58951 6.64729,-1.63072 5.47658,-0.042 7.06955,-0.44772 9.04494,-2.3035 4.6566,-4.37465 7.93878,1.34128 4.91953,8.56736 -1.06738,2.5546 -1.95066,3.42041 -3.05648,2.99607 C 136.69987,469.05459 136,468.17329 136,467.4244 c 0,-0.80459 -0.61886,-1.12415 -1.51273,-0.78114 -0.83201,0.31927 -2.17947,0.0272 -2.99436,-0.64914 -1.21103,-1.00507 -1.84183,-0.79722 -3.45399,1.13812 -1.08481,1.30227 -1.98735,2.63303 -2.00565,2.95724 -0.043,0.76262 -4.75158,2.91052 -6.38032,2.91052 -0.68912,0 -1.79295,-0.54 -2.45295,-1.2 z m 7.17132,-5.65781 c 1.60413,-1.77254 1.54249,-1.85287 -1.34273,-1.75 -2.83102,0.10093 -3.88709,1.41598 -2.36192,2.94114 1.06445,1.06446 1.90915,0.79287 3.70465,-1.19114 z m 42.8185,172.89158 c -3.56449,-2.23718 -5.74479,-6.39853 -6.79566,-12.97027 -0.63305,-3.95892 -0.73904,-4.06136 -2.52746,-2.44286 -1.77056,1.60233 -1.8667,1.57156 -1.8667,-0.59762 0,-3.36989 3.60482,-8.61567 7.63011,-11.10343 4.0415,-2.49778 11.51612,-2.85488 18.1506,-0.86714 5.34261,1.60068 12.10701,8.46278 12.83476,13.02012 1.66301,10.41412 -17.77528,21.01806 -27.42565,14.9612 z m 13.80898,-5.03316 c 6.32279,-3.22565 9.21888,-6.88539 8.60548,-10.87464 -1.33958,-8.71204 -11.76333,-12.55862 -22.06546,-8.14261 -4.07987,1.74884 -4.50354,2.21405 -3.58291,3.93426 0.57425,1.07299 1.04409,3.80283 1.04409,6.0663 0,4.35036 2.10092,9.49057 4.22896,10.34679 2.84554,1.14489 8.0774,0.55364 11.76984,-1.3301 z m 107.66787,6.33272 c -1.52728,-1.52727 -0.47698,-3.92907 2.24506,-5.13397 1.60146,-0.70887 4.76104,-2.62848 7.02131,-4.26581 l 4.10957,-2.97696 -2.52131,-3.71043 c -2.6459,-3.89379 -3.14254,-7.48197 -1.5979,-11.54468 1.23508,-3.24851 2.80951,-3.70092 9.64945,-2.77272 7.28344,0.98839 10.94322,4.50366 10.0998,9.70101 -0.43434,2.67652 -0.16025,3.39809 1.4897,3.92176 2.5953,0.82371 5.78737,7.8393 5.81569,12.7818 0.03,5.24084 -1.98327,4.34109 -4.28848,-1.91652 -0.99619,-2.70425 -2.37002,-5.48688 -3.05294,-6.18363 -1.90429,-1.94284 -6.85455,0.1409 -16.41064,6.90779 -7.73078,5.47434 -10.94747,6.80421 -12.55931,5.19236 z m 21.86851,-18.94834 C 312.20053,620.29381 313,618.84564 313,616.92017 c 0,-4.00684 -2.83825,-5.34644 -6.96543,-3.28753 -3.84152,1.9164 -4.66071,3.69772 -3.18747,6.93113 1.29641,2.8453 4.13603,3.14862 7.68808,0.82122 z M 232.75,638.43896 c -0.4125,-0.42476 -0.75,-1.5529 -0.75,-2.50698 0,-1.50493 1.53695,-1.83071 11.60446,-2.45976 12.61203,-0.78803 13.84605,-2.43084 1.84554,-2.45691 -7.2795,-0.0158 -9.45,-0.98399 -9.45,-4.21531 0,-1.17156 0.78555,-1.83352 2.25,-1.896 1.2375,-0.0528 4.5,-0.67083 7.25,-1.37341 l 5,-1.27741 -6.60971,0.50491 c -6.72991,0.5141 -9.40668,-0.6417 -7.01804,-3.03034 1.70184,-1.70184 12.1442,-2.0495 16.62775,-0.5536 5.12113,1.70863 5.53442,4.81093 0.821,6.16272 l -3.17901,0.91173 2.90587,2.44512 c 1.59822,1.34482 2.80377,2.94966 2.679,3.56631 -0.12477,0.61666 0.67314,1.27794 1.77314,1.46951 9.18795,1.6002 8.10708,2.81031 -3.22232,3.60763 -4.82772,0.33976 -11.70268,0.90042 -15.27768,1.24591 -3.575,0.34549 -6.8375,0.28064 -7.25,-0.14412 z M 119,625.84158 c -3.604,-1.07106 -8.1434,-1.73494 -10.18858,-1.49004 -2.74589,0.32879 -4.12867,-0.0446 -5.41054,-1.46107 -0.94707,-1.0465 -1.53721,-2.05013 -1.31142,-2.23029 0.2258,-0.18016 3.46876,-2.48168 7.20658,-5.1145 3.73782,-2.63282 6.66282,-4.90966 6.5,-5.05966 -0.16282,-0.15 -4.62274,0.19333 -9.91092,0.76295 -10.949122,1.17939 -14.467341,0.64269 -15.417807,-2.35196 -1.027198,-3.23641 0.858725,-4.43942 4.977772,-3.17525 2.439957,0.74885 7.133575,0.77232 15.554655,0.0778 9.24304,-0.76231 12.40364,-0.70967 13.53026,0.22534 2.57237,2.13488 1.62133,3.8724 -4.5034,8.22755 -3.28537,2.33615 -5.98537,4.53627 -6,4.88914 -0.0146,0.35288 1.2109,0.93205 2.7234,1.28706 5.1339,1.20499 13.21579,5.0657 13.23293,6.32135 0.0229,1.67737 -3.17097,1.4132 -10.98293,-0.90842 z M 26.634859,621.92742 C 24.393027,620.16399 24,619.08063 24,614.66455 c 0,-4.05781 0.409205,-5.40568 1.875428,-6.17742 1.031486,-0.54292 3.393986,-1.8644 5.25,-2.93662 4.697957,-2.71402 14.833243,-2.79703 17.766884,-0.14552 3.307842,2.98972 2.663849,6.37562 -2.068947,10.87782 -4.637384,4.41144 -10.947033,7.66171 -14.938506,7.69523 -1.438328,0.0121 -3.800828,-0.9107 -5.25,-2.05062 z m 10.363944,-4.92681 C 41.787968,614.55736 46,610.17545 46,607.63639 c 0,-1.67263 -0.618038,-1.8328 -5.50769,-1.42731 C 32.776235,606.84896 26.647263,612.60387 29,617 c 1.347492,2.51781 3.064426,2.51794 7.998803,6.1e-4 z M 98.3264,420.9799 C 89.353064,419.15341 83,413.50724 83,407.35885 c 0,-1.91824 1.854542,-8.29621 4.121203,-14.17328 8.345726,-21.63903 9.054782,-23.80074 9.710285,-29.60393 0.738666,-6.53943 2.485641,-8.17449 4.353632,-4.0747 1.63263,3.58323 -0.52807,11.86208 -7.709269,29.53849 -6.405826,15.76784 -6.984333,20.62284 -2.845304,23.8786 5.525127,4.34606 8.407264,4.56584 55.869453,4.26027 43.66497,-0.28113 56.06692,-0.83672 75.09447,-3.36416 l 9.09446,-1.20802 1.26662,-4.55606 c 0.69664,-2.50583 1.49411,-5.34356 1.77216,-6.30606 0.4037,-1.39743 -0.11526,-1.75 -2.57589,-1.75 -2.18206,0 -3.42313,-0.65672 -4.25209,-2.25 -0.64385,-1.2375 -1.27228,-2.37509 -1.3965,-2.52798 -0.12422,-0.15289 -1.41326,0.17348 -2.86454,0.72525 -2.11926,0.80574 -2.63869,0.71015 -2.63869,-0.48559 0,-0.81885 -0.52102,-2.3231 -1.15782,-3.34278 -1.48376,-2.37587 -0.62078,-4.56264 2.64504,-6.70248 3.37918,-2.21413 7.51278,-0.63447 7.51278,2.87101 0,1.28167 0.63989,3.20382 1.42197,4.27144 1.40266,1.91477 1.46035,1.91252 4.24777,-0.16513 1.5542,-1.15844 3.27681,-3.70911 3.82803,-5.66815 1.30514,-4.63844 1.89393,-5.13489 6.30487,-5.3161 5.10304,-0.20964 6.93816,0.99582 8.14803,5.35228 1.53241,5.51784 1.30964,7.06883 -1.40522,9.78368 -1.84347,1.84348 -3.52391,2.4549 -6.75,2.45594 -4.27938,10e-4 -4.30402,0.0224 -6.58702,5.6251 -1.26037,3.09303 -2.06511,5.85016 -1.78832,6.12695 0.27679,0.27679 8.508,-0.66704 18.29157,-2.0974 23.07276,-3.37324 31.86341,-4.15257 32.64137,-2.89381 0.37463,0.60616 -3.1883,1.46927 -9.1191,2.20907 -13.57363,1.69317 -42.8333,6.66305 -44.19966,7.50751 -0.62283,0.38492 -3.69783,0.82672 -6.83335,0.98176 -3.13552,0.15505 -9.52594,0.79849 -14.20094,1.42987 -4.675,0.63139 -13.225,1.56059 -19,2.06489 -14.40838,1.25822 -90.52126,2.07331 -95.6736,1.02457 z m 148.45109,-27.5366 c 2.6548,-1.85949 2.8603,-4.66265 0.51386,-7.0091 -1.61154,-1.61154 -1.80626,-1.48771 -3.42584,2.17857 -2.87472,6.50757 -1.86758,8.17826 2.91198,4.83053 z M 108.2403,406.75 c -0.92689,-1.15332 -1.31257,-5.12648 -1.62146,-16.7042 -0.11585,-4.34231 -0.0259,-4.4764 3.58195,-5.3377 3.16997,-0.75678 3.94615,-1.526 5.41149,-5.36292 2.05524,-5.38158 7.03816,-11.09474 8.44746,-9.68544 0.62494,0.62494 -0.0945,2.8977 -2.0274,6.40448 -3.54795,6.43697 -3.68535,7.53175 -1.03234,8.22553 3.12578,0.81741 2.50008,4.40029 -1.09293,6.25831 -1.70111,0.87968 -2.90595,1.78639 -2.67742,2.01492 0.66036,0.66036 8.77035,-2.77461 8.77035,-3.71467 0,-1.44595 5.03086,-0.93146 5.60839,0.57355 0.30009,0.78202 0.0245,2.39556 -0.61241,3.58565 -0.63691,1.19008 -0.94038,2.38142 -0.67438,2.64742 0.8597,0.85971 4.50559,-1.98025 5.5858,-4.35103 1.40678,-3.08755 5.10853,-3.12706 5.04905,-0.0539 -0.0563,2.90886 -1.55929,10.68617 -2.1863,11.31318 C 137.85452,403.47881 135,401.78414 135,400.32492 c 0,-1.13127 -0.67762,-0.9786 -3.00173,0.67631 -4.33133,3.08418 -7.41553,2.36158 -7.81762,-1.83161 -0.19622,-2.04626 -0.77459,-3.16108 -1.5,-2.89132 -0.64936,0.24148 -2.83727,1.03188 -4.86204,1.75645 -2.94868,1.0552 -4.01004,2.17799 -5.3327,5.64133 -1.73019,4.53043 -2.58036,5.14597 -4.24561,3.07392 z m 2.17791,-14.35699 C 111.2882,392.05917 112,391.11102 112,390.28602 c 0,-0.95696 -0.57265,-1.28025 -1.58179,-0.89301 -0.86998,0.33385 -1.76998,0.60699 -2,0.60699 -0.23001,0 -0.41821,0.675 -0.41821,1.5 0,1.68305 0.18315,1.75069 2.41821,0.89301 z m 32.91615,12.03595 c -0.81021,-2.11139 0.53266,-7.33295 4.61093,-17.92896 3.88017,-10.08129 4.44231,-10.94898 6.56559,-10.1342 2.30269,0.88363 1.75172,3.51697 -3.67494,17.56414 -4.36639,11.30259 -6.20549,13.87655 -7.50158,10.49902 z M 208.125,401.125 c -1.03125,-1.03125 -2.09051,-2.49375 -2.3539,-3.25 -0.38106,-1.09408 -0.89929,-1.00215 -2.53657,0.44996 -1.24227,1.10177 -3.18057,1.69618 -4.89135,1.5 -2.26356,-0.25958 -2.93692,-0.92686 -3.3468,-3.31659 l -0.51312,-2.99163 -4.24163,4.24163 c -4.63206,4.63206 -5.4161,4.94126 -7.17024,2.82766 -0.9308,-1.12155 -0.21446,-3.24138 3.46371,-10.25 2.55046,-4.85982 5.07872,-9.28603 5.61837,-9.83603 1.30965,-1.33478 4.09326,2.41838 3.49713,4.71521 -0.27582,1.06273 0.2757,1.94401 1.44979,2.31665 1.04223,0.33079 2.16979,1.69645 2.50569,3.03479 0.78113,3.11226 1.14616,3.06582 4.96043,-0.63111 3.00318,-2.9108 3.24888,-2.97729 4.9002,-1.32597 1.23652,1.23652 1.583,2.6967 1.19996,5.0571 -0.3631,2.23749 -0.0391,3.81804 0.99452,4.85167 1.58753,1.58752 1.18081,4.48166 -0.62981,4.48166 -0.56726,0 -1.87513,-0.84375 -2.90638,-1.875 z m -55.69328,-1.54102 c -0.39852,-1.58784 0.61976,-5.42352 2.97059,-11.18964 3.99575,-9.80082 4.77959,-10.92225 7.03047,-10.05851 2.3104,0.88659 1.92448,3.89479 -1.37295,10.70195 -1.6171,3.3383 -3.452,7.62047 -4.07756,9.51593 -1.31833,3.9946 -3.67276,4.52766 -4.55055,1.03027 z m 108.92936,-7.4406 c 1.07691,-6.73463 4.47178,-14.66675 9.28712,-21.69935 2.48776,-3.63328 4.31195,-6.81721 4.05376,-7.07541 -0.2582,-0.25819 -36.85926,-0.63353 -81.3357,-0.83408 -44.47645,-0.20055 -82.34634,-0.68763 -84.15532,-1.0824 -1.80899,-0.39477 -3.13878,-1.16863 -2.95509,-1.71969 0.20317,-0.60951 7.95396,-1.11897 19.78906,-1.30075 10.7003,-0.16434 26.20509,-0.55112 34.45509,-0.8595 8.25,-0.30837 38.21847,-0.22577 66.59659,0.18356 C 280.98078,358.533 282,358.62683 282,362.81021 c 0,0.86093 -1.96109,4.06833 -4.35797,7.12755 -2.39689,3.05923 -5.79659,8.48724 -7.5549,12.06224 -1.7583,3.575 -3.95971,8.04463 -4.89202,9.9325 -2.58272,5.22988 -4.65482,5.34384 -3.83403,0.21088 z M 314.22155,354.25 c -2.76488,-4.8125 -6.25337,-11 -7.75222,-13.75 C 292.45728,314.79139 282.30159,297.80392 271.49605,282 256.74877,260.43099 254.95906,257.90496 242.81532,241.51956 239.13875,236.5588 234.65338,230.475 232.84783,228 c -5.92406,-8.12057 -25.0754,-32.36905 -30.61958,-38.769 -4.75796,-5.49238 -10.74934,-10.50119 -8.81245,-7.36724 0.36143,0.58481 -0.29421,2.01465 -1.45698,3.17742 -6.22604,6.22604 -22.19356,27.20353 -40.79269,53.59183 C 133.37715,263.87185 94.817754,316.037 90.651747,320.5 c -1.026802,1.1 -2.890341,3.575 -4.1412,5.5 -1.250859,1.925 -3.227447,4.58135 -4.392418,5.90301 C 80.953158,333.22467 80,334.63902 80,335.04602 c 0,0.407 -0.652083,0.99023 -1.449072,1.29606 -1.715532,0.65832 -1.000889,-2.23965 0.949537,-3.85048 0.671546,-0.55463 2.372769,-3.25463 3.780496,-6 1.407727,-2.74538 3.271504,-5.8916 4.141725,-6.9916 l 1.582221,-2 -0.584088,2 c -0.562454,1.92592 -0.528048,1.93158 0.928862,0.1528 0.832124,-1.01596 1.318364,-2.36596 1.080535,-3 -0.23783,-0.63404 0.718062,-2.5028 2.124204,-4.1528 l 2.556622,-3 -1.733014,3 c -1.669666,2.89034 -1.666847,2.93902 0.0771,1.33167 0.995561,-0.91759 1.862933,-2.55921 1.927493,-3.64806 0.121898,-2.05591 10.822509,-17.12121 20.961629,-29.51171 3.21434,-3.92808 7.86625,-10.07369 10.33758,-13.65693 5.12641,-7.4329 7.13081,-10.22642 13.06082,-18.20281 4.32439,-5.81669 19.15814,-27.48392 22.75735,-33.24102 6.26214,-10.01656 17.38809,-24.33771 25.86519,-33.2933 l 3.99658,-4.22216 -5.02469,-5.77784 c -2.76358,-3.17781 -6.88374,-7.03753 -9.15591,-8.57716 -2.56223,-1.73617 -4.83785,-4.39469 -5.99182,-7 C 170.00728,151.77421 132.79422,113.8068 115.57229,98.935917 101.22217,86.544801 74.878641,62.783606 73.092382,60.62012 c -0.882441,-1.068797 -1.055523,-2.056979 -0.463906,-2.648596 0.591616,-0.591616 4.288116,2.327669 9.907618,7.824472 4.930148,4.8225 17.738906,16.476995 28.463906,25.898877 19.52704,17.154447 38.39681,35.232857 53.71672,51.463957 l 8.17273,8.65883 1.57833,-2.40883 c 1.7264,-2.63482 5.54395,-3.20855 7.71079,-1.15883 2.00193,1.89371 10.32979,1.5049 12.64504,-0.59037 2.48867,-2.25221 7.20879,-12.71369 7.3846,-16.36691 0.0739,-1.536 -0.21647,-4.03022 -0.64531,-5.54272 -0.70916,-2.50116 -0.54145,-2.75 1.85344,-2.75 1.92259,0 2.94849,0.7421 3.80169,2.75 l 1.16852,2.75 0.55673,-4.23312 C 209.69157,118.57714 212.06477,116 216.55595,116 c 6.72233,0 9.19766,3.09831 5.92787,7.41976 -1.52299,2.01283 -6.4482,5.56236 -7.73382,5.57365 -1.33024,0.0117 -0.79793,-3.47997 0.90012,-5.90428 1.2706,-1.81403 1.3281,-2.2501 0.25,-1.89598 -2.53239,0.83182 -4.18957,7.78701 -3.05141,12.80685 1.25287,5.52581 4.94046,14 6.09217,14 0.46601,0 3.48245,-3.4875 6.7032,-7.75 3.22076,-4.2625 6.09499,-7.975 6.38718,-8.25 0.84296,-0.79337 13.95793,-17.7525 20.24151,-26.17455 10.58987,-14.19391 44.83856,-50.047457 46.35688,-48.529132 1.21283,1.212834 -1.24168,4.990622 -8.03379,12.364929 C 286.96814,73.599932 284,77.312432 284,77.911247 284,78.510061 283.42543,79 282.72318,79 c -2.84548,0 -19.74635,18.906712 -45.14235,50.5 -19.10613,23.76851 -18.0459,21.69105 -16.00005,31.3513 0.62198,2.93689 0.47578,3.30624 -1.1823,2.98692 -1.04062,-0.2004 -2.58165,-1.82485 -3.4245,-3.60988 l -1.53245,-3.24551 -8.39959,10.25859 c -4.61977,5.64222 -8.72599,10.70858 -9.12492,11.25858 -0.39894,0.55 1.72222,3.7 4.71369,7 18.34581,20.23796 62.66577,80.19137 82.05564,111 10.86084,17.25682 30.92905,53.46954 31.86512,57.5 0.0639,0.275 0.65426,1.85 1.31199,3.5 3.20128,8.03079 2.45809,7.36758 -3.64191,-3.25 z M 87,323 c 0.588702,-1.1 0.845368,-2 0.570368,-2 -0.275,0 -0.981666,0.9 -1.570368,2 -0.588702,1.1 -0.845368,2 -0.570368,2 0.275,0 0.981666,-0.9 1.570368,-2 z m 118.77304,-157.37757 9.12785,-11.37756 -1.99379,-5.24724 c -1.09658,-2.88598 -2.93565,-7.09344 -4.08682,-9.34991 l -2.09303,-4.10267 -2.36362,5.35572 c -1.3,2.94564 -2.36363,5.64548 -2.36363,5.99963 0,0.35415 -1.40589,2.34949 -3.12419,4.4341 -2.47674,3.00471 -3.71051,3.72868 -5.95341,3.49341 -2.27481,-0.23861 -3.54682,0.54159 -6.49119,3.98143 -3.6063,4.21315 -3.63416,4.31173 -1.83213,6.48442 3.43718,4.1442 10.8246,11.70624 11.43592,11.70624 0.3356,0 4.71772,-5.1199 9.73804,-11.37757 z m -25.32881,-8.53219 c 0.79864,-1.29223 -0.47441,-4.18962 -1.54901,-3.52548 -1.19078,0.73594 -1.1526,4.43524 0.0458,4.43524 0.51754,0 1.194,-0.40939 1.50325,-0.90976 z m -80.32093,75.33938 c -4.405815,-5.60108 -3.57109,-16.35903 1.58395,-20.41398 3.03461,-2.38703 8.29275,-2.73387 8.29275,-0.54702 0,0.88321 -0.58767,1.2431 -1.4743,0.90287 -4.64282,-1.78162 -8.50111,10.44203 -5.18285,16.42005 1.21437,2.18775 1.34377,2.2104 2.85675,0.5 0.87163,-0.98535 2.35988,-4.49154 3.30722,-7.79154 2.54169,-8.85374 3.30199,-10.5 4.8493,-10.5 1.96718,0 3.52383,2.14977 4.27452,5.90321 0.52755,2.63776 0.29835,3.3026 -1.28097,3.7156 -1.21226,0.31701 -2.58052,2.35288 -3.70036,5.50587 -0.97727,2.75158 -2.64816,5.87417 -3.71308,6.93909 -2.79357,2.79357 -7.34821,2.49923 -9.81293,-0.63415 z m 45.7145,-37.46058 c -0.9142,-0.53358 -1.98082,-2.8824 -2.37026,-5.21959 -0.38944,-2.3372 -1.589,-7.1169 -2.6657,-10.62156 -2.86887,-9.33818 0.1473,-10.92703 4.07777,-2.14806 1.9206,4.2898 2.00091,4.34438 2.64086,1.79462 0.79144,-3.15332 2.89566,-4.15729 5.63762,-2.68984 2.61217,1.39799 2.79045,1.14555 3.51571,-4.9782 0.33644,-2.84066 0.9939,-5.40104 1.46103,-5.68974 1.30996,-0.8096 3.87871,0.98396 5.24791,3.66419 0.97164,1.902 1.9179,2.36488 4.42654,2.16533 2.84685,-0.22645 3.19072,0.031 3.19072,2.3893 0,2.57548 -0.12488,2.6283 -4.88196,2.0649 l -4.88196,-0.5782 -0.60909,3.80903 c -0.74279,4.64514 -2.60183,6.36418 -5.96864,5.51917 -2.3168,-0.58148 -2.58589,-0.30782 -3.15327,3.20694 -1.45063,8.98626 -1.87036,9.52778 -5.66728,7.31171 z M 335.26216,74.923958 c -1.21564,-1.966823 -2.87175,-6.466823 -3.68023,-10 C 329.68527,56.635364 328.33403,34 329.73589,34 c 2.23849,0 3.00442,3.083034 4.09913,16.5 0.62825,7.7 1.85572,16.360743 2.7277,19.246095 2.20936,7.310643 1.57604,9.832027 -1.30056,5.177863 z M 295.87867,35.560855 c -0.34173,-0.350267 -9.56673,-1.285413 -20.5,-2.078103 C 264.4454,32.690062 253.7,31.807636 251.5,31.521806 247.14984,30.95662 237.51322,30.712174 132,28.490527 93.225,27.674095 57.45,26.566411 52.5,26.029005 47.55,25.4916 39.198902,24.895184 33.942005,24.703635 23.439889,24.320964 22,23.857125 22,20.856697 c 0,-1.95194 0.407329,-2.00189 11.25,-1.379565 6.1875,0.355137 15.75,1.11295 21.25,1.68403 5.5,0.57108 19,1.167058 30,1.324397 24.28887,0.347416 119.46845,2.306828 143,2.943865 23.51662,0.636633 50.17239,2.42834 61.54365,4.136747 C 294.29266,30.354777 304.98016,31 312.79365,31 324.26991,31 327,31.2677 327,32.393011 c 0,0.766156 -0.7875,1.73638 -1.75,2.156053 -2.20943,0.963365 -28.53384,1.870195 -29.37133,1.011791 z"
     id="path825"
     inkscape:connector-curvature="0" />
</svg>
