<?xml version="1.0" encoding="UTF-8" standalone="no"?>
<!-- Created with Inkscape (http://www.inkscape.org/) -->

<svg
   xmlns:dc="http://purl.org/dc/elements/1.1/"
   xmlns:cc="http://creativecommons.org/ns#"
   xmlns:rdf="http://www.w3.org/1999/02/22-rdf-syntax-ns#"
   xmlns:svg="http://www.w3.org/2000/svg"
   xmlns="http://www.w3.org/2000/svg"
   xmlns:sodipodi="http://sodipodi.sourceforge.net/DTD/sodipodi-0.dtd"
   xmlns:inkscape="http://www.inkscape.org/namespaces/inkscape"
   version="1.1"
   id="svg815"
   width="369"
   height="689"
   viewBox="0 0 369 689"
   sodipodi:docname="sketch22.svg"
   inkscape:version="0.92.3 (2405546, 2018-03-11)">
  <metadata
     id="metadata821">
    <rdf:RDF>
      <cc:Work
         rdf:about="">
        <dc:format>image/svg+xml</dc:format>
        <dc:type
           rdf:resource="http://purl.org/dc/dcmitype/StillImage" />
        <dc:title></dc:title>
      </cc:Work>
    </rdf:RDF>
  </metadata>
  <defs
     id="defs819" />
  <sodipodi:namedview
     pagecolor="#ffffff"
     bordercolor="#666666"
     borderopacity="1"
     objecttolerance="10"
     gridtolerance="10"
     guidetolerance="10"
     inkscape:pageopacity="0"
     inkscape:pageshadow="2"
     inkscape:window-width="1366"
     inkscape:window-height="705"
     id="namedview817"
     showgrid="false"
     inkscape:zoom="0.8011611"
     inkscape:cx="184.5"
     inkscape:cy="344.5"
     inkscape:window-x="-8"
     inkscape:window-y="-8"
     inkscape:window-maximized="1"
     inkscape:current-layer="svg815" />
  <path
     style="fill:#000000"
     d="m 36,654.29567 c -12.092772,-0.42287 -13,-0.72864 -13,-4.3816 v -3.04784 l 10.75,0.81689 c 13.68546,1.03994 33.740428,1.04158 52.25,0.004 37.00794,-2.07399 51.44303,-2.68628 63.34384,-2.68681 L 162.18768,645 l -0.59359,-4.75 c -0.32647,-2.6125 -1.06679,-9.7 -1.64516,-15.75 -0.97703,-10.22011 -3.51717,-24.99238 -4.59834,-26.74175 C 155.09285,597.34121 140.46816,597 122.8513,597 H 90.820624 l 0.722974,20.90088 C 92.247907,638.26215 91.919176,644 90.048336,644 c -1.79546,0 -2.535878,-5.59148 -3.575312,-27 -0.333797,-6.875 -1.044126,-14.1875 -1.578508,-16.25 L 83.922912,597 65.711456,596.95869 C 55.695155,596.93597 43.45,596.85785 38.5,596.78509 c -4.95,-0.0727 -12.737834,-0.0542 -17.306299,0.0413 L 12.887403,597 l 0.116499,18.25 c 0.06407,10.0375 0.08941,18.8125 0.0563,19.5 -0.03374,0.70067 -1.342581,1.25 -2.978237,1.25 H 7.163928 L 7.4069706,587.25 C 7.5406421,560.4375 8.1519014,518.925 8.7653227,495 c 1.5478693,-60.37086 2.4210133,-70.2505 5.2957753,-59.9218 0.9754,3.5045 0.96738,15.83147 -0.03866,59.4218 -1.466304,63.53288 -1.772048,95.08409 -0.929567,95.92636 1.124348,1.12405 20.727197,1.4096 116.907129,1.70292 53.075,0.16186 96.82183,0.44087 97.21518,0.62001 0.39335,0.17913 28.29335,0.42133 62,0.53821 L 350.5,593.5 l -0.15439,-38 c -0.0849,-20.9 0.31342,-48.8 0.88519,-62 1.36195,-31.44231 0.93772,-152.57977 -0.65489,-187 -0.76966,-16.63442 -1.37628,-69.61403 -1.58009,-138 -0.40659,-136.42635 -0.46496,-129.254893 1.07532,-132.13293 0.69586,-1.300231 1.07703,-2.549937 0.84703,-2.777125 -0.22999,-0.227187 -2.78143,0.01765 -5.66985,0.544093 C 338.4178,35.378954 274.48934,34.633941 253,33.05899 c -17.64853,-1.293459 -50.15511,-1.7083 -95.7333,-1.221724 -15.52832,0.165774 -28.70945,0.0071 -29.29141,-0.352539 -0.58196,-0.359671 -12.62698,-1.047579 -26.7667,-1.528684 C 87.068865,29.474938 69.875,28.367823 63,27.495789 56.125,26.623754 45.633516,25.930781 39.685591,25.955849 33.678715,25.981165 27.962991,25.515377 26.828232,24.908073 19.907325,21.204116 39.40836,20.148233 65,22.841263 c 10.725,1.128602 27.6,2.307684 37.5,2.620183 9.9,0.3125 23.175,1.074566 29.5,1.693481 7.94222,0.777164 18.30618,0.849924 33.5,0.235187 31.36088,-1.268852 66.16656,-0.852052 95.04141,1.138128 17.90386,1.234011 31.50041,1.567119 48.10259,1.178487 13.00493,-0.304426 24.97109,-0.131248 27.31461,0.395306 3.07385,0.690649 5.48077,0.547996 9.15274,-0.542462 4.53154,-1.345724 5.03883,-1.331791 5.609,0.154055 0.34478,0.898474 1.50787,2.51459 2.58465,3.591369 1.70733,1.707333 1.87659,2.83134 1.32311,8.786531 -0.34907,3.755814 -1.14935,7.958363 -1.77841,9.338998 -0.85651,1.879828 -0.85734,2.855344 -0.003,3.884384 0.83403,1.004946 1.25154,32.380264 1.55396,116.77961 0.22781,63.57613 0.90213,124.61216 1.50146,135.90548 1.32135,24.89831 1.69163,134.05906 0.7683,226.5 -0.63497,63.57105 -1.39415,80.59338 -3.65676,81.99175 -0.4434,0.27403 -1.19029,-3.66201 -1.65976,-8.74675 L 350.5,598.5 l -26.89419,-0.26661 -26.89419,-0.2666 0.66002,6.2666 c 2.26442,21.49959 2.66149,29.92987 1.59605,33.8866 -0.75605,2.80777 -1.44027,3.80743 -2.13232,3.11538 -0.99275,-0.99275 -1.47066,-4.46069 -3.88746,-28.20926 -1.80419,-17.72873 0.66013,-16.02192 -23.17316,-16.04997 -11.15111,-0.0131 -21.84975,-0.3616 -23.77475,-0.77441 -1.925,-0.41281 -6.5375,-0.58867 -10.25,-0.39082 l -6.75,0.35974 v 3.77819 c 0,2.078 0.4214,6.00019 0.93644,8.71599 2.23553,11.78795 3.21035,25.8212 2.00429,28.85339 l -1.18601,2.98178 -1.28391,-3 c -0.70615,-1.65 -1.5837,-5.925 -1.9501,-9.5 -0.3664,-3.575 -1.33993,-10.325 -2.16339,-15 -0.82346,-4.675 -1.81971,-10.525 -2.21389,-13 -0.5978,-3.75355 -1.04236,-4.4391 -2.68006,-4.13289 -1.07985,0.20191 -14.90087,0.58042 -30.71337,0.84113 -15.8125,0.26072 -28.75,0.60988 -28.75,0.77593 0,0.16605 0.73005,3.83207 1.62234,8.14671 0.89229,4.31465 2.12979,14.82528 2.75,23.35697 L 166.5,644.5 l 3.5,0.33805 c 1.925,0.18592 41.525,0.41092 88,0.5 l 84.5,0.16195 0.29826,2.08751 c 0.6635,4.64384 1.6369,4.58805 -75.49767,4.32743 C 227.26027,651.77965 181.45,651.64785 165.5,651.62205 c -15.95,-0.0258 -45.44016,0.72368 -65.533697,1.66552 C 65.648935,654.89611 57.047357,655.03168 36,654.29567 Z m 30.5,-20.39395 c -6.6,-3.33961 -12.17316,-6.55318 -12.3848,-7.14127 -0.259254,-0.72039 1.179091,-0.8549 4.408552,-0.41225 6.579911,0.90188 24.155575,10.74361 22.877964,12.81083 -0.942329,1.52472 -2.779392,0.8766 -14.901716,-5.25731 z m 122.24052,0.66897 c -2.06771,-0.73784 -4.45988,-1.92282 -5.31593,-2.63328 -1.7433,-1.44681 -4.33612,-6.13678 -5.49025,-9.93094 -0.4902,-1.6115 -0.79313,-1.88161 -0.84839,-0.75647 -0.10894,2.21798 -1.94562,2.27927 -2.7846,0.0929 -0.7705,-2.0079 2.34746,-14.33628 4.07511,-16.11292 0.67923,-0.6985 2.1099,-1.4492 3.17926,-1.66822 1.06935,-0.21902 4.156,-1.38891 6.85922,-2.59976 9.2033,-4.1224 18.5407,-1.08459 24.70657,8.03798 2.66749,3.94663 2.99354,5.17634 2.65139,10 -0.94174,13.277 -13.381,20.44203 -27.03238,15.57069 z m 17.83097,-6.63785 c 3.88333,-3.6482 5.94535,-10.26443 4.59926,-14.75728 -2.28832,-7.63771 -10.30211,-12.082 -17.96999,-9.96581 -5.06614,1.39815 -11.08865,5.79444 -11.84572,8.64708 -0.90704,3.41774 1.31688,12.19983 3.91177,15.44731 3.99353,4.99784 16.26836,5.36007 21.30468,0.6287 z M 309.25,631.33772 c -2.57331,-1.03836 -1.14435,-4.28932 3.28288,-7.46872 2.79058,-2.00404 4.32805,-3.78902 4,-4.64392 C 316.23979,618.46132 316,617.66235 316,617.4496 c 0,-0.21276 -0.675,-0.12781 -1.5,0.18877 -2.25349,0.86475 -1.85477,-1.77 1.14197,-7.54608 L 318.28394,605 h 5.78131 c 4.7607,0 6.32445,0.45703 8.85802,2.58889 3.222,2.71114 3.92241,5.96243 2.04155,9.47685 -0.77381,1.44588 -0.71069,1.93475 0.25,1.93619 1.61212,0.002 7.78518,8.93766 7.78518,11.26872 0,2.74161 -1.506,2.05853 -6.1085,-2.77065 -3.26247,-3.42314 -5.01897,-4.49766 -7.34014,-4.49023 -3.76456,0.0121 -12.38763,3.96054 -14.95635,6.8485 -1.89979,2.13589 -2.97833,2.43442 -5.34501,1.47945 z m 19.01022,-15.87819 C 329.7671,614.06227 331,612.31737 331,611.58198 c 0,-4.85211 -8.79442,-4.18219 -10.11906,0.77082 -1.58963,5.94383 2.47438,7.65481 7.37928,3.10673 z M 250.75,629.9199 c -3.79521,-2.21051 -0.8351,-7.06902 3.07244,-5.04288 1.02555,0.53177 6.34153,0.15453 13.67756,-0.97059 6.6,-1.01224 14.23393,-1.85528 16.96429,-1.87343 4.48126,-0.0298 4.81365,0.11763 3.41617,1.51511 -0.92886,0.92886 -7.85036,2.72887 -17.30368,4.5 -17.62605,3.30233 -17.40631,3.28159 -19.82678,1.87179 z M 36.912452,624.71998 c -4.6737,-3.1496 -6.067191,-6.23567 -5.623739,-12.45448 C 31.712596,606.32111 34.020528,603 37.727568,603 h 2.417592 l -2.07258,2.63486 c -2.879649,3.66088 -2.589869,4.9172 0.562279,2.43772 3.044893,-2.39511 7.9839,-2.67654 12.662883,-0.72154 C 54.942903,608.87409 61,615.27282 61,617.60054 c 0,7.71707 -16.127411,12.48378 -24.087548,7.11944 z m 15.739419,-4.35907 c 2.801007,-1.32917 3.396837,-2.12667 3.15113,-4.2177 -0.619442,-5.2716 -11.477559,-9.28319 -15.864972,-5.86141 -2.271557,1.77161 -3.143265,4.76598 -1.843406,6.33221 0.62102,0.74829 0.88479,1.99726 0.586154,2.77549 -0.298636,0.77823 -0.27398,1.68396 0.05479,2.01273 1.235307,1.23531 10.594482,0.53499 13.916303,-1.04132 z M 242.75,623.33674 c -2.01395,-0.5563 -2.45121,-5.29245 -0.5,-5.41569 0.6875,-0.0434 0.0125,-0.53092 -1.5,-1.08333 -1.58201,-0.5778 -2.75,-1.75407 -2.75,-2.76951 0,-1.45105 1.46799,-1.97026 8.25,-2.91795 11.37498,-1.58948 18.22886,-1.48312 19.71365,0.30594 1.5862,1.91125 0.39972,3.70558 -2.30916,3.49216 -6.66088,-0.52478 -11.50683,0.18898 -13.59828,2.00289 l -2.24981,1.95125 6.8468,-0.66456 c 11.00577,-1.06823 13.8468,-0.92028 13.8468,0.72111 0,0.98287 -1.95573,1.85083 -5.99246,2.65947 -7.44642,1.49168 -17.43342,2.3602 -19.75754,1.71822 z M 110,619.02568 c 0,-2.41261 2.77347,-3.8938 14.23396,-7.6017 5.52209,-1.78661 8.28018,-3.12496 7.5,-3.63934 C 131.05528,607.33718 126,607.00466 120.5,607.04571 c -12.7821,0.0954 -12.5,0.11701 -12.5,-0.95781 0,-2.36281 27.96996,-3.24471 32.13927,-1.01336 4.08539,2.18643 1.70288,4.22335 -7.64177,6.5333 -14.03392,3.46912 -14.83856,4.06887 -4.85896,3.62169 6.84213,-0.30659 9.31722,-0.0515 10.86146,1.11938 3.12517,2.36958 0.84331,3.86078 -3.90263,2.55036 -2.96736,-0.81932 -5.43659,-0.70092 -10.84256,0.5199 C 113.89795,621.64513 110,621.53362 110,619.02568 Z m 43.16008,-70.2656 c -1.93248,-1.93248 -1.31687,-5.15288 1.79355,-9.38239 3.81809,-5.1918 3.27833,-8.37769 -1.41938,-8.37769 -1.77787,0 -6.67539,-0.29103 -10.88337,-0.64674 C 135.18694,529.72233 135,529.76163 135,531.96167 c 0,1.93296 0.37384,2.16132 2.61666,1.59841 7.71518,-1.93639 8.38334,-1.90958 8.38334,0.33636 0,2.26045 -1.41066,3.07351 -8.75,5.04323 -2.3375,0.62734 -4.25,1.57255 -4.25,2.10047 0,1.50478 8.18608,1.11126 11.36431,-0.5463 3.91044,-2.03944 4.43557,-1.89781 3.8731,1.04456 -0.65348,3.41845 -4.9515,5.46503 -11.43775,5.44629 -7.00349,-0.0202 -8.13319,-0.87414 -8.13207,-6.14671 0.001,-4.97956 3.76705,-17.12389 5.84495,-18.84839 1.59181,-1.32108 3.48746,-0.52616 3.48746,1.46244 0,1.85819 1.88979,2.40859 10.82993,3.15416 6.10701,0.50931 8.43589,0.30771 10.84663,-0.93893 3.34733,-1.73098 4.32344,-1.3683 4.32344,1.6064 0,1.46148 0.43187,1.75879 1.75,1.20473 7.27212,-3.05672 8.35994,-0.44027 2.05922,4.95291 -4.36822,3.73904 -4.32307,5.70182 0.13692,5.95204 2.65257,0.14881 3.05134,1.58489 0.8293,2.98651 -1.25802,0.79354 -2.59669,0.75864 -4.94833,-0.12901 -2.87512,-1.08523 -3.47268,-0.98298 -5.52544,0.94548 -1.26592,1.18927 -2.30167,2.95731 -2.30167,3.92898 0,2.30744 -1.37874,3.10596 -2.83992,1.64478 z m -38.59237,-4.65052 c -0.33857,-0.54781 -0.76662,-3.01358 -0.95123,-5.47949 -0.23114,-3.08749 -1.31346,-5.81308 -3.47606,-8.75377 -4.24582,-5.77342 -4.03295,-7.23651 1.4262,-9.80261 5.57434,-2.62025 19.71841,-4.03955 20.91773,-2.09902 1.13199,1.8316 -0.88418,2.68008 -7.93245,3.33825 -5.69146,0.53148 -13.5617,3.21717 -13.54531,4.62229 0.004,0.31064 0.90066,1.91479 1.99341,3.56479 l 1.98682,3 0.007,-2.69098 c 0.007,-2.89009 1.63406,-4.58155 3.04741,-3.1682 1.24636,1.24636 -0.29191,17.61539 -1.69918,18.08127 -0.6371,0.21092 -1.43537,-0.0647 -1.77393,-0.61253 z m 66.93001,-4.11673 c -0.35037,-1.10395 0.0693,-3.42308 0.93262,-5.15364 2.14427,-4.29829 2.01779,-5.03567 -1.43034,-8.33919 -4.02069,-3.85207 -3.93303,-6.87003 0.25,-8.60655 3.57944,-1.48595 19.04358,-1.88642 22.25,-0.5762 1.87983,0.76814 1.8931,0.87726 0.22084,1.81601 -0.97853,0.54931 -4.80353,1.22619 -8.5,1.50417 C 187.9473,521.18441 182,522.67684 182,523.95511 c 0,0.44 0.675,1.3602 1.5,2.04489 0.825,0.68469 1.5,1.86479 1.5,2.62244 0,1.85312 1.01667,1.73702 2.49515,-0.28492 1.42115,-1.94354 4.50485,-1.16334 4.50485,1.13975 0,0.84703 -1.35,3.40367 -3,5.68143 -1.65,2.27776 -3,4.74886 -3,5.49134 0,2.12729 -3.7943,1.57342 -4.50228,-0.65721 z M 270.5901,478.82517 C 269.71554,477.57657 269,475.69659 269,474.64744 c 0,-1.66086 -0.56512,-1.84385 -4.36999,-1.41498 -2.4035,0.27091 -5.1035,0.0821 -6,-0.41964 -2.74957,-1.53874 -1.93188,-4.45756 1.61999,-5.78269 7.20969,-2.68979 7.75,-3.03898 7.75,-5.00869 0,-1.11179 0.6382,-2.02144 1.41821,-2.02144 0.78002,0 2.13002,-0.27314 3,-0.60699 1.00634,-0.38617 1.58179,-0.0648 1.58179,0.88337 0,0.8197 0.92697,1.73277 2.05994,2.02904 1.77747,0.46482 1.96612,1.03874 1.37579,4.18549 -0.57005,3.03861 -0.32989,3.89492 1.44006,5.13465 1.16832,0.81831 2.12421,2.36233 2.12421,3.43114 0,2.31671 -1.28341,2.51166 -2.99086,0.45431 C 276.51948,473.71609 275,474.43593 275,476.93657 c 0,1.0002 -0.63446,2.34509 -1.4099,2.98866 -1.11846,0.92823 -1.73861,0.70083 -3,-1.10006 z m 50.87658,0.77412 c -1.17364,-0.85818 -3.18426,-1.19482 -5.19113,-0.86915 -3.13017,0.50795 -3.27555,0.38925 -3.27555,-2.67466 0,-3.01734 -0.19145,-3.18705 -3.25,-2.88085 -2.89174,0.2895 -3.28465,0.0247 -3.56429,-2.40253 -0.28771,-2.49721 0.0367,-2.78403 3.83569,-3.39151 2.28248,-0.36499 4.38456,-1.27493 4.67128,-2.0221 0.7802,-2.03318 3.0012,-1.63708 3.59707,0.64151 0.76608,2.92951 4.34792,2.57979 5.12089,-0.5 0.34511,-1.375 0.97933,-2.5 1.40939,-2.5 1.07037,0 3.57508,14.52798 2.83653,16.45261 -0.73937,1.92675 -3.66081,1.99598 -6.18988,0.14668 z M 52,478 c -1.1,-1.1 -2.81,-2 -3.8,-2 -0.99,0 -2.34,-0.54 -3,-1.2 -2.535589,-2.53559 -0.571963,-7.18352 2.098517,-4.96722 0.884374,0.73397 1.74078,-0.0844 3.175877,-3.03479 2.343188,-4.81734 5.225391,-6.93268 8.572225,-6.29142 2.629586,0.50383 5.198946,3.24748 4.638351,4.95299 -0.188093,0.57224 -2.331659,2.55399 -4.763479,4.40388 -6.127855,4.66148 -6.191477,5.58248 -0.330138,4.77909 4.874841,-0.66817 7.298076,-2.13773 7.82445,-4.74509 0.155163,-0.76859 0.618254,-2.29744 1.02909,-3.39744 0.410836,-1.1 0.929041,-2.59992 1.151567,-3.33316 0.222525,-0.73323 0.966855,-1.14858 1.654066,-0.92299 1.671954,0.54886 2.142898,6.09713 0.760532,8.95994 -0.752243,1.55787 -0.128408,1.18293 1.940088,-1.16602 C 74.628016,468.13355 76,466.05115 76,465.41022 c 0,-0.64093 0.656459,-1.71014 1.458799,-2.37603 1.197264,-0.99364 1.565767,-0.78449 2.055458,1.16659 0.726153,2.89323 -0.812505,7.19039 -4.133761,11.54479 -2.714479,3.55886 -4.462474,4.0296 -6.69036,1.80171 -1.270295,-1.2703 -1.933694,-1.20751 -5.282871,0.5 C 58.507081,480.54553 54.529047,480.52905 52,478 Z m 40.569328,0.0766 c -1.369382,-1.51315 -1.61338,-2.85639 -1.085944,-5.97826 0.484858,-2.86985 0.248209,-4.64347 -0.823769,-6.17393 -1.47497,-2.10581 -1.52479,-2.07267 -2.576258,1.71412 -0.589712,2.1238 -1.074713,4.8474 -1.07778,6.05244 -0.0069,2.72581 -1.654036,3.84566 -3.456297,2.34992 -1.041242,-0.86416 -1.136691,-2.00609 -0.404225,-4.83609 1.609301,-6.21779 3.034832,-9.2048 4.392932,-9.2048 0.71244,0 1.529577,-0.5625 1.815858,-1.25 0.370188,-0.889 0.967265,-0.69568 2.06743,0.66938 1.514517,1.87918 1.59042,1.88001 3.623871,0.0398 1.379487,-1.24841 2.308311,-1.51538 2.765904,-0.79498 1.231565,1.93889 9.94662,3.22301 13.81543,2.03564 4.57492,-1.40408 5.56339,0.0701 3.69101,5.50472 -0.76757,2.22789 -1.16706,4.27925 -0.88774,4.55856 1.03228,1.03228 5.43541,-2.78936 5.74747,-4.98845 0.44083,-3.10657 4.20179,-3.12652 4.64233,-0.0246 0.38824,2.73361 1.87817,2.82201 5.15284,0.30572 2.45069,-1.88314 2.45727,-1.93151 0.75,-5.51169 -2.05661,-4.31276 -2.08093,-4.54624 -0.47239,-4.53633 2.03952,0.0126 5.99994,7.86033 5.32462,10.551 -0.71714,2.85732 -8.52752,7.70856 -11.79191,7.32429 -1.25549,-0.14779 -3.7167,0.48989 -5.46936,1.41707 -1.75266,0.92718 -3.82921,1.43922 -4.61455,1.13785 C 112.01234,477.79076 110,473.71855 110,470.95295 110,469.43473 109.30838,469 106.89301,469 c -2.38196,0 -2.96958,0.35808 -2.51815,1.53449 0.69576,1.81313 -4.852631,8.02069 -7.957079,8.9024 -1.360858,0.3865 -2.694111,-0.0847 -3.848453,-1.36028 z m 8.950182,-6.89044 C 100.83393,470.5006 95,473.11262 95,474.10514 c 0,0.47438 1.569349,0.11413 3.487443,-0.80054 1.918097,-0.91468 3.282527,-1.86797 3.032067,-2.11843 z m 192.51567,6.87957 C 293.46583,477.0019 293,475.4269 293,474.56574 293,473.44864 292.01578,473 289.5651,473 284.60698,473 281,471.37856 281,469.14975 281,467.01004 284.40716,466 291.625,466 c 2.40625,0 4.375,-0.38123 4.375,-0.84719 0,-0.46595 1.00454,-1.29542 2.2323,-1.84326 2.08614,-0.93086 2.40907,-0.54175 4.93198,5.94267 3.17053,8.14896 2.80717,11.86208 -0.80714,8.24778 -2.02605,-2.02605 -3.09957,-1.88689 -3.85714,0.5 -0.80696,2.54249 -3.12106,2.57657 -4.46482,0.0657 z M 32.448629,475.65134 C 31.722049,472.75642 34.774892,458 36.100381,458 36.595171,458 37,458.84975 37,459.88834 c 0,1.81044 0.24893,1.82563 6.034826,0.36816 8.98137,-2.26242 9.539879,-0.10163 1.081591,4.18451 -5.99038,3.03555 -6.89166,4.15578 -7.291904,9.06335 -0.388533,4.76399 -3.353896,6.21891 -4.375884,2.14698 z M 16.680151,441 C 15.525699,429.66308 13.853938,290.84573 14.464261,257 15.392337,205.53305 15.425087,68.311204 14.514081,48.25 L 13.685325,30 h 2.536191 2.536191 l 0.847525,15.75 c 0.466138,8.6625 0.633154,60.975 0.371146,116.25 -0.527069,111.19406 -0.299358,197.32226 0.63072,238.56085 l 0.61032,27.06085 2.891291,-0.42435 C 26.905164,426.78692 28.078478,428.21543 26,429.5 c -1.826502,1.12884 -1.042792,2.37448 3.430175,5.45196 4.013981,2.76169 5.166947,3.04804 12.272719,3.04804 4.3134,0 18.857321,-0.90268 32.319825,-2.00596 C 103.83425,433.55093 152,432.1688 152,433.75646 c 0,1.92896 -9.79974,3.24322 -24.29922,3.25882 -7.81043,0.008 -25.22578,0.91757 -38.70078,2.02039 -13.475,1.10281 -31.401418,2.48017 -39.836483,3.06079 l -15.336484,1.05568 -3.97479,-2.75454 c -2.186134,-1.51499 -5.072817,-4.05946 -6.414851,-5.65437 -2.73913,-3.25528 -2.648434,-3.37584 -4.706544,6.25677 l -1.388794,6.5 z M 233,443.00291 c -9.075,-0.2766 -17.04584,-0.85667 -17.71297,-1.28904 -1.96294,-1.27219 -3.27548,-7.65752 -3.28145,-15.96387 L 212,418 h -3.89301 c -2.68868,0 -4.08807,-0.50831 -4.52354,-1.64313 -0.34679,-0.90372 -0.35672,-1.91622 -0.0221,-2.25 0.33464,-0.33378 18.90774,-0.58542 41.27353,-0.5592 39.62851,0.0465 41.08532,0.118 57.15055,2.80634 9.067,1.51726 17.84848,2.64122 19.5144,2.4977 6.05872,-0.52199 6.92448,1.93174 2.91986,8.27547 -3.19197,5.0564 -4.28734,10.70988 -2.3168,11.95759 0.76839,0.48653 3.53458,0.8915 6.14708,0.89992 4.87751,0.0157 6.51673,1.61479 2.5,2.43876 -3.42386,0.70235 -79.01609,1.15046 -97.75,0.57946 z M 310.96287,439 h 6.71286 l 0.16837,-4.4513 c 0.0926,-2.44821 0.61556,-5.6275 1.16213,-7.0651 1.47595,-3.88202 1.25521,-4.4836 -1.64514,-4.4836 -1.4514,0 -7.8639,-0.88148 -14.25,-1.95884 -22.51935,-3.79912 -41.68745,-4.70444 -71.7021,-3.38652 l -14.90899,0.65465 -0.27188,8.70475 c -0.2106,6.7427 0.0643,8.98372 1.21944,9.94244 1.09352,0.90754 12.10246,1.44361 41.27188,2.00968 21.87931,0.4246 41.07431,0.60591 42.65556,0.40292 1.58125,-0.203 5.89579,-0.36908 9.58787,-0.36908 z M 161.5789,435.2486 c -0.54673,-1.72259 0.37183,-7.85645 1.92546,-12.85765 0.55113,-1.77411 0.14624,-2.21083 -2.54959,-2.75 -1.76262,-0.35252 -6.63602,-0.6499 -10.82977,-0.66083 -4.19375,-0.0109 -13.7,-0.67699 -21.125,-1.48012 -18.84307,-2.03818 -68.027749,-2.01709 -81.5,0.0349 C 37.616341,419.04039 33,418.87008 33,417 c 0,-1.1784 1.649311,-1.55807 15.128338,-3.48254 12.245358,-1.74833 61.708952,-2.03044 75.871662,-0.43272 4.675,0.5274 16.49418,1.23487 26.26485,1.57216 17.71327,0.61149 17.76661,0.62026 18.3693,3.02156 0.33244,1.32456 -0.11295,4.30127 -0.98976,6.61491 -0.87681,2.31365 -1.95626,5.97355 -2.39879,8.13313 -0.88335,4.31089 -2.74051,5.74027 -3.6667,2.8221 z M 27.586443,402.68687 c -1.722316,-1.25939 -1.711199,-1.61752 0.271616,-8.75 1.137087,-4.09028 2.172536,-9.3555 2.300997,-11.70049 0.396879,-7.24478 -2.24554,-6.76941 49.430923,-8.89275 13.917092,-0.57184 15.143477,-0.48061 15.77827,1.17363 0.447128,1.16519 -0.04739,2.57675 -1.411368,4.02864 -2.938236,3.12761 -4.353727,13.44343 -2.073438,15.11082 0.887377,0.64887 1.312203,1.48097 0.944059,1.84911 -1.245924,1.24593 -20.240981,3.29241 -36.730588,3.95728 -12.593565,0.50778 -17.586816,1.11129 -21.5,2.59863 -2.803303,1.06549 -5.123406,1.93748 -5.155784,1.93776 -0.03238,2.7e-4 -0.866988,-0.59041 -1.854687,-1.31263 z M 59,394.84987 c 12.925,-0.51337 24.445778,-1.13144 25.601729,-1.37348 1.841744,-0.38563 2.182072,-1.39053 2.75123,-8.12366 0.357226,-4.22598 0.411883,-7.92122 0.12146,-8.21164 -0.290424,-0.29043 -10.978477,0.0272 -23.751231,0.70572 -12.772753,0.67857 -24.755659,0.92039 -26.628679,0.53738 -2.383972,-0.4875 -3.200013,-0.36392 -2.720477,0.41199 0.65769,1.06416 -0.390323,9.52415 -1.934771,15.61824 -0.657313,2.59364 -0.529514,2.82937 1.161063,2.14164 C 34.645146,396.13103 46.075,395.36324 59,394.84987 Z m 74.25,3.03457 c -1.78337,-1.83251 -1.54815,-3.93817 0.70824,-6.33999 C 135.69947,389.69099 141,377.30813 141,375.0938 c 0,-0.47329 -0.9356,-1.1052 -2.07911,-1.40424 -1.49453,-0.39083 -1.98657,-1.19682 -1.75,-2.86663 0.26267,-1.85401 0.86711,-2.26751 2.99426,-2.04838 2.24316,0.23108 2.77034,-0.20435 3.32946,-2.75 0.84578,-3.85083 2.36354,-3.86061 3.81149,-0.0245 1.05854,2.8044 1.47197,3 6.34078,3 2.86462,0 8.50346,-0.43394 12.53076,-0.96431 4.0273,-0.53038 16.09736,-1.43727 26.82236,-2.01533 10.725,-0.57806 21.5956,-1.30558 24.15689,-1.61672 4.1059,-0.49877 4.73531,-0.31863 5.31967,1.5225 0.37028,1.16664 0.0267,3.29866 -0.77854,4.83103 -6.40847,12.19537 -7.83005,15.20366 -8.73891,18.49283 -0.733,2.65272 -1.59174,3.75 -2.93478,3.75 -1.62567,0 -1.81901,-0.53906 -1.34503,-3.75 0.30446,-2.0625 2.11195,-7.05172 4.01664,-11.08716 1.90468,-4.03544 3.26007,-7.54016 3.01197,-7.78826 -0.65782,-0.65783 -41.64024,1.48316 -49.51171,2.58656 -3.68291,0.51627 -9.72228,1.03176 -13.42082,1.14554 l -6.72461,0.20687 -1.61243,5.59323 c -0.88684,3.07627 -2.30717,7.07181 -3.15629,8.87898 -0.84913,1.80716 -1.36079,3.46883 -1.13703,3.69259 0.22376,0.22376 6.69517,-0.86373 14.38091,-2.41665 7.68574,-1.55292 18.47514,-3.31305 23.97646,-3.91139 9.89087,-1.07577 27.84037,-0.51393 27.00042,0.84515 -0.23891,0.38656 -3.93727,0.97595 -8.21859,1.30977 -10.42907,0.81317 -31.03756,4.22335 -44.12685,7.30186 -14.42102,3.39173 -18.3819,3.84485 -19.90737,2.27735 z m 127.25,-4.75678 c -5.48107,-1.44896 -9.45305,-4.09241 -10.11558,-6.73215 -0.40671,-1.62046 0.32596,-5.51386 1.98551,-10.55098 C 253.81647,371.45395 255,365.64279 255,362.93083 255,359.08579 255.35092,358 256.59362,358 c 0.87649,0 1.81588,0.84994 2.08754,1.88876 0.6005,2.29632 -0.24799,2.22909 26.81884,2.12488 12.1,-0.0466 25.00274,0.41608 28.67275,1.02815 6.13371,1.02295 6.80016,1.38136 8.25,4.43666 1.94423,4.09716 1.99104,8.05934 0.18166,15.37721 -0.76758,3.10438 -1.68348,6.91105 -2.03535,8.45926 -0.4982,2.19209 -1.12977,2.74513 -2.85441,2.49951 -2.52494,-0.35959 -2.52556,-0.30485 0.13262,-11.59484 1.07227,-4.55423 1.70878,-9.20125 1.41446,-10.32672 -0.97854,-3.74197 -4.69532,-4.31298 -29.26173,-4.49547 -14.45972,-0.10741 -24.58295,-0.60212 -26.3151,-1.28599 -4.13589,-1.63286 -4.6849,-1.41688 -4.6849,1.8431 0,1.62498 -1.10291,5.99299 -2.45091,9.70669 -1.72583,4.75462 -2.14686,7.11853 -1.42315,7.99054 2.09672,2.5264 11.3429,3.558 21.12826,2.3573 10.80591,-1.32592 32.7891,-0.99566 32.67967,0.49096 -0.0405,0.55 -7.35467,1.76956 -16.25374,2.71014 -23.53326,2.48731 -28.83069,2.80297 -32.18013,1.91752 z M 42.143237,364.1911 c -0.746219,-0.51761 -0.970011,-1.18013 -0.497314,-1.47227 1.249257,-0.77208 20.383616,-2.4691 47.854077,-4.24417 31.84861,-2.05796 62.3595,-4.25625 76.5,-5.51178 46.60662,-4.13816 109.5703,-3.71573 114,0.76484 1.3406,1.356 -1.10351,1.4582 -23,0.96178 -13.475,-0.3055 -35.075,-0.16667 -48,0.30851 -21.11843,0.77639 -85.2645,5.21352 -116.5,8.05857 -17.073034,1.55507 -48.722472,2.26812 -50.356763,1.13452 z M 292.75,353.27342 c -4.8125,-0.19321 -8.74828,-0.67127 -8.74617,-1.06235 0.002,-0.39109 6.52711,-0.86087 14.5,-1.04396 9.94211,-0.22831 14.49617,0.007 14.49617,0.75 0,0.59559 -1.6875,1.08903 -3.75,1.09654 -2.0625,0.008 -4.65,0.14807 -5.75,0.31235 -1.1,0.16428 -5.9375,0.14062 -10.75,-0.0526 z M 159.23575,330.65184 c 0.73943,-9.2118 2.2523,-11.67569 8.22967,-13.40306 4.7774,-1.38059 5.033,-1.35148 6.75,0.76893 2.79297,3.44916 2.28498,6.67216 -1.3477,8.55069 -1.72275,0.89088 -4.39184,1.43491 -5.9313,1.20896 -3.02095,-0.44338 -3.89559,0.9998 -3.92277,6.47264 -0.0106,2.1378 -0.48936,2.75 -2.15056,2.75 -2.01165,0 -2.10704,-0.37212 -1.62734,-6.34816 z M 170,322 c 1.21948,-0.78809 1.09025,-0.97224 -0.69098,-0.98469 -1.20504,-0.008 -2.4691,0.43469 -2.80902,0.98469 -0.78687,1.27319 1.52988,1.27319 3.5,0 z m -91.964959,12.06547 c -0.62496,-1.16774 -0.696943,-2.85229 -0.18161,-4.25 2.188626,-5.93605 2.198666,-7.56858 0.05,-8.13047 -2.671838,-0.6987 -2.159355,-4.185 0.615191,-4.185 1.089756,0 2.603129,-0.40068 3.363051,-0.8904 0.931336,-0.60018 1.680893,-0.35573 2.29969,0.75 0.537681,0.96078 2.2439,1.66666 4.118323,1.70379 3.077429,0.0609 3.107409,0.10052 0.780794,1.03048 -3.22341,1.28842 -1.321503,3.25571 2.274871,2.35308 C 93.112079,322.00604 94,321.1117 94,319.78318 c 0,-1.71686 0.389306,-1.8822 2.75,-1.16791 3.148092,0.95253 11.05257,0.8964 16.38189,-0.11633 2.14811,-0.40821 3.88817,-0.2755 4.25919,0.32482 0.925,1.49669 -2.18047,4.17624 -4.84006,4.17624 -1.26837,0 -2.8191,0.61809 -3.44606,1.37353 -0.89343,1.07652 -0.59555,1.73023 1.37755,3.02306 4.80849,3.15064 2.62347,7.37712 -4.29349,8.30488 -3.11006,0.41715 -4.0264,0.16469 -4.57309,-1.25994 -0.73813,-1.92354 0.79586,-3.40095 3.55743,-3.42622 1.54466,-0.0141 1.55205,-0.26525 0.0961,-3.26531 -0.86749,-1.7875 -1.69446,-3.39896 -1.83771,-3.58102 C 102.66502,323.19453 99,326.35426 99,327.98973 c 0,2.28515 -4.701451,7.2738 -6.346591,6.73429 -0.634375,-0.20804 -1.285257,-1.69355 -1.446404,-3.30114 -0.547479,-5.46157 -1.240056,-6.15824 -2.905712,-2.92288 -3.59735,6.98748 -8.176631,9.46997 -10.266252,5.56547 z m 7.420423,-7.81001 c 0.335556,-0.87444 0.201255,-1.99874 -0.298445,-2.49844 -0.544728,-0.54473 -1.32963,0.29937 -1.960099,2.10794 -0.846234,2.42751 -0.787961,2.91534 0.298444,2.49845 0.742499,-0.28493 1.624544,-1.2335 1.9601,-2.10795 z m 46.336216,6.0036 -1.10988,-2.94042 -4.36919,2.44199 c -7.18249,4.01437 -12.29529,1.15256 -10.30972,-5.77069 1.15816,-4.03828 3.7311,-6.98994 6.09308,-6.98994 1.94988,0 3.82855,2.18182 2.33108,2.70724 -2.29125,0.80393 -3.31932,2.01535 -3.99501,4.70751 l -0.72653,2.89472 3.89725,-0.77035 c 2.14348,-0.4237 4.90974,-0.83083 6.14724,-0.90474 1.2375,-0.0739 2.25251,-0.58438 2.25558,-1.13438 0.0203,-3.64698 2.29099,-8.3141 4.54454,-9.34088 8.06283,-3.67368 14.24903,1.70731 7.79722,6.7823 -3.5143,2.76435 -2.82362,3.10082 2.89085,1.40831 3.53123,-1.04588 5.13823,-2.17696 6.30866,-4.44032 3.41265,-6.59935 5.19585,-0.35854 2.16888,7.59059 -1.69739,4.45751 -4.71573,6.0361 -4.71573,2.46634 0,-1.68315 -0.39905,-2.01672 -1.75,-1.46285 -0.9625,0.3946 -3.73248,0.95916 -6.1555,1.25457 -3.52655,0.42994 -4.67375,0.17025 -5.75,-1.30161 -1.29644,-1.77299 -1.34862,-1.76933 -1.45985,0.10242 -0.25121,4.22744 -0.43149,4.78467 -1.68387,5.20478 -0.74344,0.24939 -1.774,-0.82202 -2.4091,-2.50459 z m 49.38929,1.09984 c -0.57982,-1.03608 -0.63143,-2.67411 -0.12613,-4.00315 0.6811,-1.79141 0.45713,-2.37587 -1.09979,-2.87002 C 178.74466,326.10157 178,324.96893 178,323.51207 c 0,-1.7917 0.70259,-2.50747 2.94466,-2.99992 2.19834,-0.48283 3.22439,-1.49435 4.04837,-3.99102 1.85649,-5.62522 6.17345,-5.08977 4.69032,0.58176 -0.51112,1.95451 -0.19519,2.05368 5.52735,1.73505 7.5417,-0.41991 9.01799,1.05301 6.45946,6.44472 -0.91859,1.93578 -1.67016,4.18399 -1.67016,4.99602 0,1.99949 -2.63937,4.06223 -4.06803,3.17928 -0.76995,-0.47586 -0.93995,-2.34018 -0.50936,-5.58609 L 196.06889,323 l -3.28445,0.0153 c -4.53576,0.0211 -5.34017,0.76523 -6.9243,6.40501 -1.49735,5.33081 -3.13066,6.7056 -4.67917,3.93858 z m 25.223,0.87579 c -2.38084,-1.59592 -2.34902,-5.73292 0.0769,-10.00388 2.20227,-3.87716 2.25105,-4.23081 0.58357,-4.23081 -2.20727,0 -4.48414,-2.51195 -3.58927,-3.95987 0.6879,-1.11304 5.37021,-0.38199 6.9748,1.08898 0.5225,0.47899 2.63344,0.87089 4.69098,0.87089 2.05754,0 4.0191,0.45 4.35902,1 0.33992,0.55 1.60398,1.01368 2.80902,1.03041 1.96902,0.0273 2.01369,0.13367 0.44098,1.04969 -0.98986,0.57654 -1.75,2.20414 -1.75,3.74708 0,3.63022 -2.18061,6.55611 -6.36652,8.54246 -3.68814,1.75013 -6.47249,2.04281 -8.22951,0.86505 z m 7.64569,-6.76037 c 3.20363,-1.65666 3.74043,-2.95716 1.56515,-3.79189 -0.76185,-0.29235 -2.64604,0.78451 -4.18709,2.39301 -3.0673,3.20158 -1.9829,3.78014 2.62194,1.39888 z m 19.66762,4.60153 -2.46051,-2.92415 -1.29736,2.42415 c -1.44032,2.69126 -4.43631,3.2297 -5.3095,0.95422 -0.31023,-0.80846 0.39277,-3.77234 1.56224,-6.5864 1.63495,-3.93411 1.83904,-5.294 0.88319,-5.88475 -0.94885,-0.58642 -0.84182,-1.16959 0.45215,-2.46355 2.68128,-2.68128 4.82167,-1.51899 6.28558,3.41323 2.36431,7.96588 2.17519,7.72346 4.00286,5.13109 3.28179,-4.65489 6.10728,-7.13969 8.11862,-7.13969 2.73436,0 2.67861,3.12776 -0.0997,5.59501 -1.17985,1.04775 -3.00091,3.81749 -4.04679,6.15499 -2.28459,5.10591 -4.59189,5.48402 -8.09075,1.32585 z M 44.529651,292.04798 C 43.694663,290.69694 44.747292,289 46.420345,289 c 0.832867,0 1.138098,-0.85903 0.846758,-2.38307 -0.711657,-3.72279 2.657733,-17.23893 4.775115,-19.15514 2.713298,-2.4555 6.868223,-1.15932 8.280918,2.58334 0.697325,1.84742 1.828636,2.95487 3.018546,2.95487 1.6016,0 1.700352,-0.24443 0.623144,-1.54238 -0.924125,-1.1135 -0.976863,-1.84558 -0.189662,-2.63278 C 65.55825,267.04175 68,268.69832 68,271.69112 v 2.75389 l 1.556704,-2.2225 C 71.507754,269.43699 76,269.16995 76,271.83948 c 0,1.01172 -1.125,2.35207 -2.5,2.97857 -1.375,0.62649 -2.5,1.82372 -2.5,2.66051 0,2.16155 0.997819,1.89771 4.114021,-1.0878 3.072827,-2.94395 5.306862,-2.3728 4.627132,1.18298 -0.385299,2.01556 -0.190744,2.20206 1.40583,1.3476 C 82.483589,278.20601 83,276.7989 83,273.87227 v -4.05737 l 5.25,0.51184 c 2.8875,0.28151 8.082768,1.06349 11.545039,1.73774 5.030351,0.97962 7.068191,0.97075 10.143421,-0.0442 2.11661,-0.69854 4.34634,-0.96233 4.95496,-0.58618 1.79307,1.10818 1.26865,3.37965 -0.94226,4.08137 -1.79082,0.56838 -1.96775,1.19104 -1.40495,4.94411 0.56222,3.7491 0.34989,4.49976 -1.67366,5.91711 C 108.00047,288.3884 105,288.48036 105,286.5567 c 0,-0.79381 0.91226,-2.08226 2.02725,-2.86323 1.76251,-1.23451 1.8787,-1.79692 0.88973,-4.30671 l -1.13751,-2.88676 -1.40857,3.95559 c -0.77471,2.17558 -2.37853,4.98808 -3.56404,6.25 L 99.651372,289 l 4.924318,0.11515 c 2.70837,0.0633 5.82431,0.0244 6.92431,-0.0865 1.65171,-0.16651 1.77368,0.0311 0.70036,1.13484 -1.0178,1.04663 -7.48039,1.3677 -29.800699,1.48052 -15.675584,0.0792 -30.463346,0.43832 -32.861694,0.79798 -2.668969,0.40023 -4.611894,0.24736 -5.008316,-0.39406 z m 51.408888,-5.16282 c -1.122982,-2.09831 -0.911003,-5.77268 0.527021,-9.13516 0.502529,-1.17505 0.302586,-1.74885 -0.608571,-1.7465 -0.746344,0.002 -2.691205,2.47692 -4.321914,5.5 -1.630709,3.02307 -3.495064,5.4965 -4.143011,5.4965 -1.500371,0 -2.754247,-3.15027 -1.560268,-3.92005 0.494745,-0.31897 1.869132,-2.49245 3.054194,-4.82995 1.706082,-3.3652 1.85517,-4.25 0.716121,-4.25 -0.791195,0 -2.061626,-0.2391 -2.823181,-0.53134 -1.052839,-0.40401 -1.290463,0.2754 -0.991617,2.83523 0.326997,2.80097 -0.13903,3.81427 -2.773868,6.03134 -3.651457,3.0725 -4.7152,3.24465 -7.041322,1.13954 -1.452305,-1.31432 -1.848551,-1.32859 -2.865508,-0.10323 -1.788294,2.15476 -5.01056,0.77847 -5.860959,-2.50333 l -0.750847,-2.89761 -1.623477,4.5147 -1.623477,4.5147 7.626073,0.1307 C 75.068267,287.2026 81.875,287.57983 86,287.96901 c 4.125,0.38918 8.303333,0.78037 9.285184,0.8693 1.516732,0.13738 1.614982,-0.15633 0.653355,-1.95315 z M 59.5,287.15032 c 1.649903,-0.53648 2.05732,-1.69704 2.327451,-6.62991 l 0.32745,-5.9796 -2.59235,2.7972 c -1.634342,1.76348 -3.389389,2.67982 -4.749122,2.47959 -3.23899,-0.47696 -3.160315,-2.11235 0.193444,-4.02109 C 58.431757,273.84729 59.17219,270 56.122445,270 c -1.032656,0 -2.335769,0.5625 -2.895808,1.25 C 52.438437,272.21759 50,284.45388 50,287.44155 c 0,0.74396 6.973878,0.53016 9.5,-0.29123 z m 43.44444,-8.5246 c -0.24444,-0.23641 -1.29676,0.76359 -2.33849,2.22222 L 98.711904,283.5 101.0504,281.27778 c 1.28617,-1.22222 2.13849,-2.41565 1.89404,-2.65206 z M 225.5,290.78436 c -1.1,-0.63515 -2.65494,-1.80676 -3.45543,-2.60359 -1.17053,-1.16518 -3.42181,-1.32164 -11.50096,-0.79931 -5.52504,0.3572 -12.74509,1.0747 -16.04457,1.59445 -9.52313,1.50012 -25.83209,2.09659 -27.49904,1.00571 -1.33333,-0.87255 -1.33333,-1.09103 0,-1.96631 0.825,-0.54158 3.17137,-0.99158 5.21416,-1 2.04278,-0.008 8.21316,-0.5269 13.71193,-1.15217 8.99748,-1.02312 9.90506,-1.31012 9.07103,-2.86852 -0.50971,-0.95241 -0.60509,-2.06839 -0.21194,-2.47995 0.39315,-0.41157 -0.6588,-0.4545 -2.33766,-0.0954 -3.91559,0.83749 -9.0339,-3.06896 -8.19984,-6.25837 0.31808,-1.21637 -0.0263,-2.2457 -0.85819,-2.56492 C 182.39808,271.21554 182,271.9033 182,273.9966 c 0,3.85369 -5.4564,10.2236 -8.39767,9.80361 -2.30472,-0.3291 -2.49832,-2.57495 -1.04959,-12.17601 l 0.73573,-4.87581 5.89312,0.53437 c 3.24122,0.2939 6.5212,1.05562 7.28884,1.69271 1.07739,0.89415 1.99486,0.76577 4.02262,-0.56287 2.43497,-1.59544 2.74676,-1.60135 4.26732,-0.0808 1.52056,1.52056 1.42945,1.86064 -1.24706,4.65431 -3.53819,3.69307 -2.10195,3.90257 3.00326,0.43808 2.28088,-1.54784 4.59481,-2.36682 5.79812,-2.05215 1.15101,0.301 3.048,-0.29877 4.46142,-1.41057 1.35243,-1.06382 2.85607,-1.68879 3.34143,-1.38883 1.33556,0.82543 1.05788,3.5752 -0.54012,5.34862 -0.78242,0.86831 -2.07636,3.48131 -2.87543,5.80667 l -1.45285,4.22794 7.2286,-0.19077 7.22861,-0.19076 -0.47202,-4.18771 c -0.34981,-3.10355 0.19063,-5.63512 2.08755,-9.77853 l 2.55956,-5.59083 -16.19072,0.55991 c -8.90489,0.30795 -22.26572,0.16015 -29.69072,-0.32844 -7.425,-0.48859 -13.61466,-0.81727 -13.75481,-0.7304 -0.14015,0.0869 0.17108,2.40367 0.69161,5.14843 0.52054,2.74477 0.62964,7.20511 0.24246,9.91186 -0.57338,4.00839 -1.07271,4.92137 -2.69162,4.92137 -1.83076,0 -1.96004,-0.56419 -1.63793,-7.14818 0.4024,-8.22531 -0.38161,-11.74542 -2.44005,-10.95553 -1.632,0.62626 -1.89416,-2.08649 -0.42486,-4.39629 0.77201,-1.21363 1.32485,-1.27034 2.89576,-0.29706 1.52074,0.9422 2.04411,0.93574 2.41462,-0.0298 0.36311,-0.94624 8.34358,-1.20875 34.33893,-1.12953 l 33.86589,0.1032 0.32014,2.18106 c 0.18555,1.26416 -0.32057,2.42692 -1.20392,2.7659 -1.94108,0.74486 -5.17694,6.20801 -6.71223,11.33234 -1.44257,4.81487 0.11676,9.63497 3.45356,10.67541 2.3273,0.72567 3.60308,2.18482 3.62714,4.14847 0.019,1.55283 -2.82405,1.57064 -5.48469,0.0344 z M 204,283.60699 c 0,-0.21616 -0.675,-0.65203 -1.5,-0.96862 -0.825,-0.31658 -1.5,-0.13972 -1.5,0.39301 0,0.53274 0.675,0.96862 1.5,0.96862 0.825,0 1.5,-0.17686 1.5,-0.39301 z M 177.68311,272.8125 c -0.31922,-0.79773 -0.55618,-0.56078 -0.60416,0.60417 -0.0434,1.05416 0.19292,1.64479 0.52522,1.3125 0.33229,-0.33229 0.36781,-1.1948 0.0789,-1.91667 z M 35.374998,284.38252 C 35.743549,280.59713 36.294345,273.45 36.598989,268.5 c 0.691353,-11.23342 0.860407,-11.80675 3.128317,-10.60937 3.245278,1.71339 42.965534,3.98998 52.772694,3.0247 8.99663,-0.88551 46.88911,-1.0022 49.25,-0.15167 2.03832,0.73432 1.44755,4.51935 -1.9287,12.35715 -3.59501,8.34565 -7.49582,14.19838 -8.88918,13.33724 -0.57847,-0.35751 -0.56041,-1.28407 0.0471,-2.41929 0.54156,-1.01192 2.55005,-6.16431 4.4633,-11.44975 l 3.47863,-9.60988 -17.21059,0.54794 c -9.46583,0.30136 -22.219729,1.02903 -28.341997,1.61704 -7.92354,0.761 -14.695793,0.75861 -23.5,-0.008 -6.802732,-0.59256 -16.017984,-1.29658 -20.47834,-1.56448 l -8.109736,-0.48709 -0.674039,7.70788 c -0.960099,10.97907 -2.872536,19.47684 -4.504035,20.01334 -1.147873,0.37747 -1.277835,-0.77 -0.727455,-6.42294 z m 227.804852,5.99501 c -4.05135,-1.81359 10.80843,-5.62975 26.77764,-6.87681 8.21132,-0.64124 8.80581,-0.8635 7.29262,-2.72655 -0.56919,-0.7008 -1.25612,-2.17417 -1.5265,-3.27417 -0.46694,-1.89963 -0.49743,-1.89323 -0.60761,0.12756 -0.12647,2.31962 -2.4023,4.7528 -3.45801,3.6971 -1.1312,-1.1312 -0.72384,-4.29544 0.98154,-7.62432 2.79845,-5.46253 5.39936,-6.07411 9.53265,-2.2415 l 2.65174,2.45883 1.6111,-2.45883 c 1.80941,-2.76152 4.70613,-3.19861 6.54155,-0.98708 0.98322,1.18472 0.79616,2.1599 -0.95912,5 C 310.81814,277.41229 309.19858,279 308.41844,279 307.6383,279 307,279.4132 307,279.91821 c 0,0.50502 -0.27314,1.63002 -0.60699,2.5 -0.50717,1.32167 0.2783,1.58179 4.77643,1.58179 h 5.38341 l -0.37113,-3.89169 c -0.32905,-3.45043 0.6784,-6.59436 4.61242,-14.39385 0.21792,-0.43205 -8.53411,-0.48186 -19.44896,-0.1107 -16.26971,0.55326 -21.73695,0.36948 -30.34518,-1.02002 -5.775,-0.93217 -11.31097,-1.78236 -12.30216,-1.8893 -1.62699,-0.17554 -1.84203,0.97204 -2.21219,11.80556 -0.22551,6.6 -0.42703,12.3375 -0.44783,12.75 -0.0208,0.4125 -0.70425,0.75 -1.51877,0.75 -2.15049,0 -2.55199,-3.01627 -2.25253,-16.92234 l 0.2675,-12.42233 2.68052,-0.89351 c 1.89329,-0.6311 5.55936,-0.24636 12.48299,1.31004 8.34859,1.87672 12.10139,2.15162 25.30247,1.85341 8.525,-0.19258 20.9,-0.36705 27.5,-0.38771 11.54466,-0.0361 12.01167,0.0443 12.30748,2.12036 0.24339,1.70805 -0.34745,2.30177 -2.83413,2.84793 -2.27487,0.49965 -3.94271,1.95322 -6.04529,5.26864 -4.0793,6.43239 -4.67206,10.46421 -2.0319,13.82063 1.15711,1.47103 2.10384,3.24077 2.10384,3.93275 0,1.4931 -2.71717,2.73877 -3.43623,1.57531 -0.7542,-1.22032 -23.82748,-1.93565 -34.06377,-1.05606 -4.95,0.42534 -11.925,1.03166 -15.5,1.34737 -3.575,0.3157 -7.09407,0.30808 -7.82015,-0.017 z M 303,280.87756 c 0,-1.77324 -0.2468,-1.91763 -1.5,-0.87756 -0.825,0.68469 -1.5,1.63979 -1.5,2.12244 0,0.48266 0.675,0.87756 1.5,0.87756 0.86218,0 1.5,-0.90249 1.5,-2.12244 z M 298.36163,273.5 c 0.31658,-0.825 0.18787,-1.5 -0.28603,-1.5 -0.47389,0 -1.12064,0.675 -1.43723,1.5 -0.31658,0.825 -0.18787,1.5 0.28603,1.5 0.47389,0 1.12064,-0.675 1.43723,-1.5 z M 276,281.98095 c 0,-0.56709 -1.03081,-0.76034 -2.3242,-0.43572 -1.48502,0.37272 -2.80051,0.009 -3.64339,-1.00617 -1.20513,-1.4521 -1.47255,-1.45071 -3.09333,0.0161 -0.97578,0.88307 -2.82376,1.45692 -4.10661,1.27523 -1.89242,-0.26803 -2.39035,-1.0265 -2.63925,-4.02022 -0.31449,-3.78261 2.06186,-9.81014 3.86764,-9.81014 0.63898,0 0.67787,0.64232 0.10595,1.75 -0.49696,0.9625 -1.20818,3.4375 -1.5805,5.5 -0.54292,3.00758 -0.371,3.75 0.86838,3.75 1.55157,0 1.92805,-1.00151 1.59761,-4.25 -0.12794,-1.25775 0.54288,-1.75 2.38484,-1.75 1.40957,0 2.56286,-0.39752 2.56286,-0.88337 0,-0.48585 0.90589,-1.12026 2.01309,-1.4098 2.58672,-0.67645 4.95304,2.9852 2.53003,3.915 -2.08845,0.80141 -1.9861,3.61111 0.11663,3.20149 0.91286,-0.17782 2.37536,-1.77915 3.25,-3.55849 1.83825,-3.7397 3.86334,-4.62874 10.02186,-4.39973 5.21518,0.19393 5.78973,0.55642 3.89116,2.45499 -0.77843,0.77843 -2.02903,3.27486 -2.77911,5.54762 -1.55602,4.71479 -2.47113,5.0555 -5.05569,1.88229 l -1.83261,-2.25 -1.05293,2.75 C 280.08503,282.90721 276,284.29301 276,281.98095 Z M 287,273 c 0,-1.25292 -1.06124,-1.25292 -3,0 -1.21296,0.78387 -1.06944,0.9723 0.75,0.98469 C 285.9875,273.99311 287,273.55 287,273 Z m -19.5,-21.44484 c -19.25,-0.62341 -56.6,-1.22819 -83,-1.34397 -68.00164,-0.29822 -118.115714,-1.22017 -131.5,-2.41921 -6.325,-0.56663 -13.8625,-1.05278 -16.75,-1.08032 -5.090366,-0.0486 -6.845017,-1.16236 -3.720199,-2.36147 0.841391,-0.32287 1.315346,-1.32125 1.053233,-2.21861 C 32.629167,238.86592 31.303435,43.172545 32.230717,42.513987 32.378823,42.408802 41.05,42.689304 51.5,43.137324 c 10.45,0.448021 64.9,1.030008 121,1.293304 97.11617,0.455799 139.8868,1.112758 143.75,2.208008 0.9625,0.272877 1.75,0.909364 1.75,1.414417 0,1.040853 -228.4906,0.187149 -260.5,-0.9733 C 46.5,46.680966 37.27837,46.534011 37.007488,46.753188 36.47289,47.185743 36.314403,174.53526 36.79682,216.03191 l 0.29682,25.53191 4.7487,1.68659 c 4.259915,1.51299 15.551692,1.79805 109.70318,2.76949 157.47435,1.6248 178.6344,2.27873 173.63891,5.36612 -1.96952,1.21723 -23.38191,1.28001 -57.68443,0.16914 z m 67.10164,-2.3907 c -0.95828,-1.55053 -1.54343,-18.58687 -2.11799,-61.66446 -0.30077,-22.55 -0.96701,-57.425 -1.48052,-77.5 -1.3388,-52.338206 -1.29192,-61 0.3302,-61 0.73334,0 1.38655,0.5625 1.45158,1.25 0.13939,1.473496 3.9203,151.72992 4.50433,179.00584 0.30491,14.24007 0.0991,19.0069 -0.85479,19.79856 -0.75725,0.62847 -1.48539,0.67219 -1.83281,0.11006 z M 60.25,240.29427 C 56.289999,239.53154 57.558453,237 61.900627,237 c 2.145345,0 9.007845,-0.86715 15.25,-1.927 22.301768,-3.78658 32.162963,-4.55103 58.849373,-4.56205 18.75415,-0.008 28.61915,0.40131 33.75,1.39945 3.9875,0.77572 7.25004,1.67572 7.25008,2 4e-5,0.32428 -14.51246,0.6009 -32.25,0.61471 -32.63677,0.0254 -40.41795,0.58008 -63.629607,4.53566 -10.935187,1.86351 -16.034723,2.1649 -20.870473,1.2335 z M 173.96156,229.25 c -0.0211,-0.4125 -0.21973,-3.225 -0.44131,-6.25 -0.22158,-3.025 -0.54179,-9.37359 -0.71156,-14.10798 L 172.5,200.28404 154,199.60784 c -10.175,-0.37191 -25.56092,-1.38485 -34.19094,-2.25097 l -15.69094,-1.57477 -9.081489,5.19694 c -8.333609,4.76896 -9.045235,5.41615 -8.641289,7.85895 0.242108,1.4641 0.477201,3.08745 0.522427,3.60743 0.04523,0.51998 1.605423,-0.71752 3.467101,-2.75 C 92.246549,207.66294 94.239406,206 94.813442,206 96.774282,206 99,209.13917 99,211.90476 c 0,1.51905 0.284167,3.04607 0.631483,3.39339 1.272197,1.2722 4.239347,-1.37672 5.365987,-4.79047 1.51036,-4.57645 4.49628,-4.78893 5.37753,-0.38268 1.14161,5.70806 0.74949,10.875 -0.82531,10.875 -0.79767,0 -1.88578,-0.77813 -2.41801,-1.72919 -0.91718,-1.63891 -1.06745,-1.63891 -2.87843,0 C 100.17845,222.95845 95,220.60514 95,215.06574 95,213.92958 94.592406,213 94.094236,213 c -0.856628,0 -6.592409,7.99452 -7.335756,10.22456 -0.203052,0.60916 -1.292235,0.74081 -2.626182,0.31743 -1.950223,-0.61898 -2.244136,-1.32381 -2.036066,-4.8827 0.133745,-2.28761 0.166807,-5.63762 0.07347,-7.44447 C 82.016898,208.25676 81.800847,208.03622 80,209 c -1.1,0.5887 -2,0.8137 -2,0.5 0,-0.3137 -1.0125,-0.0807 -2.25,0.51768 -1.660958,0.8032 -1.46461,0.41943 0.75,-1.46592 1.65,-1.40468 3.585872,-2.33362 4.301938,-2.06432 0.716066,0.26931 1.053559,0.0878 0.749985,-0.40343 -0.303574,-0.49119 1.810554,-2.245 4.698062,-3.89736 C 89.137493,200.5343 92.4,198.44638 93.5,197.54683 95.374846,196.01364 95.030673,195.96101 88,196.70565 83.875,197.14254 76.603658,197.5 71.841462,197.5 h -8.658538 l -0.712357,14.25 C 61.950886,222.1457 61.418312,226 60.50155,226 57.417497,226 57.025,223.40977 57.764411,207.93665 L 58.5,192.54349 l 2.719718,-0.95414 c 2.147967,-0.75355 3.141618,-0.57232 4.726617,0.86208 1.834377,1.66009 2.766923,1.71875 10.848007,0.6824 C 81.656951,192.51022 89.505641,192 94.235875,192 h 8.600425 l 12.33185,-7.83211 c 6.78252,-4.30766 19.26485,-12.48274 27.73853,-18.16685 l 15.40667,-10.33475 -2.50377,-2.08315 C 154.43251,152.43741 144.41724,144.975 133.55343,137 c -10.86381,-7.975 -25.17189,-18.5056 -31.79575,-23.40134 -10.583788,-7.82256 -12.277938,-8.75485 -13.978884,-7.69259 -2.616867,1.63426 -5.129133,-0.37408 -4.350197,-3.47761 0.349371,-1.392 0.03808,-2.41914 -0.834666,-2.754041 -0.977068,-0.374936 -1.72424,0.786001 -2.507283,3.895741 C 79.41014,106.25683 78.401415,108 77.523227,108 c -1.174436,0 -1.335785,-1.20142 -0.854097,-6.35971 0.423654,-4.53681 0.237506,-6.579958 -0.649429,-7.128114 -0.710959,-0.439397 -1.607991,-0.178337 -2.09503,0.609709 -0.468447,0.757963 -1.318136,1.434365 -1.888196,1.503115 -0.570061,0.06875 -1.598975,0.183485 -2.286475,0.254967 -0.6875,0.07148 0.05583,1.174856 1.651843,2.451941 2.36835,1.895092 2.778501,2.813402 2.230948,4.995032 C 73.093285,106.4765 72.378101,107 69.980948,107 67.478043,107 67,106.60412 67,104.53138 c 0,-1.78348 0.416306,-2.30886 1.5,-1.89301 2.194452,0.84209 1.839526,-0.20794 -1.045455,-3.092915 C 64.042878,96.133787 63,96.338113 63,100.41821 63,104.74347 62.142888,107 60.5,107 c -1.968841,0 -2.486082,-2.46653 -1.367094,-6.51917 1.221179,-4.422753 0.889665,-4.864335 -3.009003,-4.008044 -2.760722,0.606357 -2.926028,0.867395 -1.931521,3.050101 0.809098,1.775773 0.760563,3.176503 -0.189548,5.470273 -2.139749,5.16581 -7.163309,6.32519 -8.31552,1.91913 -0.598618,-2.28912 0.578571,-11.915449 1.673838,-13.68763 C 48.285928,91.728342 51,91.597648 51,93.049435 c 0,0.605416 2.221289,1.029117 5.25,1.001414 2.8875,-0.02641 6.375,-0.0522 7.75,-0.0573 1.375,-0.0051 3.772885,-0.354994 5.328634,-0.77753 l 2.828634,-0.768248 -6.328634,-5.229415 C 62.347885,84.342173 58.851728,81.428926 58.059395,80.744468 54.901553,78.016562 50.567344,75 49.80572,75 49.362574,75 49,76.6301 49,78.622445 49,81.729013 48.786383,82.067603 47.5,81 46.648467,80.29329 46,78.113149 46,75.957011 46,72.549991 45.691098,72.091064 43,71.5 c -3.803195,-0.835322 -4.124696,-3.698755 -0.369154,-3.287849 2.125075,0.232511 2.706957,-0.186298 3.026742,-2.178491 1.033531,-6.438679 6.051414,-9.595118 9.741939,-6.12805 1.226156,1.151915 2.97204,2.09439 3.87974,2.09439 0.907701,0 2.164123,0.959965 2.792049,2.133255 1.046008,1.954485 0.943318,4.073662 -0.58715,12.116745 -0.287804,1.5125 -0.17698,2.718372 0.246277,2.679715 3.081212,-0.281414 4.874705,-2.243414 6.822589,-7.463603 1.207174,-3.235142 2.667332,-6.039567 3.244795,-6.232054 C 73.683575,64.605475 78,73.377136 78,77.837858 78,81.619204 77.769531,82 75.480948,82 73.293303,82 73.044445,81.671099 73.589356,79.5 73.975972,77.959597 73.791366,77 73.108408,77 72.478607,77 72,78.758847 72,81.073324 c 0,3.339753 -0.31516,4.013257 -1.75,3.739784 -0.9625,-0.183446 -1.893798,-1.341442 -2.069551,-2.573324 -0.343231,-2.405764 -0.93666,-2.680931 -2.982807,-1.383095 -0.954563,0.605463 -0.286938,1.594396 2.5,3.703176 2.091297,1.582412 4.919608,3.900871 6.285137,5.15213 1.486036,1.361684 3.19194,2.049939 4.249224,1.71437 1.248007,-0.396102 2.046116,0.174943 2.719353,1.945692 0.5241,1.378487 1.874449,2.999533 3.000776,3.602325 C 85.825685,97.977077 86,97.786476 86,94.735184 c 0,-4.604256 1.466631,-5.847974 4.885102,-4.142616 3.206398,1.599562 6.231207,7.328807 6.76081,12.805552 0.207546,2.14628 1.158269,4.50355 2.115518,5.24532 0.95621,0.74096 8.26357,6.09672 16.23857,11.90169 7.975,5.80496 21.21191,15.48206 29.41535,21.50467 8.20344,6.02261 15.25845,10.9502 15.67778,10.9502 0.41934,0 17.21903,-10.9125 37.33265,-24.25 C 241.4178,100.24165 247.57919,96.279182 263.5,86.899925 280.1817,77.072411 283,75.033504 283,72.79257 c 0,-1.064485 -0.7249,-2.660331 -1.6109,-3.546324 -1.48119,-1.481197 -1.46106,-1.726229 0.25,-3.043324 1.31078,-1.008969 1.49137,-1.570949 0.6109,-1.901007 C 280.22457,63.54265 280.82136,61 283.025,61 c 1.45,0 2.19537,0.851852 2.625,3 0.33,1.65 1.14961,3 1.82136,3 C 289.825,67 295,70.160549 295,71.597993 c 0,1.471182 -4.14453,3.577606 -6.17904,3.140444 -0.61031,-0.13114 -1.50757,1.224063 -1.9939,3.011563 -0.85273,3.134178 -3.2701,4.420884 -4.0289,2.144485 -0.20812,-0.624364 -2.31781,0.382423 -4.84732,2.31324 -2.46334,1.880315 -13.47252,8.965492 -24.46482,15.744838 -29.24167,18.034367 -87.63988,57.085867 -87.22561,58.328677 0.19609,0.58825 3.03021,2.90717 6.29805,5.15316 3.26785,2.24599 14.04154,9.74042 23.94154,16.65429 9.9,6.91387 23.85,16.36354 31,20.99925 15.27635,9.90446 30.77115,21.40493 35,25.97753 3.26767,3.53328 1.98198,3.12844 -3.5,-1.10209 -1.925,-1.48555 -18.8,-12.9388 -37.5,-25.45165 -18.7,-12.51286 -35.575,-23.96908 -37.5,-25.45826 -1.925,-1.48918 -7.62169,-5.50665 -12.65932,-8.92771 l -9.15932,-6.22011 -19.34068,12.85677 c -10.63737,7.07123 -22.15318,14.55004 -25.59068,16.61958 -3.4375,2.06954 -6.25,4.11353 -6.25,4.54219 0,0.42865 3.4875,1.06768 7.75,1.42006 4.2625,0.35238 11.8,1.09413 16.75,1.64834 4.95,0.55421 17.01319,0.95829 26.80708,0.89795 9.79389,-0.0603 18.08604,0.16925 18.427,0.51021 0.34095,0.34095 -0.19817,1.21812 -1.19806,1.94925 -1.61535,1.18117 -1.79738,2.79434 -1.63322,14.47362 C 178.0794,225.38836 177.29059,230 174.96482,230 c -0.53065,0 -0.98212,-0.3375 -1.00326,-0.75 z M 93,102.55902 c 0,-0.24254 -0.45,-0.7191 -1,-1.05902 -0.55,-0.33992 -1,-0.14148 -1,0.44098 0,0.58246 0.45,1.05902 1,1.05902 0.55,0 1,-0.19844 1,-0.44098 z M 58.541404,72.630992 c 0.347616,-1.852954 0.448342,-4.440454 0.223836,-5.75 L 58.357046,64.5 57.203274,67.25 c -0.634575,1.5125 -1.50241,2.756891 -1.928523,2.765313 -0.426113,0.0084 -1.425717,0.427155 -2.221343,0.930517 -1.193794,0.755269 -1.01904,1.27104 1,2.951418 3.315369,2.759266 3.756133,2.634908 4.487996,-1.266256 z M 52.290213,64.75 c 1.063277,-0.79469 1.367951,-1.732224 0.836447,-2.573889 -0.675129,-1.0691 -1.152674,-1.00724 -2.481343,0.321429 -2.966609,2.96661 -1.675734,4.734288 1.644896,2.25246 z m 63.315737,158.71309 c -2.00069,-2.00069 -2.07536,-1.1349 0.95456,-11.06848 1.40829,-4.61703 3.09579,-8.39293 3.75,-8.39087 2.2163,0.007 7.50722,3.84662 8.16759,5.92726 0.54705,1.72361 1.4801,2.069 5.58929,2.069 4.73534,0 4.93261,-0.11194 4.93261,-2.79911 0,-2.31868 0.64364,-3.03968 3.75,-4.20075 3.64557,-1.3626 4.54869,-1.4155 8.76008,-0.51316 2.78523,0.59678 5.82732,6.03256 5.06837,9.05646 -0.80182,3.19474 -5.84534,5.77649 -9.65144,4.94053 C 144.11641,217.86666 144,217.98345 144,221.42054 144,224.2659 143.61177,225 142.10699,225 139.86872,225 139,223.1298 139,218.31122 c 0,-2.80368 -0.32375,-3.40096 -1.58179,-2.91821 -0.86998,0.33385 -2.85923,0.60699 -4.42054,0.60699 -2.35295,0 -2.95368,0.52325 -3.5103,3.05748 -0.5286,2.40675 -1.13081,2.99136 -2.82945,2.74677 -1.56872,-0.22588 -2.09288,-0.92418 -1.91971,-2.55748 0.26866,-2.53395 -0.0643,-2.67781 -2.80395,-1.21159 -1.06384,0.56935 -1.93426,1.86425 -1.93426,2.87756 0,3.00939 -2.48987,4.45453 -4.39405,2.55035 z m 35.19314,-12.66045 c 0.1645,-0.85304 -0.4306,-1.83099 -1.32244,-2.17323 -2.51676,-0.96577 -5.47665,1.14668 -5.47665,3.90864 0,2.3894 0.1031,2.42562 3.25,1.14163 1.7875,-0.72932 3.38459,-2.02399 3.54909,-2.87704 z M 124,211.55902 c 0,-2.31222 -1.72359,-2.72402 -2.29269,-0.54777 -0.33703,1.2888 -0.0251,1.98875 0.88631,1.98875 0.77351,0 1.40638,-0.64844 1.40638,-1.44098 z m 178.36436,2.55355 c -1.3349,-1.55905 -2.06464,-1.77628 -3.09484,-0.92129 -1.41742,1.17635 -9.67913,1.73134 -10.69287,0.7183 -0.32495,-0.32473 -0.85328,-2.46686 -1.17407,-4.76029 -0.55777,-3.98774 -0.43735,-4.23179 2.75709,-5.58742 4.05517,-1.7209 5.96454,-0.46159 3.47353,2.29095 -1.40294,1.55022 -1.46353,1.99831 -0.32911,2.43363 0.90415,0.34695 1.97903,-0.80054 3.07344,-3.28107 1.84058,-4.17178 3.32819,-5.1566 6.52602,-4.32035 1.44307,0.37737 2.09645,1.34979 2.09645,3.12016 v 2.57193 l 2.03896,-2.18856 c 2.45288,-2.63286 4.91662,-2.84558 5.07935,-0.43856 0.0651,0.9625 0.40258,0.43712 0.75,-1.1675 0.89135,-4.11679 2.95739,-4.38094 4.29324,-0.54891 1.01096,2.90003 1.22038,3.03094 2.14396,1.34019 1.48332,-2.71543 2.26397,-3.04134 7.75007,-3.23551 5.68878,-0.20135 6.71697,1.6305 2.19442,3.90963 -1.5125,0.76222 -2.89368,1.46944 -3.06929,1.5716 -0.17561,0.10216 0.23291,1.06995 0.90782,2.15066 2.88157,4.61412 -2.85806,8.33945 -9.03856,5.86651 -1.98457,-0.79407 -4.90302,-1.19625 -6.48546,-0.89375 -2.09322,0.40014 -3.27731,0.0333 -4.34581,-1.34646 -1.41098,-1.82199 -1.44816,-1.80955 -0.94691,0.31677 0.79579,3.37577 -1.7388,4.93212 -3.90743,2.39934 z M 322.45,189.10535 c -1.58368,-1.4914 -7.20084,-2.31752 -7.91382,-1.1639 -1.16589,1.88646 -3.54972,1.12293 -4.75534,-1.52311 -1.13333,-2.48738 -1.20429,-2.50594 -1.94327,-0.50828 -0.55028,1.48756 -1.55397,2.02531 -3.55228,1.90326 -1.53191,-0.0936 -3.23529,-0.41468 -3.78529,-0.7136 -0.55,-0.29891 -1.62131,-0.63745 -2.3807,-0.7523 -2.43733,-0.36862 -3.57304,-2.51832 -4.04499,-7.65644 -0.0409,-0.44496 -0.57391,-0.50025 -1.18452,-0.12287 -0.65494,0.40478 -0.88228,2.09074 -0.55439,4.11128 0.41122,2.53405 0.15348,3.57952 -0.99072,4.01858 -0.85059,0.32641 -1.91028,0.005 -2.35485,-0.71443 -0.64502,-1.04365 -1.14415,-0.97207 -2.47051,0.35428 -4.06982,4.06982 -9.03422,-0.0962 -5.86977,-4.92573 1.35925,-2.07447 1.47099,-2.98943 0.54595,-4.47065 -2.21464,-3.54621 1.00211,-6.97161 6.48876,-6.90964 2.65909,0.03 2.71049,0.11148 0.92393,1.46394 -1.0405,0.78767 -2.35896,1.58785 -2.92991,1.77817 -0.57096,0.19032 -0.74918,1.09896 -0.39604,2.0192 0.8404,2.19006 3.50952,1.14848 3.90929,-1.52553 0.41906,-2.80303 3.36259,-4.61346 4.93856,-3.03749 0.91353,0.91353 0.89177,1.53864 -0.0949,2.72753 -0.70403,0.84831 -0.83006,1.54238 -0.28006,1.54238 0.55,0 1.538,-0.64825 2.19556,-1.44056 0.65756,-0.79231 1.83766,-1.19416 2.62244,-0.89301 1.61361,0.6192 1.9612,3.33357 0.42689,3.33357 -0.55,0 -1,1.158 -1,2.57332 0,3.80089 3.05144,2.73402 4.5,-1.57332 1.33883,-3.98104 3.49127,-4.86588 5.92249,-2.43466 1.48668,1.48668 1.84818,1.50397 3.37137,0.16125 0.93838,-0.8272 3.19964,-1.82165 5.02503,-2.20988 2.84063,-0.60416 3.39781,-0.40405 3.86663,1.38871 0.56346,2.15467 2.31448,2.9318 2.31448,1.02719 0,-1.22954 4.31129,-0.15953 4.83333,1.19957 0.18334,0.4773 0.97084,0.86782 1.75,0.86782 0.77917,0 1.41667,0.9 1.41667,2 0,1.1 -0.45381,2 -1.00847,2 -0.59719,0 -0.49523,0.84142 0.25,2.06315 1.10503,1.81159 0.91637,2.36026 -1.54729,4.5 -2.97094,2.5803 -4.69084,3.00509 -6.24424,1.5422 z M 284.5,182 c 0.33992,-0.55 0.16803,-1 -0.38197,-1 -0.55,0 -1.27811,0.45 -1.61803,1 -0.33992,0.55 -0.16803,1 0.38197,1 0.55,0 1.27811,-0.45 1.61803,-1 z m 37.5,-1.16667 c 0,-1.19166 -0.12734,-1.97916 -0.28297,-1.75 -0.15563,0.22917 -0.88573,1.20417 -1.62244,2.16667 -1.14658,1.49798 -1.10583,1.75 0.28297,1.75 C 321.37493,183 322,182.16527 322,180.83333 Z M 49.164138,138.1226 C 47.342195,136.96772 48.618047,119 50.521995,119 c 2.004647,0 2.591975,2.87045 1.878205,9.17934 -0.661686,5.84853 -0.660335,5.85244 1.718797,4.97404 2.514627,-0.92843 3.771449,-3.98502 2.070765,-5.0361 C 54.492061,127.06804 56.019348,122 58.033244,122 c 0.990049,0 1.950089,0.44958 2.133423,0.99907 C 60.35,123.54856 63.2,124.05244 66.5,124.11881 c 6.943791,0.13965 8.02436,0.54445 6.46594,2.42223 -1.550826,1.86863 -0.215267,5.65362 1.854284,5.25507 1.014832,-0.19544 1.869663,-1.67304 2.222029,-3.84084 C 77.676836,124.05123 78.682234,122 79.961192,122 c 1.267685,0 3.043625,5.82387 2.337261,7.66463 -0.420821,1.09664 -0.168805,1.45955 0.792197,1.14077 0.775143,-0.25712 1.88349,-2.68103 2.462995,-5.38645 L 86.60729,120.5 l 4.446355,-0.0418 c 2.510554,-0.0236 5.603303,-0.80916 7.103756,-1.80433 3.492839,-2.31663 4.241649,-1.0033 3.376419,5.9218 L 100.85609,130 h 7.07195 c 9.73245,0 9.17483,2.6187 -1.04664,4.91531 -3.35958,0.75485 -5.04108,0.65265 -7.230251,-0.43945 -2.489287,-1.24182 -3.227478,-1.22919 -5.796301,0.0992 -2.467108,1.27579 -3.507226,1.31849 -6.424113,0.26373 -2.82191,-1.02041 -4.090584,-1.01045 -6.705563,0.0527 -5.949458,2.41875 -7.364327,2.41161 -9.668564,-0.0488 C 69.849961,133.55418 68.612346,131.2625 68.306352,129.75 67.831552,127.40311 67.255278,127 64.375,127 62.51875,127 61,127.45 61,128 c 0,0.55 1.35,1 3,1 2.222222,0 3,0.46667 3,1.8 0,0.99 0.50079,2.30079 1.112868,2.91287 1.543192,1.54319 0.05696,3.5648 -2.188959,2.97748 -1.017706,-0.26613 -2.372019,0.14466 -3.009586,0.91288 -1.386411,1.67053 -4.09372,1.81737 -5.606964,0.30413 -0.790187,-0.79019 -1.657779,-0.79019 -3.134258,0 -2.432742,1.30196 -3.239843,1.33665 -5.008963,0.21524 z M 96.361626,124.5 c 0.730265,-1.90304 -0.4298,-1.91567 -2.920496,-0.0318 -1.901666,1.43834 -1.897561,1.46884 0.201881,1.5 1.178656,0.0175 2.402033,-0.6432 2.718615,-1.4682 z M 128.7118,109.9397 c -0.98706,-0.59716 -3.1447,-0.78389 -4.81605,-0.4168 -3.77339,0.82877 -8.31796,-0.97092 -9.70702,-3.84408 -0.57935,-1.19835 -1.08383,-1.61632 -1.12105,-0.92882 -0.13715,2.53308 -4.11219,1.22521 -6.07864,-2 l -1.98156,-3.25 -0.004,4.28138 c -0.004,4.53397 -2.31739,6.83067 -4.14429,4.11434 -1.075046,-1.59844 -0.23803,-10.319811 1.25884,-13.11675 1.21972,-2.279067 4.58489,-1.572463 6.9921,1.468169 1.59061,2.00917 1.6335,1.995012 3.49325,-1.1533 1.75698,-2.974323 2.15076,-3.143167 5.88961,-2.525287 6.4763,1.070271 7.30461,2.46331 2.75675,4.636249 -2.86431,1.368548 -3.90421,4.304179 -2.36523,6.677029 0.63729,0.98261 1.93385,1.18718 4.48769,0.70807 3.23894,-0.60762 3.72618,-1.1359 4.96381,-5.38183 1.34356,-4.609351 1.46118,-4.711522 5.60975,-4.872681 2.33057,-0.09054 5.34183,-0.441804 6.69168,-0.780595 1.34985,-0.33879 2.92605,-0.324409 3.50267,0.03196 1.22102,0.754629 -3.88176,5.711031 -8.15441,7.920506 -4.57827,2.36751 -4.88824,3.88459 -0.63052,3.08584 2.73512,-0.51311 3.64456,-0.34581 3.64456,0.67046 0,3.92513 -6.58349,6.91743 -10.2882,4.67614 z M 95.771831,79.035163 C 93.618181,77.341101 92.844578,77.232393 90.158312,78.246346 84.37884,80.427853 79.646589,74.528555 81.44097,67.379171 82.086347,64.807784 84.808759,64.208759 86.8,66.2 c 1.567292,1.567292 1.538456,6.035232 -0.05,7.747179 -1.027868,1.107777 -0.894588,1.212009 0.75,0.586546 1.1,-0.418348 2.688376,-0.961141 3.529726,-1.206207 0.841349,-0.245066 2.430855,-2.778143 3.532237,-5.62906 2.206457,-5.711394 3.248778,-6.253845 10.055457,-5.233121 4.58346,0.687333 5.80435,2.350101 2.38258,3.244914 -1.1,0.287656 -2,1.067086 -2,1.732066 C 105,68.960549 100.77392,73 99.185549,73 98.533497,73 98,73.675 98,74.5 c 0,1.774196 0.482463,1.847345 3.06574,0.464816 C 102.67286,74.104711 103,74.261758 103,75.893388 103,77.850266 100.57194,81 99.06343,81 98.626888,81 97.145669,80.115823 95.771831,79.035163 Z m 66.123689,0.679195 c -2.72259,-2.073627 -3.12245,-5.420804 -1.37025,-11.47023 C 162.5767,61.161628 163.49474,60 167.04066,60 171.48917,60 173,60.993413 173,63.918427 c 0,3.202642 -3.06618,6.809095 -6.52768,7.677876 C 164.94199,71.980391 164,72.931376 164,74.092229 c 0,1.794574 0.15087,1.80347 3.5,0.20638 1.925,-0.917968 3.5,-2.260688 3.5,-2.983821 0,-1.871969 1.9419,-1.629771 2.69635,0.336295 0.4342,1.131502 -0.66491,2.862302 -3.49266,5.5 -4.38755,4.092659 -5.74876,4.512625 -8.30817,2.563275 z M 170,64.883369 C 170,64.397516 169.1,64 168,64 c -1.1,0 -2,0.632871 -2,1.40638 0,0.914051 0.70014,1.223291 2,0.883369 1.1,-0.287656 2,-0.920528 2,-1.40638 z m -53.95716,14.163329 c -1.24952,-0.789589 -1.12088,-1.891557 0.90286,-7.733744 1.29801,-3.747125 2.80093,-7.381003 3.33984,-8.075285 1.48028,-1.907091 3.26688,0.09207 4.71978,5.281333 1.31196,4.685854 2.54019,5.696072 3.32037,2.730998 0.25326,-0.9625 1.01467,-3.878949 1.69203,-6.480998 0.67736,-2.602049 1.83681,-5.233313 2.57657,-5.847253 2.13724,-1.773758 6.96796,0.937063 8.90375,4.996465 l 1.67247,3.507199 1.7485,-2.318046 c 2.34397,-3.107462 5.14285,-2.383301 6.5117,1.684787 l 1.10777,3.292153 1.34951,-4.570525 c 1.51559,-5.13299 4.18496,-7.335734 6.09733,-5.031471 0.92752,1.117591 0.92398,2.289138 -0.0158,5.228987 C 159.3034,67.795084 158.36276,69.9275 157.8792,70.45 157.39564,70.9725 157,72.633442 157,74.140983 c 0,3.778084 -1.52791,4.37552 -4.73616,1.85191 l -2.71686,-2.137077 -1.40756,2.972092 c -1.144,2.415596 -2.02843,2.972092 -4.72349,2.972092 -2.69573,0 -3.48067,-0.49421 -4.1967,-2.64232 l -0.88078,-2.642321 -0.68828,2.742321 C 137.27162,78.765956 136.38547,80 135.68095,80 c -1.97703,0 -3.58148,-2.064053 -3.00972,-3.871855 0.28885,-0.913281 -0.36334,-0.551214 -1.4854,0.824628 -1.74694,2.142064 -2.31779,2.308132 -4.50635,1.310958 -1.3783,-0.627998 -2.80037,-2.069246 -3.16013,-3.202773 -0.95195,-2.999326 -2.34185,-2.52526 -3.2867,1.121023 -0.91025,3.512761 -1.99286,4.252984 -4.18981,2.864717 z M 265,75.5 c -0.68469,-0.825 -2.77891,-1.5 -4.65383,-1.5 -4.51978,0 -5.35383,-2.320216 -2.08841,-5.809698 1.38465,-1.479666 2.82343,-3.702802 3.19728,-4.940302 0.84187,-2.786684 2.20434,-2.898547 3.04496,-0.25 0.34913,1.1 1.24679,2 1.99481,2 0.74802,0 2.1854,1.049288 3.19419,2.331751 1.00878,1.282463 2.98929,2.621674 4.40114,2.976024 2.96649,0.744543 5.5453,5.181465 3.68117,6.333565 -0.6343,0.392019 -1.33251,0.175053 -1.55158,-0.482146 C 275.70016,74.60049 273.08494,72 272.03698,72 c -0.45109,0 -1.10252,1.125 -1.44762,2.5 -0.71122,2.833695 -3.6336,3.356543 -5.58936,1 z M 263,70 c 0,-0.55 -0.19844,-1 -0.44098,-1 -0.24254,0 -0.7191,0.45 -1.05902,1 -0.33992,0.55 -0.14148,1 0.44098,1 C 262.52344,71 263,70.55 263,70 Z m 5,-0.440983 c 0,-0.242541 -0.45,-0.719098 -1,-1.059017 -0.55,-0.339919 -1,-0.141476 -1,0.440983 C 266,69.523442 266.45,70 267,70 c 0.55,0 1,-0.198442 1,-0.440983 z m 35,2.151562 c 0,-5.100328 -0.0973,-5.288011 -2.72254,-5.25 -1.75552,0.02542 -2.84078,-0.549193 -3.05545,-1.617768 -0.45548,-2.267299 8.8579,-4.4514 10.03238,-2.352716 0.41664,0.744486 2.10859,1.650354 3.75988,2.01304 C 314.39439,65.245534 317.88995,70 315.05565,70 c -0.51939,0 -2.65689,1.57285 -4.75,3.495222 C 304.6901,78.652711 303,78.239849 303,71.710579 Z"
     id="path825"
     inkscape:connector-curvature="0" />
</svg>
